<svg width="36" height="51" viewBox="0 0 36 51" fill="none" xmlns="http://www.w3.org/2000/svg">
<path d="M0.5 17.4773C0.5 7.82483 8.32483 0 17.9773 0C27.6297 0 35.4545 7.82483 35.4545 17.4773C35.4545 21.6365 34.0016 25.4564 31.5756 28.4572C29.3434 31.2183 27.341 34.3876 27.341 37.9381V39.7566C27.341 40.712 26.5665 41.4866 25.611 41.4866H10.3437C9.3883 41.4866 8.61375 40.712 8.61375 39.7566V37.9384C8.61375 34.3878 6.61126 31.2184 4.37898 28.4573C1.95295 25.4566 0.5 21.6366 0.5 17.4773Z" fill="#3D68ED"/>
<path fill-rule="evenodd" clip-rule="evenodd" d="M17.9773 0C8.32483 0 0.5 7.82483 0.5 17.4773C0.5 21.6366 1.95295 25.4566 4.37898 28.4573C6.61126 31.2184 8.61375 34.3878 8.61375 37.9384V39.7566C8.61375 40.712 9.3883 41.4866 10.3437 41.4866H25.611C26.5665 41.4866 27.341 40.712 27.341 39.7566V37.9381C27.341 34.3876 29.3434 31.2183 31.5756 28.4572C34.0016 25.4564 35.4545 21.6365 35.4545 17.4773C35.4545 7.82483 27.6297 0 17.9773 0Z" fill="#3D68ED"/>
<rect x="8.63129" y="43.3185" width="18.692" height="7.06553" rx="1.72999" fill="#3D68ED"/>
<path d="M17.9773 20.8449C19.7054 20.8449 21.1064 19.4439 21.1064 17.7158C21.1064 15.9877 19.7054 14.5867 17.9773 14.5867C16.2491 14.5867 14.8482 15.9877 14.8482 17.7158C14.8482 19.4439 16.2491 20.8449 17.9773 20.8449Z" stroke="white" stroke-width="2.5" stroke-linecap="round" stroke-linejoin="round"/>
<path d="M25.6957 20.8449C25.5568 21.1595 25.5154 21.5084 25.5767 21.8468C25.6381 22.1851 25.7994 22.4974 26.0398 22.7432L26.1024 22.8058C26.2964 22.9995 26.4502 23.2296 26.5552 23.4828C26.6602 23.736 26.7142 24.0075 26.7142 24.2816C26.7142 24.5558 26.6602 24.8272 26.5552 25.0805C26.4502 25.3337 26.2964 25.5638 26.1024 25.7575C25.9087 25.9515 25.6786 26.1053 25.4254 26.2103C25.1721 26.3153 24.9007 26.3693 24.6266 26.3693C24.3524 26.3693 24.081 26.3153 23.8277 26.2103C23.5745 26.1053 23.3444 25.9515 23.1507 25.7575L23.0881 25.6949C22.8423 25.4545 22.5301 25.2932 22.1917 25.2318C21.8534 25.1705 21.5044 25.2119 21.1898 25.3507C20.8813 25.483 20.6182 25.7025 20.4329 25.9823C20.2476 26.2622 20.1481 26.5901 20.1468 26.9257V27.103C20.1468 27.6563 19.927 28.1869 19.5358 28.5781C19.1446 28.9693 18.614 29.1891 18.0607 29.1891C17.5075 29.1891 16.9769 28.9693 16.5857 28.5781C16.1945 28.1869 15.9747 27.6563 15.9747 27.103V27.0091C15.9666 26.6639 15.8549 26.3291 15.654 26.0482C15.4531 25.7673 15.1723 25.5534 14.8482 25.4342C14.5336 25.2953 14.1846 25.2539 13.8463 25.3153C13.5079 25.3766 13.1957 25.5379 12.9499 25.7784L12.8873 25.841C12.6936 26.0349 12.4635 26.1888 12.2103 26.2938C11.957 26.3987 11.6856 26.4528 11.4115 26.4528C11.1373 26.4528 10.8659 26.3987 10.6126 26.2938C10.3594 26.1888 10.1293 26.0349 9.93557 25.841C9.74162 25.6472 9.58776 25.4172 9.48278 25.1639C9.3778 24.9107 9.32376 24.6392 9.32376 24.3651C9.32376 24.0909 9.3778 23.8195 9.48278 23.5662C9.58776 23.313 9.74162 23.0829 9.93557 22.8892L9.99816 22.8266C10.2386 22.5808 10.3999 22.2686 10.4613 21.9302C10.5226 21.5919 10.4812 21.2429 10.3424 20.9283C10.2101 20.6198 9.9906 20.3567 9.71077 20.1714C9.43093 19.9861 9.10302 19.8866 8.76739 19.8853H8.59007C8.03682 19.8853 7.50623 19.6655 7.11502 19.2743C6.72381 18.8831 6.50403 18.3525 6.50403 17.7992C6.50403 17.246 6.72381 16.7154 7.11502 16.3242C7.50623 15.933 8.03682 15.7132 8.59007 15.7132H8.68395C9.02918 15.7051 9.364 15.5934 9.64488 15.3925C9.92576 15.1916 10.1397 14.9108 10.2589 14.5867C10.3978 14.2721 10.4392 13.9232 10.3778 13.5848C10.3165 13.2465 10.1552 12.9343 9.91471 12.6884L9.85213 12.6259C9.65818 12.4321 9.50431 12.202 9.39934 11.9488C9.29436 11.6956 9.24032 11.4241 9.24032 11.15C9.24032 10.8758 9.29436 10.6044 9.39934 10.3511C9.50431 10.0979 9.65818 9.86784 9.85213 9.6741C10.0459 9.48015 10.2759 9.32628 10.5292 9.2213C10.7824 9.11632 11.0539 9.06229 11.328 9.06229C11.6021 9.06229 11.8736 9.11632 12.1268 9.2213C12.3801 9.32628 12.6101 9.48015 12.8039 9.6741L12.8665 9.73668C13.1123 9.97714 13.4245 10.1384 13.7629 10.1998C14.1012 10.2611 14.4502 10.2197 14.7648 10.0809H14.8482C15.1567 9.94866 15.4198 9.72912 15.6051 9.44929C15.7904 9.16946 15.8899 8.84154 15.8912 8.50591V8.3286C15.8912 7.77535 16.111 7.24475 16.5022 6.85354C16.8934 6.46233 17.424 6.24255 17.9773 6.24255C18.5305 6.24255 19.0611 6.46233 19.4523 6.85354C19.8435 7.24475 20.0633 7.77535 20.0633 8.3286V8.42247C20.0647 8.7581 20.1641 9.08602 20.3494 9.36585C20.5348 9.64568 20.7979 9.86522 21.1064 9.99744C21.4209 10.1363 21.7699 10.1777 22.1083 10.1163C22.4466 10.055 22.7588 9.89369 23.0047 9.65324L23.0672 9.59066C23.261 9.3967 23.491 9.24284 23.7443 9.13786C23.9975 9.03288 24.269 8.97885 24.5431 8.97885C24.8172 8.97885 25.0887 9.03288 25.3419 9.13786C25.5952 9.24284 25.8253 9.3967 26.019 9.59066C26.2129 9.7844 26.3668 10.0145 26.4718 10.2677C26.5768 10.5209 26.6308 10.7924 26.6308 11.0665C26.6308 11.3407 26.5768 11.6121 26.4718 11.8654C26.3668 12.1186 26.2129 12.3487 26.019 12.5424L25.9564 12.605C25.716 12.8508 25.5546 13.163 25.4933 13.5014C25.432 13.8397 25.4734 14.1887 25.6122 14.5033V14.5867C25.7444 14.8952 25.964 15.1583 26.2438 15.3437C26.5236 15.529 26.8515 15.6284 27.1872 15.6298H27.3645C27.9177 15.6298 28.4483 15.8495 28.8395 16.2407C29.2308 16.632 29.4505 17.1626 29.4505 17.7158C29.4505 18.2691 29.2308 18.7997 28.8395 19.1909C28.4483 19.5821 27.9177 19.8019 27.3645 19.8019H27.2706C26.935 19.8032 26.6071 19.9026 26.3272 20.088C26.0474 20.2733 25.8279 20.5364 25.6957 20.8449Z" stroke="white" stroke-width="2.5" stroke-linecap="round" stroke-linejoin="round"/>
</svg>
