<svg width="51" height="75" viewBox="0 0 51 75" fill="none" xmlns="http://www.w3.org/2000/svg">
<path d="M0 26.2865C0 12.2416 11.3076 0.855957 25.2563 0.855957C39.205 0.855957 50.5127 12.2416 50.5127 26.2865C50.5127 32.3385 48.4131 37.8967 44.9073 42.263C41.6815 46.2805 38.7878 50.892 38.7878 56.0583V58.7043C38.7878 60.0946 37.6686 61.2216 36.2878 61.2216H14.2252C12.8445 61.2216 11.7252 60.0946 11.7252 58.7043V56.0587C11.7252 50.8923 8.83136 46.2808 5.6055 42.2632C2.09965 37.8969 0 32.3385 0 26.2865Z" fill="white"/>
<path fill-rule="evenodd" clip-rule="evenodd" d="M25.2563 0.855957C11.3076 0.855957 0 12.2416 0 26.2865C0 32.3385 2.09965 37.8969 5.6055 42.2632C8.83136 46.2808 11.7252 50.8923 11.7252 56.0587V58.7043C11.7252 60.0946 12.8445 61.2216 14.2252 61.2216H36.2878C37.6686 61.2216 38.7878 60.0946 38.7878 58.7043V56.0583C38.7878 50.892 41.6815 46.2805 44.9073 42.263C48.4131 37.8967 50.5127 32.3385 50.5127 26.2865C50.5127 12.2416 39.205 0.855957 25.2563 0.855957Z" fill="white"/>
<rect x="11.7505" y="63.8872" width="27.0117" height="10.2808" rx="1.72999" fill="white"/>
<path d="M25.2564 31.1866C27.7537 31.1866 29.7782 29.1482 29.7782 26.6336C29.7782 24.1191 27.7537 22.0806 25.2564 22.0806C22.759 22.0806 20.7345 24.1191 20.7345 26.6336C20.7345 29.1482 22.759 31.1866 25.2564 31.1866Z" stroke="#383838" stroke-width="2.5" stroke-linecap="round" stroke-linejoin="round"/>
<path d="M36.4101 31.1866C36.2095 31.6444 36.1497 32.1522 36.2383 32.6445C36.327 33.1368 36.5601 33.5911 36.9075 33.9488L36.998 34.0398C37.2783 34.3217 37.5006 34.6565 37.6523 35.025C37.804 35.3935 37.8821 35.7884 37.8821 36.1873C37.8821 36.5862 37.804 36.9812 37.6523 37.3497C37.5006 37.7182 37.2783 38.0529 36.998 38.3348C36.718 38.617 36.3855 38.8409 36.0196 38.9937C35.6536 39.1464 35.2614 39.2251 34.8652 39.2251C34.469 39.2251 34.0768 39.1464 33.7108 38.9937C33.3448 38.8409 33.0124 38.617 32.7324 38.3348L32.642 38.2438C32.2867 37.8939 31.8356 37.6592 31.3466 37.5699C30.8577 37.4807 30.3534 37.5409 29.8987 37.7429C29.4529 37.9353 29.0727 38.2548 28.8049 38.6619C28.5371 39.0691 28.3934 39.5463 28.3915 40.0346V40.2926C28.3915 41.0976 28.0739 41.8697 27.5085 42.4389C26.9432 43.0082 26.1764 43.3279 25.3769 43.3279C24.5774 43.3279 23.8107 43.0082 23.2453 42.4389C22.68 41.8697 22.3624 41.0976 22.3624 40.2926V40.156C22.3507 39.6537 22.1892 39.1665 21.8989 38.7578C21.6086 38.3491 21.2029 38.0378 20.7345 37.8644C20.2799 37.6623 19.7756 37.6021 19.2867 37.6913C18.7977 37.7806 18.3465 38.0153 17.9913 38.3652L17.9009 38.4562C17.6209 38.7385 17.2884 38.9623 16.9225 39.1151C16.5565 39.2678 16.1643 39.3465 15.7681 39.3465C15.3719 39.3465 14.9797 39.2678 14.6137 39.1151C14.2477 38.9623 13.9153 38.7385 13.6353 38.4562C13.355 38.1743 13.1327 37.8396 12.981 37.4711C12.8293 37.1026 12.7512 36.7076 12.7512 36.3087C12.7512 35.9099 12.8293 35.5149 12.981 35.1464C13.1327 34.7779 13.355 34.4432 13.6353 34.1613L13.7257 34.0702C14.0732 33.7125 14.3063 33.2582 14.395 32.7659C14.4836 32.2736 14.4238 31.7658 14.2231 31.308C14.0321 30.8592 13.7148 30.4763 13.3104 30.2067C12.9061 29.937 12.4322 29.7923 11.9472 29.7904H11.6909C10.8914 29.7904 10.1247 29.4706 9.55933 28.9014C8.99399 28.3321 8.67639 27.5601 8.67639 26.7551C8.67639 25.95 8.99399 25.178 9.55933 24.6088C10.1247 24.0395 10.8914 23.7197 11.6909 23.7197H11.8266C12.3255 23.708 12.8093 23.5454 13.2152 23.2531C13.6211 22.9607 13.9303 22.5522 14.1026 22.0806C14.3032 21.6229 14.3631 21.1151 14.2744 20.6228C14.1857 20.1305 13.9526 19.6762 13.6052 19.3185L13.5147 19.2274C13.2344 18.9455 13.0121 18.6108 12.8604 18.2423C12.7087 17.8738 12.6306 17.4788 12.6306 17.0799C12.6306 16.6811 12.7087 16.2861 12.8604 15.9176C13.0121 15.5491 13.2344 15.2143 13.5147 14.9324C13.7947 14.6502 14.1272 14.4263 14.4931 14.2736C14.8591 14.1208 15.2514 14.0422 15.6475 14.0422C16.0437 14.0422 16.4359 14.1208 16.8019 14.2736C17.1679 14.4263 17.5003 14.6502 17.7803 14.9324L17.8707 15.0235C18.226 15.3734 18.6771 15.6081 19.1661 15.6974C19.655 15.7866 20.1593 15.7264 20.614 15.5243H20.7345C21.1803 15.332 21.5606 15.0125 21.8284 14.6053C22.0962 14.1982 22.2399 13.721 22.2418 13.2327V12.9747C22.2418 12.1696 22.5594 11.3976 23.1248 10.8284C23.6901 10.2591 24.4568 9.93933 25.2564 9.93933C26.0559 9.93933 26.8226 10.2591 27.388 10.8284C27.9533 11.3976 28.2709 12.1696 28.2709 12.9747V13.1112C28.2728 13.5996 28.4165 14.0768 28.6843 14.4839C28.9522 14.8911 29.3324 15.2105 29.7782 15.4029C30.2328 15.6049 30.7371 15.6652 31.226 15.5759C31.715 15.4867 32.1662 15.252 32.5214 14.9021L32.6118 14.811C32.8918 14.5288 33.2243 14.3049 33.5902 14.1522C33.9562 13.9994 34.3485 13.9208 34.7446 13.9208C35.1408 13.9208 35.533 13.9994 35.899 14.1522C36.265 14.3049 36.5974 14.5288 36.8774 14.811C37.1577 15.0929 37.38 15.4277 37.5317 15.7962C37.6834 16.1647 37.7615 16.5596 37.7615 16.9585C37.7615 17.3574 37.6834 17.7524 37.5317 18.1209C37.38 18.4894 37.1577 18.8241 36.8774 19.106L36.787 19.1971C36.4395 19.5548 36.2064 20.0091 36.1177 20.5014C36.0291 20.9937 36.0889 21.5015 36.2896 21.9592V22.0806C36.4806 22.5295 36.7979 22.9124 37.2023 23.182C37.6067 23.4517 38.0805 23.5964 38.5655 23.5983H38.8218C39.6213 23.5983 40.388 23.9181 40.9534 24.4873C41.5187 25.0566 41.8363 25.8286 41.8363 26.6336C41.8363 27.4387 41.5187 28.2107 40.9534 28.7799C40.388 29.3492 39.6213 29.669 38.8218 29.669H38.6861C38.2011 29.6709 37.7272 29.8156 37.3229 30.0853C36.9185 30.3549 36.6012 30.7378 36.4101 31.1866Z" stroke="#383838" stroke-width="2.5" stroke-linecap="round" stroke-linejoin="round"/>
</svg>
