<svg width="19" height="20" viewBox="0 0 19 20" fill="none" xmlns="http://www.w3.org/2000/svg">
<path d="M13.4584 2.76131C13.6663 2.55338 13.9131 2.38844 14.1848 2.27592C14.4565 2.16339 14.7477 2.10547 15.0417 2.10547C15.3358 2.10547 15.6269 2.16339 15.8986 2.27592C16.1703 2.38844 16.4171 2.55338 16.625 2.76131C16.833 2.96923 16.9979 3.21608 17.1104 3.48775C17.223 3.75942 17.2809 4.05059 17.2809 4.34464C17.2809 4.63869 17.223 4.92987 17.1104 5.20153C16.9979 5.4732 16.833 5.72005 16.625 5.92797L5.93754 16.6155L1.58337 17.803L2.77087 13.4488L13.4584 2.76131Z" stroke="#3D68ED" stroke-width="1.58333" stroke-linecap="round" stroke-linejoin="round"/>
</svg>
