<svg width="24" height="25" viewBox="0 0 24 25" fill="none" xmlns="http://www.w3.org/2000/svg">
<path d="M2 3.50012H8C9.06087 3.50012 10.0783 3.92155 10.8284 4.67169C11.5786 5.42184 12 6.43926 12 7.50012V21.5001C12 20.7045 11.6839 19.9414 11.1213 19.3788C10.5587 18.8162 9.79565 18.5001 9 18.5001H2V3.50012Z" stroke="#3D68ED" stroke-width="2" stroke-linecap="round" stroke-linejoin="round"/>
<path d="M22 3.50012H16C14.9391 3.50012 13.9217 3.92155 13.1716 4.67169C12.4214 5.42184 12 6.43926 12 7.50012V21.5001C12 20.7045 12.3161 19.9414 12.8787 19.3788C13.4413 18.8162 14.2044 18.5001 15 18.5001H22V3.50012Z" stroke="#3D68ED" stroke-width="2" stroke-linecap="round" stroke-linejoin="round"/>
</svg>
