<?xml version="1.0" standalone="no"?>
  <!DOCTYPE svg PUBLIC "-//W3C//DTD SVG 1.1//EN" "http://www.w3.org/Graphics/SVG/1.1/DTD/svg11.dtd" >
  <svg>
  <metadata>
  Created by font-carrier
  </metadata>
  <defs>
  <font id="Geometria-ExtraLightItalic" horiz-adv-x="1525" vert-adv-y="1525" >
    <font-face
      
      font-family="Geometria"
      
      font-weight="400"
      
      font-stretch="normal"
      
      units-per-em="1000"
      
      ascent="777"
      
      descent="-223"
      
    />
      <missing-glyph />

      

      
      <glyph glyph-name="uni21" unicode="&#x21;" d="M174 204L143 204L219 700L254 700L174 204M109 6Q101 15 101 28Q101 41 109 49Q118 58 131 58Q144 58 152 49Q161 41 161 28Q161 15 152 6Q144-2 131-2Q118-2 109 6Z"  horiz-adv-x="252" vert-adv-y="1000"  />

      
      <glyph glyph-name="uni22" unicode="&#x22;" d="M168 474L139 474L174 700L204 700L168 474M343 474L313 474L349 700L379 700L343 474Z"  horiz-adv-x="330" vert-adv-y="1000"  />

      
      <glyph glyph-name="uni23" unicode="&#x23;" d="M222 0L193 0L225 204L77 204L81 233L230 233L266 466L118 466L123 495L271 495L304 700L333 700L300 495L525 495L558 700L587 700L554 495L703 495L698 466L550 466L513 233L662 233L657 204L508 204L476 0L447 0L479 204L254 204L222 0M296 466L259 233L484 233L520 466L296 466Z"  horiz-adv-x="688" vert-adv-y="1000"  />

      
      <glyph glyph-name="uni24" unicode="&#x24;" d="M320-12L304-115L272-115L288-11Q212-6 151 15Q85 38 57 63L63 97Q94 67 167 41Q238 17 317 17Q369 17 423 34Q476 52 516 94Q556 137 556 196Q556 248 516 286Q498 303 469 315Q440 328 416 336Q380 348 353 356Q279 376 227 399Q183 420 164 448Q145 476 141 523Q141 614 214 663Q287 712 388 712L404 712L420 815L452 815L435 709Q543 698 608 651L603 621Q509 683 387 683Q336 683 290 668Q244 655 208 617Q172 580 172 527Q172 479 212.50 446Q253 413 319 396Q446 364 492 340Q589 290 588 201Q588 102 508 45Q429-10 320-12Z"  horiz-adv-x="620" vert-adv-y="1000"  />

      
      <glyph glyph-name="uni25" unicode="&#x25;" d="M189 0L701 700L736 700L224 0L189 0M313 712Q384 712 426 667Q468 622 468 558Q468 485 418 432Q369 380 295 380Q224 380 181 425Q139 472 139 535Q139 607 189 660Q238 712 313 712M295 407Q354 407 396 451Q439 495 439 558Q439 613 403.50 649Q368 685 312 685Q252 685 210 641Q169 597 169 535Q169 480 204 443.50Q239 407 295 407M631 320Q701 320 743 274Q786 230 786 165Q786 93 736 40Q687-12 612-12Q541-12 499 33Q457 79 457 143Q457 215 507 268Q556 320 631 320M612 15Q672 15 714 59Q756 104 756 165Q756 221 721 257Q686 293 630 293Q570 293 528 249Q486 205 486 143Q486 88 521 51.50Q556 15 612 15Z"  horiz-adv-x="816" vert-adv-y="1000"  />

      
      <glyph glyph-name="uni26" unicode="&#x26;" d="M661 369L692 369Q667 195 572 91L649 0L608 0L550 69Q458-12 332-12Q226-12 155 47Q84 107 84 210Q84 296 137 352Q188 406 256 423Q217 483 217 542Q217 622 270 667Q322 712 405 712Q508 712 584 644L578 607Q547 639 499.50 661Q452 683 406 683Q334 683 292 645.50Q250 608 250 542Q250 504 263 474.50Q276 445 307 407L552 114Q634 202 661 369M329 17Q447 17 530 93L276 397Q214 386 165 337Q116 288 116 210Q116 122 178 69Q240 17 329 17Z"  horiz-adv-x="696" vert-adv-y="1000"  />

      
      <glyph glyph-name="uni27" unicode="&#x27;" d="M169 474L139 474L174 700L205 700L169 474Z"  horiz-adv-x="156" vert-adv-y="1000"  />

      
      <glyph glyph-name="uni28" unicode="&#x28;" d="M333 706L369 706Q162 484 162 151Q162-49 257-206L224-206Q183-142 158-49.50Q133 43 133 148Q133 486 333 706Z"  horiz-adv-x="317" vert-adv-y="1000"  />

      
      <glyph glyph-name="uni29" unicode="&#x29;" d="M85-206L49-206Q256 16 256 349Q256 549 161 706L194 706Q235 642 260 549.50Q285 457 285 352Q285 14 85-206Z"  horiz-adv-x="317" vert-adv-y="1000"  />

      
      <glyph glyph-name="uni2a" unicode="&#x2a;" d="M148 603L165 624L283 548L307 700L334 700L310 550L452 626L462 601L318 527L438 450L421 429L303 505L279 352L252 352L276 503L134 427L124 451L267 528L148 603Z"  horiz-adv-x="426" vert-adv-y="1000"  />

      
      <glyph glyph-name="uni2b" unicode="&#x2b;" d="M328 93L297 93L330 307L115 307L120 338L336 338L370 554L401 554L367 338L581 338L576 307L361 307L328 93Z"  horiz-adv-x="597" vert-adv-y="1000"  />

      
      <glyph glyph-name="uni2c" unicode="&#x2c;" d="M41-152L13-152L123 76L162 76L41-152Z"  horiz-adv-x="218" vert-adv-y="1000"  />

      
      <glyph glyph-name="uni2d" unicode="&#x2d;" d="M397 254L133 254L139 283L403 283L397 254Z"  horiz-adv-x="449" vert-adv-y="1000"  />

      
      <glyph glyph-name="uni2e" unicode="&#x2e;" d="M86 6Q78 15 78 28Q78 41 86 49Q95 58 108 58Q121 58 129 49Q138 41 138 28Q138 15 129 6Q121-2 108-2Q95-2 86 6Z"  horiz-adv-x="209" vert-adv-y="1000"  />

      
      <glyph glyph-name="uni2f" unicode="&#x2f;" d="M601 792L33-140L-4-140L564 792L601 792Z"  horiz-adv-x="493" vert-adv-y="1000"  />

      
      <glyph glyph-name="uni30" unicode="&#x30;" d="M440 712Q554 712 621 625Q689 537 689 402Q689 306 653 211Q619 119 544 53Q470-12 377-12Q262-12 194 74Q127 160 127 298Q127 395 162 488Q196 580 271 646Q345 712 440 712M377 17Q463 17 528 78Q593 138 625.50 223.50Q658 309 658 402Q658 523 600 602Q542 683 439 683Q354 683 287 621Q223 562 190.50 476.50Q158 391 158 297Q158 178 215 97Q274 17 377 17Z"  horiz-adv-x="705" vert-adv-y="1000"  />

      
      <glyph glyph-name="uni31" unicode="&#x31;" d="M235 0L204 0L309 662L130 560L135 595L317 700L346 700L235 0Z"  horiz-adv-x="344" vert-adv-y="1000"  />

      
      <glyph glyph-name="uni32" unicode="&#x32;" d="M134 591L140 634Q228 712 349 712Q443 712 499 657Q556 602 556 522Q556 453 509 389Q463 327 364 246L100 29L517 29L513 0L48 0L51 25L337 263Q393 310 411 327Q438 351 468 386Q524 451 524 517Q524 593 472 638Q421 683 348 683Q231 683 134 591Z"  horiz-adv-x="568" vert-adv-y="1000"  />

      
      <glyph glyph-name="uni33" unicode="&#x33;" d="M573 677L293 428L296 428Q396 428 464 374Q531 322 531 229Q531 118 448 53Q365-12 251-12Q127-12 45 44L51 76Q127 17 250 17Q346 14 422.50 73Q499 132 499 227Q499 311 437 356Q376 401 287 401Q253 401 238 397L242 422L522 671L162 671L165 700L576 700L573 677Z"  horiz-adv-x="563" vert-adv-y="1000"  />

      
      <glyph glyph-name="uni34" unicode="&#x34;" d="M465 0L433 0L466 209L76 209L80 234L547 700L576 700L502 238L625 238L621 209L498 209L465 0M537 650L123 238L471 238L537 650Z"  horiz-adv-x="624" vert-adv-y="1000"  />

      
      <glyph glyph-name="uni35" unicode="&#x35;" d="M322 431Q430 431 496 371Q562 311 562 225Q562 116 475 52Q390-12 270-12Q148-12 74 40L79 72Q152 17 270 17Q332 17 389 38Q448 59 488 107Q530 155 530 220Q530 296 472 348Q415 402 314 402Q234 402 159 380L253 700L587 700L583 671L276 671L201 418Q250 431 322 431Z"  horiz-adv-x="593" vert-adv-y="1000"  />

      
      <glyph glyph-name="uni36" unicode="&#x36;" d="M392 438Q484 438 545 379Q605 321 605 236Q605 134 536 61Q467-12 362-12Q255-12 190 59Q125 132 125 251Q125 444 223 578Q321 712 463 712Q560 712 620 664L615 633Q551 683 461 683Q342 683 256 573Q169 462 159 304Q196 363 258 400.50Q320 438 392 438M364 17Q451 17 512 81Q574 146 574 236Q574 312 521 360Q469 409 388 409Q318 409 253 364Q189 321 156 253Q156 152 210 84Q265 17 364 17Z"  horiz-adv-x="637" vert-adv-y="1000"  />

      
      <glyph glyph-name="uni37" unicode="&#x37;" d="M160 700L601 700L598 678L149 0L113 0L557 671L156 671L160 700Z"  horiz-adv-x="540" vert-adv-y="1000"  />

      
      <glyph glyph-name="uni38" unicode="&#x38;" d="M469 367Q540 346 581.50 299.50Q623 253 623 193Q623 99 546 43Q470-12 362-12Q248-12 175 42Q102 96 102 180Q102 256 158 309Q214 364 302 377Q249 398 218 437Q187 476 187 526Q187 610 252 661Q318 712 412 712Q503 712 565 666Q628 620 628 544Q628 475 581 428Q535 382 469 367M218 526Q218 464 273 424Q328 384 403 384Q476 384 537 425Q598 465 598 539Q598 603 543 643Q490 683 411 683Q334 683 276 641Q218 599 218 526M359 17Q450 17 521 64Q592 112 592 194Q592 264 527 309Q463 355 365 355Q274 355 203 308Q133 262 133 181Q133 110 199 63Q266 17 359 17Z"  horiz-adv-x="658" vert-adv-y="1000"  />

      
      <glyph glyph-name="uni39" unicode="&#x39;" d="M353 262Q259 262 200 320Q140 378 140 464Q140 566 209 639Q278 712 382 712Q490 712 554 640Q620 570 620 449Q620 254 521 121Q424-12 281-12Q236-12 193 1.50Q150 15 125 36L129 67Q191 17 283 17Q402 17 488 127Q575 238 585 396Q550 337 488 299.50Q426 262 353 262M380 683Q293 683 232 619Q171 555 171 464Q171 388 223 339Q275 291 356 291Q426 291 491 335Q555 380 588 447Q588 548 533 615Q479 683 380 683Z"  horiz-adv-x="637" vert-adv-y="1000"  />

      
      <glyph glyph-name="uni3a" unicode="&#x3a;" d="M149 403Q141 412 141 425Q141 438 149 446Q158 455 171 455Q184 455 192 446Q201 438 201 425Q201 412 192 403Q184 395 171 395Q158 395 149 403M86 6Q78 15 78 28Q78 41 86 49Q95 58 108 58Q121 58 129 49Q138 41 138 28Q138 15 129 6Q121-2 108-2Q95-2 86 6Z"  horiz-adv-x="209" vert-adv-y="1000"  />

      
      <glyph glyph-name="uni3b" unicode="&#x3b;" d="M41-152L13-152L123 76L162 76L41-152M153 403Q145 412 145 425Q145 438 153 446Q162 455 175 455Q188 455 196 446Q205 438 205 425Q205 412 196 403Q188 395 175 395Q162 395 153 403Z"  horiz-adv-x="218" vert-adv-y="1000"  />

      
      <glyph glyph-name="uni3c" unicode="&#x3c;" d="M121 334L614 537L609 503L157 318L550 134L546 102L116 304L121 334Z"  horiz-adv-x="597" vert-adv-y="1000"  />

      
      <glyph glyph-name="uni3d" unicode="&#x3d;" d="M560 193L100 193L105 222L565 222L560 193M597 421L136 421L141 450L601 450L597 421Z"  horiz-adv-x="597" vert-adv-y="1000"  />

      
      <glyph glyph-name="uni3e" unicode="&#x3e;" d="M540 320L147 505L153 537L581 334L577 304L83 102L89 136L540 320Z"  horiz-adv-x="597" vert-adv-y="1000"  />

      
      <glyph glyph-name="uni3f" unicode="&#x3f;" d="M252 204L221 204L244 350Q324 363 393 415Q460 466 460 540Q460 601 415.50 639Q371 677 296 677Q209 677 130 624L135 660Q205 706 302 706Q386 706 439 659Q492 612 492 543Q492 462 428 407Q364 352 271 328L252 204M187 6Q179 15 179 28Q179 41 187 49Q196 58 209 58Q222 58 230 49Q239 41 239 28Q239 15 230 6Q222-2 209-2Q196-2 187 6Z"  horiz-adv-x="463" vert-adv-y="1000"  />

      
      <glyph glyph-name="uni40" unicode="&#x40;" d="M562 712Q735 712 845 602Q956 492 956 334Q956 291 944.50 246.50Q933 202 910.50 162Q888 122 850 96.50Q812 71 765 71Q722 71 695.50 94Q669 117 663 151Q592 71 499 71Q414 71 363 124Q313 179 313 256Q313 348 374 412Q436 477 528 477Q581 477 625 453.50Q669 430 693 393L704 461L735 461L693 194Q691 176 691 171Q691 133 713.50 112.50Q736 92 773 92Q825 92 862 132Q936 207 936 334Q936 483 833 587Q731 692 562 692Q379 692 245 558Q111 424 111 237Q111 76 216-33Q322-144 480-144Q581-144 681-100L677-123Q584-164 479-164Q313-164 202-48Q91 68 91 237Q91 362 152 471Q214 581 322 646Q432 712 562 712M661 187L688 356Q668 395 624.50 422Q581 449 530 449Q455 449 399 393Q345 338 345 258Q345 191 389 144Q434 99 505 99Q547 99 590.50 124.50Q634 150 661 187Z"  horiz-adv-x="973" vert-adv-y="1000"  />

      
      <glyph glyph-name="uni41" unicode="&#x41;" d="M704 0L670 0L607 213L201 213L71 0L36 0L466 705L495 705L704 0M599 241L475 662L218 241L599 241Z"  horiz-adv-x="739" vert-adv-y="1000"  />

      
      <glyph glyph-name="uni42" unicode="&#x42;" d="M549 379Q615 368 652 325Q689 282 689 219Q689 117 618 58Q548 0 435 0L109 0L220 700L506 700Q587 700 633 660Q679 620 679 554Q679 490 645 444Q611 398 549 379M502 671L247 671L202 388L457 388Q536 388 592 429Q648 471 648 550Q648 606 609.50 638.50Q571 671 502 671M198 360L145 29L436 29Q531 29 593 78Q656 128 656 219Q656 284 611.50 322Q567 360 487 360L198 360Z"  horiz-adv-x="728" vert-adv-y="1000"  />

      
      <glyph glyph-name="uni43" unicode="&#x43;" d="M163 320Q163 192 245 104Q328 17 457 17Q578 17 670 84L665 48Q580-12 456-12Q311-12 221 82Q131 176 131 319Q131 480 236 595Q342 712 504 712Q627 712 714 649L709 618Q623 683 503 683Q361 683 262 577Q163 472 163 320Z"  horiz-adv-x="693" vert-adv-y="1000"  />

      
      <glyph glyph-name="uni44" unicode="&#x44;" d="M220 700L411 700Q565 700 659 614Q753 529 753 390Q753 215 634 107Q515 0 329 0L109 0L220 700M145 29L335 29Q502 30 611 128Q721 227 721 390Q721 518 636 594Q551 671 403 671L247 671L145 29Z"  horiz-adv-x="775" vert-adv-y="1000"  />

      
      <glyph glyph-name="uni45" unicode="&#x45;" d="M587 0L109 0L220 700L680 700L676 671L247 671L203 391L558 391L554 362L198 362L145 29L591 29L587 0Z"  horiz-adv-x="638" vert-adv-y="1000"  />

      
      <glyph glyph-name="uni46" unicode="&#x46;" d="M140 0L109 0L220 700L676 700L671 671L247 671L201 382L555 382L550 353L197 353L140 0Z"  horiz-adv-x="615" vert-adv-y="1000"  />

      
      <glyph glyph-name="uni47" unicode="&#x47;" d="M674 101L723 400L755 400L704 84Q596-12 456-12Q311-12 221 81Q131 175 131 317Q131 478 236 595Q342 712 504 712Q652 712 742 628L736 596Q643 683 503 683Q361 683 262 577Q163 470 163 319Q163 188 245 103Q328 17 459 17Q583 17 674 101Z"  horiz-adv-x="783" vert-adv-y="1000"  />

      
      <glyph glyph-name="uni48" unicode="&#x48;" d="M140 0L109 0L220 700L251 700L202 391L681 391L730 700L761 700L650 0L619 0L676 362L197 362L140 0Z"  horiz-adv-x="759" vert-adv-y="1000"  />

      
      <glyph glyph-name="uni49" unicode="&#x49;" d="M147 0L116 0L227 700L258 700L147 0Z"  horiz-adv-x="262" vert-adv-y="1000"  />

      
      <glyph glyph-name="uni4a" unicode="&#x4a;" d="M479 700L510 700L430 192Q397-12 192-12Q101-12 43 38L48 72Q100 17 194 17Q285 17 334.50 60Q384 103 399 198L479 700Z"  horiz-adv-x="500" vert-adv-y="1000"  />

      
      <glyph glyph-name="uni4b" unicode="&#x4b;" d="M612 0L234 365L238 390L664 700L709 700L268 375L654 0L612 0M140 0L109 0L220 700L251 700L140 0Z"  horiz-adv-x="674" vert-adv-y="1000"  />

      
      <glyph glyph-name="uni4c" unicode="&#x4c;" d="M555 0L109 0L220 700L251 700L145 29L559 29L555 0Z"  horiz-adv-x="590" vert-adv-y="1000"  />

      
      <glyph glyph-name="uni4d" unicode="&#x4d;" d="M848 700L738 0L706 0L809 649L484 300L459 300L244 650L140 0L109 0L220 700L249 700L474 332L814 700L848 700Z"  horiz-adv-x="846" vert-adv-y="1000"  />

      
      <glyph glyph-name="uni4e" unicode="&#x4e;" d="M666 0L636 0L243 648L140 0L109 0L219 700L249 700L642 52L744 700L776 700L666 0Z"  horiz-adv-x="774" vert-adv-y="1000"  />

      
      <glyph glyph-name="uni4f" unicode="&#x4f;" d="M502 712Q647 712 735 618Q825 523 825 382Q825 220 719 104Q614-12 455-12Q311-12 221 82Q131 176 131 319Q131 480 237 595Q344 712 502 712M455 17Q595 17 694 123Q793 230 793 381Q793 511 712 596Q631 683 502 683Q361 683 262 577Q163 471 163 320Q163 191 244 104Q327 17 455 17Z"  horiz-adv-x="847" vert-adv-y="1000"  />

      
      <glyph glyph-name="uni50" unicode="&#x50;" d="M109 0L220 700L498 700Q590 700 641 656Q692 612 692 537Q692 445 625 388Q559 331 459 331L193 331L140 0L109 0M198 360L462 360Q543 362 601 406Q660 453 660 533Q660 599 617 635Q574 671 494 671L247 671L198 360Z"  horiz-adv-x="665" vert-adv-y="1000"  />

      
      <glyph glyph-name="uni51" unicode="&#x51;" d="M502 712Q647 712 735 618Q825 523 825 382Q825 240 740 130Q656 20 523-5Q582-79 653-79Q700-79 740-55L735-87Q694-108 648-108Q565-108 487-10Q461-12 455-12Q311-12 221 82Q131 176 131 319Q131 480 237 595Q344 712 502 712M455 17Q595 17 694 123Q794 229 794 381Q794 511 712 596Q631 683 502 683Q361 683 262 577Q163 471 163 320Q163 191 244 104Q327 17 455 17Z"  horiz-adv-x="847" vert-adv-y="1000"  />

      
      <glyph glyph-name="uni52" unicode="&#x52;" d="M509 340L681 0L645 0L473 338L194 338L140 0L109 0L220 700L517 700Q607 700 657 657Q707 614 707 539Q707 458 652.50 404.50Q598 351 509 340M512 671L247 671L199 367L482 367Q563 367 619 413Q676 460 676 537Q676 600 633 635.50Q590 671 512 671Z"  horiz-adv-x="736" vert-adv-y="1000"  />

      
      <glyph glyph-name="uni53" unicode="&#x53;" d="M608 651L603 621Q509 683 387 683Q336 683 290 668Q244 655 208 617Q172 580 172 527Q172 493 186 474Q208 447 225 437Q262 418 279 411L309 401L342 391L373 382L425 365Q443 360 473 347Q502 335 519 323Q593 274 588 201Q588 102 507 45Q426-12 317-12Q241-12 164 11Q89 36 57 63L63 97Q94 67 167 41Q238 17 317 17Q369 17 423 34Q476 52 516 94Q556 137 556 196Q556 248 516 286Q498 303 469 315Q440 328 416 336Q380 348 353 356Q269 380 227 399Q184 421 164 449Q144 477 141 523Q141 614 214 663Q287 712 388 712Q526 712 608 651Z"  horiz-adv-x="620" vert-adv-y="1000"  />

      
      <glyph glyph-name="uni54" unicode="&#x54;" d="M323 0L292 0L399 671L144 671L148 700L690 700L686 671L430 671L323 0Z"  horiz-adv-x="616" vert-adv-y="1000"  />

      
      <glyph glyph-name="uni55" unicode="&#x55;" d="M664 293L728 700L760 700L694 283Q672 140 589 64Q509-12 390-12Q273-12 205.50 53Q138 118 138 235Q138 261 149 330L207 700L238 700L179 324Q170 260 170 239Q170 135 227 76Q284 17 390 17Q499 17 571 90Q643 163 664 293Z"  horiz-adv-x="748" vert-adv-y="1000"  />

      
      <glyph glyph-name="uni56" unicode="&#x56;" d="M377 42L777 700L813 700L386-4L357-4L152 700L186 700L377 42Z"  horiz-adv-x="745" vert-adv-y="1000"  />

      
      <glyph glyph-name="uni57" unicode="&#x57;" d="M313 50L612 700L640 700L735 52L1060 700L1096 700L740-4L712-4L618 640L320-4L292-4L158 700L192 700L313 50Z"  horiz-adv-x="1035" vert-adv-y="1000"  />

      
      <glyph glyph-name="uni58" unicode="&#x58;" d="M616 0L405 356L83 0L41 0L388 382L198 700L235 700L409 407L675 700L716 700L426 382L655 0L616 0Z"  horiz-adv-x="694" vert-adv-y="1000"  />

      
      <glyph glyph-name="uni59" unicode="&#x59;" d="M371 357L677 700L717 700L385 326L334 0L302 0L353 326L139 700L175 700L371 357Z"  horiz-adv-x="635" vert-adv-y="1000"  />

      
      <glyph glyph-name="uni5a" unicode="&#x5a;" d="M662 700L659 678L107 29L585 29L581 0L58 0L61 23L613 671L177 671L181 700L662 700Z"  horiz-adv-x="638" vert-adv-y="1000"  />

      
      <glyph glyph-name="uni5b" unicode="&#x5b;" d="M286-206L70-206L215 706L431 706L426 679L240 679L105-179L291-179L286-206Z"  horiz-adv-x="360" vert-adv-y="1000"  />

      
      <glyph glyph-name="uni5c" unicode="&#x5c;" d="M178 792L451-140L418-140L145 792L178 792Z"  horiz-adv-x="492" vert-adv-y="1000"  />

      
      <glyph glyph-name="uni5d" unicode="&#x5d;" d="M152 706L368 706L223-206L7-206L12-179L198-179L333 679L147 679L152 706Z"  horiz-adv-x="360" vert-adv-y="1000"  />

      
      <glyph glyph-name="uni5e" unicode="&#x5e;" d="M151 350L118 350L341 704L372 704L484 350L453 350L353 670L151 350Z"  horiz-adv-x="494" vert-adv-y="1000"  />

      
      <glyph glyph-name="uni5f" unicode="&#x5f;" d="M-9-116L-5-87L579-87L574-116L-9-116Z"  horiz-adv-x="601" vert-adv-y="1000"  />

      
      <glyph glyph-name="uni60" unicode="&#x60;" d="M301 700L342 700L417 574L384 574L301 700Z"  horiz-adv-x="521" vert-adv-y="1000"  />

      
      <glyph glyph-name="uni61" unicode="&#x61;" d="M167 414L173 447Q238 485 346 485Q428 485 477 448Q526 411 526 341Q526 319 522 294L493 111Q489 91 489 74Q489 24 539 24Q554 24 562 28L558 2Q546-3 529-3Q496-3 477 18Q458 39 458 75Q370-12 249-12Q172-12 122 27Q72 68 72 133Q72 212 134 253Q195 295 279 295Q391 295 480 233L489 286Q495 325 495 338Q495 396 455.50 426Q416 456 340 456Q240 456 167 414M461 115L476 204Q396 268 282 268Q211 268 156 233Q103 198 103 136Q103 80 146 48.50Q189 17 259 17Q317 17 370 44.50Q423 72 461 115Z"  horiz-adv-x="587" vert-adv-y="1000"  />

      
      <glyph glyph-name="uni62" unicode="&#x62;" d="M138 95L123 0L92 0L203 700L234 700L185 395Q266 485 383 485Q486 485 548 419Q609 355 609 258Q609 146 534 67Q459-12 346-12Q279-12 224.50 18Q170 48 138 95M377 456Q319 456 263 424Q206 392 177 345L145 132Q167 86 222 51Q275 17 344 17Q440 17 509 87Q578 158 578 257Q578 344 523 399Q468 456 377 456Z"  horiz-adv-x="632" vert-adv-y="1000"  />

      
      <glyph glyph-name="uni63" unicode="&#x63;" d="M516 441L510 411Q447 456 363 456Q261 456 191 386Q122 317 122 216Q122 132 178 74Q235 17 329 17Q404 17 471 57L466 23Q401-12 324-12Q214-12 153 54Q91 122 91 214Q91 330 168 407Q246 485 359 485Q451 485 516 441Z"  horiz-adv-x="513" vert-adv-y="1000"  />

      
      <glyph glyph-name="uni64" unicode="&#x64;" d="M562 378L613 700L644 700L533 0L502 0L515 78Q434-12 317-12Q214-12 152 53Q91 118 91 215Q91 326 166 406Q241 485 354 485Q421 485 475.50 455Q530 425 562 378M323 17Q382 17 437 48Q493 80 523 128L554 340Q531 387 478 421Q423 456 355 456Q260 456 191 386Q122 316 122 216Q122 129 177 73Q233 17 323 17Z"  horiz-adv-x="625" vert-adv-y="1000"  />

      
      <glyph glyph-name="uni65" unicode="&#x65;" d="M333 17Q409 17 480 60L474 27Q416-12 330-12Q228-12 159 51Q91 114 91 214Q91 322 162 404Q234 485 347 485Q446 485 497 421Q548 358 548 278Q548 270 546 238L123 238Q122 233 122 213Q122 127 182 71Q244 17 333 17M344 456Q260 456 201 401Q141 345 126 264L516 264Q517 269 517 282Q517 350 473 403Q429 456 344 456Z"  horiz-adv-x="565" vert-adv-y="1000"  />

      
      <glyph glyph-name="uni66" unicode="&#x66;" d="M236 473L411 473L407 444L231 444L161 0L131 0L200 444L100 444L104 473L205 473L222 582Q241 706 361 706Q408 706 445 686L441 655Q401 677 361 677Q268 677 251 573L236 473Z"  horiz-adv-x="367" vert-adv-y="1000"  />

      
      <glyph glyph-name="uni67" unicode="&#x67;" d="M561 378L576 473L607 473L534 7Q501-203 260-203Q152-203 77-158L82-125Q158-174 262-174Q472-174 503 10L515 78Q432-12 317-12Q214-12 152 54Q91 121 91 216Q91 328 166 406Q241 485 354 485Q421 485 476.50 455Q532 425 561 378M522 129L555 339Q530 387 477 421Q424 456 355 456Q259 456 190 386Q122 316 122 218Q122 133 178 74Q234 17 325 17Q381 17 437 49Q491 80 522 129Z"  horiz-adv-x="625" vert-adv-y="1000"  />

      
      <glyph glyph-name="uni68" unicode="&#x68;" d="M552 238L515 0L484 0L522 239Q532 295 532 326Q532 389 494.50 422.50Q457 456 390 456Q330 456 273 423.50Q216 391 177 343L123 0L92 0L203 700L234 700L184 388Q278 485 398 485Q474 485 518.50 443.50Q563 402 563 330Q563 307 552 238Z"  horiz-adv-x="598" vert-adv-y="1000"  />

      
      <glyph glyph-name="uni69" unicode="&#x69;" d="M137 0L106 0L182 473L212 473L137 0M198 623Q190 632 190 645Q190 658 198 666Q207 675 220 675Q233 675 241 666Q250 658 250 645Q250 632 241 623Q233 615 220 615Q207 615 198 623Z"  horiz-adv-x="243" vert-adv-y="1000"  />

      
      <glyph glyph-name="uni6a" unicode="&#x6a;" d="M-13-203Q-53-203-81-187L-76-155Q-48-174-12-174Q78-174 95-69L181 473L212 473L125-76Q106-203-13-203M198 623Q190 632 190 645Q190 658 198 666Q207 675 220 675Q233 675 241 666Q250 658 250 645Q250 632 241 623Q233 615 220 615Q207 615 198 623Z"  horiz-adv-x="243" vert-adv-y="1000"  />

      
      <glyph glyph-name="uni6b" unicode="&#x6b;" d="M123 0L92 0L203 700L234 700L123 0M457 0L195 246L199 270L492 473L539 473L228 255L502 0L457 0Z"  horiz-adv-x="536" vert-adv-y="1000"  />

      
      <glyph glyph-name="uni6c" unicode="&#x6c;" d="M199 700L230 700L138 115Q133 73 133 66Q133 17 190 17Q224 17 251 32L247 2Q217-12 180-12Q101-12 101 62Q101 77 106 110L199 700Z"  horiz-adv-x="268" vert-adv-y="1000"  />

      
      <glyph glyph-name="uni6d" unicode="&#x6d;" d="M92 0L167 473L198 473L185 394Q261 485 377 485Q435 485 474 457Q513 429 523 379Q605 485 726 485Q796 485 835.50 445.50Q875 406 875 337Q875 312 868 273L826 0L794 0L837 277Q843 313 843 331Q843 456 718 456Q663 456 611 424Q559 392 526 340L520 286L476 0L445 0L489 283Q495 317 495 336Q495 411 447 436Q412 456 369 456Q316 456 263.50 425Q211 394 178 345L123 0L92 0Z"  horiz-adv-x="910" vert-adv-y="1000"  />

      
      <glyph glyph-name="uni6e" unicode="&#x6e;" d="M552 238L515 0L484 0L522 239Q532 295 532 326Q532 389 494.50 422.50Q457 456 390 456Q330 456 273 423.50Q216 391 177 343L123 0L92 0L167 473L198 473L184 388Q278 485 398 485Q474 485 518.50 443.50Q563 402 563 330Q563 307 552 238Z"  horiz-adv-x="598" vert-adv-y="1000"  />

      
      <glyph glyph-name="uni6f" unicode="&#x6f;" d="M355 485Q460 485 525 417Q590 349 590 254Q590 143 514 66Q437-12 326-12Q220-12 155 56Q91 123 91 219Q91 330 167 407Q244 485 355 485M326 17Q423 17 490 87Q559 158 559 255Q559 341 502 398Q445 456 354 456Q259 456 190 386Q122 315 122 218Q122 133 178 74Q235 17 326 17Z"  horiz-adv-x="613" vert-adv-y="1000"  />

      
      <glyph glyph-name="uni70" unicode="&#x70;" d="M138 95L91-200L60-200L167 473L198 473L185 395Q266 485 383 485Q486 485 548 419Q609 355 609 258Q609 146 534 67Q459-12 346-12Q279-12 224.50 18Q170 48 138 95M377 456Q319 456 263 424Q206 392 177 345L145 132Q167 86 222 51Q275 17 344 17Q441 17 508 87Q577 158 577 257Q577 344 522 399Q467 456 377 456Z"  horiz-adv-x="632" vert-adv-y="1000"  />

      
      <glyph glyph-name="uni71" unicode="&#x71;" d="M562 378L577 473L608 473L501-200L470-200L515 78Q434-12 317-12Q214-12 152 53Q91 118 91 215Q91 326 166 406Q241 485 354 485Q421 485 475.50 455Q530 425 562 378M323 17Q382 17 437 48Q493 80 523 128L554 340Q531 387 478 421Q423 456 355 456Q260 456 191 386Q123 315 123 216Q123 129 178 73Q234 17 323 17Z"  horiz-adv-x="625" vert-adv-y="1000"  />

      
      <glyph glyph-name="uni72" unicode="&#x72;" d="M123 0L92 0L167 473L198 473L181 370Q214 416 269 449Q326 485 392 485L388 454Q324 454 265 415Q209 376 175 323L123 0Z"  horiz-adv-x="331" vert-adv-y="1000"  />

      
      <glyph glyph-name="uni73" unicode="&#x73;" d="M474 432L470 401Q397 456 290 456Q234 456 188 432Q143 408 143 356Q143 316 187 292Q226 272 282 255L292 252Q310 246 341 235Q355 231 383 218Q418 202 433.50 181.50Q449 161 453 127Q453 58 394 23Q335-12 257-12Q195-12 139.50 6.50Q84 25 51 52L56 85Q138 17 259 17Q292 17 329 25Q368 35 395 61Q422 87 422 124Q422 170 354 199Q325 210 278 225Q188 254 150.50 281Q113 308 113 354Q113 418 165 451Q217 485 292 485Q403 485 474 432Z"  horiz-adv-x="487" vert-adv-y="1000"  />

      
      <glyph glyph-name="uni74" unicode="&#x74;" d="M176 145L224 444L99 444L104 473L228 473L253 630L284 630L259 473L444 473L439 444L255 444L208 148Q200 92 200 81Q197 31 246 19.50Q295 8 367 42L362 10Q327-12 271-12Q168-12 168 75Q168 89 172 114Q176 139 176 145Z"  horiz-adv-x="419" vert-adv-y="1000"  />

      
      <glyph glyph-name="uni75" unicode="&#x75;" d="M121 235L158 473L189 473L151 234Q141 178 141 147Q141 84 178.50 50.50Q216 17 283 17Q343 17 400 49.50Q457 82 496 130L550 473L581 473L506 0L475 0L489 85Q395-12 275-12Q199-12 154.50 29.50Q110 71 110 143Q110 166 121 235Z"  horiz-adv-x="598" vert-adv-y="1000"  />

      
      <glyph glyph-name="uni76" unicode="&#x76;" d="M276 40L550 473L586 473L285-4L256-4L107 473L140 473L276 40Z"  horiz-adv-x="549" vert-adv-y="1000"  />

      
      <glyph glyph-name="uni77" unicode="&#x77;" d="M578 46L802 473L837 473L586-4L558-4L472 426L250-4L222-4L122 473L153 473L243 47L465 475L492 475L578 46Z"  horiz-adv-x="810" vert-adv-y="1000"  />

      
      <glyph glyph-name="uni78" unicode="&#x78;" d="M506 473L547 473L329 251L502 0L465 0L307 229L80 0L39 0L290 254L142 473L179 473L312 276L506 473Z"  horiz-adv-x="535" vert-adv-y="1000"  />

      
      <glyph glyph-name="uni79" unicode="&#x79;" d="M524 473L560 473L248-56Q204-131 161-167Q118-203 66-203Q30-203 5-188L11-157Q37-174 68-174Q118-174 157-130Q197-87 259 19L102 473L135 473L279 56L524 473Z"  horiz-adv-x="530" vert-adv-y="1000"  />

      
      <glyph glyph-name="uni7a" unicode="&#x7a;" d="M42 22L444 444L123 444L127 473L495 473L491 450L91 29L451 29L446 0L39 0L42 22Z"  horiz-adv-x="486" vert-adv-y="1000"  />

      
      <glyph glyph-name="uni7b" unicode="&#x7b;" d="M263-206L219-206Q171-206 144-182Q117-158 117-113Q117-93 124-58L148 93Q155 141 155 158Q155 229 93 235L98 264Q145 269 174 321Q181 334 186 355Q194 384 200 424L225 584Q235 643 270.50 674.50Q306 706 363 706L408 706L403 678L363 678Q272 678 255 580L229 420Q219 361 203 317Q183 266 140 249Q184 228 184 165Q184 134 178 98L154-55Q148-100 148-107Q148-178 228-178L268-178L263-206Z"  horiz-adv-x="337" vert-adv-y="1000"  />

      
      <glyph glyph-name="uni7c" unicode="&#x7c;" d="M137-111L107-111L244 760L274 760L137-111Z"  horiz-adv-x="279" vert-adv-y="1000"  />

      
      <glyph glyph-name="uni7d" unicode="&#x7d;" d="M147 678L152 706L196 706Q244 706 271 682Q298 658 298 613Q298 593 291 558L267 407Q260 359 260 342Q260 271 322 265L317 236Q267 231 241 178Q234 166 228 144Q221 116 215 76L190-84Q180-143 144.50-174.50Q109-206 52-206L7-206L12-178L52-178Q143-178 160-80L186 80Q196 141 212 182Q231 234 275 251Q231 272 231 335Q231 366 237 402L261 555Q267 600 267 607Q267 678 187 678L147 678Z"  horiz-adv-x="337" vert-adv-y="1000"  />

      
      <glyph glyph-name="uni7e" unicode="&#x7e;" d="M423 247Q486 247 527 289L523 255Q490 219 418 219Q379 219 313 243Q248 268 209 268Q147 268 103 225L109 259Q143 296 212 296Q252 296 318 271Q386 247 423 247Z"  horiz-adv-x="551" vert-adv-y="1000"  />

      
      <glyph glyph-name="unia1" unicode="&#xa1;" d="M153 276L184 276L111-200L76-200L153 276M216 468Q225 460 225 447Q225 434 216 425Q208 417 195 417Q182 417 173 425Q165 434 165 447Q165 460 173 468Q182 477 195 477Q208 477 216 468Z"  horiz-adv-x="252" vert-adv-y="1000"  />

      
      <glyph glyph-name="unia2" unicode="&#xa2;" d="M368 485L385 590L414 590L397 483Q467 475 516 441L510 411Q447 456 363 456Q261 456 192 386Q123 317 123 216Q123 131 179 73Q235 17 329 17Q404 17 471 57L466 23Q401-12 324-12L318-12L302-117L274-117L290-10Q196 0 143 64Q91 128 91 214Q91 334 170 409Q249 485 368 485Z"  horiz-adv-x="513" vert-adv-y="1000"  />

      
      <glyph glyph-name="unia3" unicode="&#xa3;" d="M461 683Q372 683 315.50 633Q259 583 245 490L221 339L525 339L521 310L216 310L179 83Q174 42 152 29L521 29L517 0L69 0L74 29L99 29Q117 29 129 45Q146 68 154 119L184 310L118 310L123 339L189 339L214 496Q230 600 295 656Q360 712 463 712Q562 712 620 663L614 631Q561 683 461 683Z"  horiz-adv-x="576" vert-adv-y="1000"  />

      
      <glyph glyph-name="unia4" unicode="&#xa4;" d="M204 203L140 139L119 159L183 223Q138 277 138 351Q138 424 183 478L119 542L140 563L204 499Q256 545 331 545Q406 545 458 499L522 563L543 542L477 478Q524 425 524 351Q524 277 479 223L543 159L522 139L458 203Q406 157 331 157Q256 157 204 203M214 233Q260 185 331 185Q402 185 448 233Q495 282 495 351Q495 420 448 469Q402 517 331 517Q260 517 214 469Q167 420 167 351Q167 282 214 233Z"  horiz-adv-x="549" vert-adv-y="1000"  />

      
      <glyph glyph-name="unia5" unicode="&#xa5;" d="M641 700L680 700L382 343L587 343L583 313L364 313L344 187L563 187L557 159L339 159L314 0L283 0L307 159L90 159L94 187L313 187L332 313L115 313L119 343L325 343L139 700L175 700L353 355L641 700Z"  horiz-adv-x="598" vert-adv-y="1000"  />

      
      <glyph glyph-name="unia6" unicode="&#xa6;" d="M137-111L107-111L162 242L192 242L137-111M219 407L189 407L244 760L274 760L219 407Z"  horiz-adv-x="279" vert-adv-y="1000"  />

      
      <glyph glyph-name="unia7" unicode="&#xa7;" d="M403 683Q361 683 325 673Q284 663 254.50 634.50Q225 606 225 566Q225 524 264.50 496.50Q304 469 401 433Q507 393 555.50 353.50Q604 314 604 261Q604 204 563 163Q522 122 455 104Q531 58 531-1Q531-75 469-113Q407-151 319-151Q191-151 93-83L98-52Q196-122 322-122Q364-122 400-112Q441-101 470.50-72.50Q500-44 500-4Q500 42 446 74Q419 90 393 101Q355 118 324 129Q217 170 169 209.50Q121 249 121 303Q121 359 161.50 399Q202 439 269 458Q193 504 193 563Q193 636 255 674Q319 712 405 712Q534 712 632 644L626 613Q529 683 403 683M438 387L387 408Q373 414 346 423L300 441Q243 429 197 393Q151 357 151 305Q151 246 228 203Q281 175 296 169Q318 160 370 141L424 121Q479 131 526 168Q573 204 573 257Q573 298 531 333Q514 348 486 363Q458 380 438 387Z"  horiz-adv-x="639" vert-adv-y="1000"  />

      
      <glyph glyph-name="unia8" unicode="&#xa8;" d="M269 674Q287 674 294.50 659.50Q302 645 294.50 630.50Q287 616 269 616Q252 616 244.50 630.50Q237 645 244.50 659.50Q252 674 269 674M454 674Q472 674 479.50 659.50Q487 645 479.50 630.50Q472 616 454 616Q437 616 429.50 630.50Q422 645 429.50 659.50Q437 674 454 674Z"  horiz-adv-x="521" vert-adv-y="1000"  />

      
      <glyph glyph-name="unia9" unicode="&#xa9;" d="M494-12Q343-12 237 94Q132 200 132 351Q132 500 238 606Q344 712 494 712Q644 712 750 606Q856 500 856 349Q856 200 750 94Q644-12 494-12M835 349Q835 492 735 592Q636 692 494 692Q352 692 252 592Q152 492 152 349Q152 207 252 107Q352 8 494 8Q636 8 735 107Q835 207 835 349M513 160Q434 160 382 214Q330 267 330 350Q330 433 382 486Q434 540 513 540Q570 540 614 513L614 482Q570 511 513 511Q446 511 403 466Q360 422 360 350Q360 278 403 234Q446 189 514 189Q579 189 626 227L626 196Q581 160 513 160Z"  horiz-adv-x="878" vert-adv-y="1000"  />

      
      <glyph glyph-name="uniaa" unicode="&#xaa;" d="M443 420L453 483Q391 530 309 530Q252 530 213.50 504.50Q175 479 175 433Q175 392 207 369Q239 346 291 346Q334 346 374.50 367Q415 388 443 420M217 644L223 674Q277 704 357 704Q422 704 460.50 675Q499 646 499 590Q499 587 496 557L474 421Q471 404 471 388Q471 351 508 351Q519 351 527 355L522 329Q514 324 497 324Q472 324 456.50 340Q441 356 441 383Q373 318 281 318Q220 318 182 349Q144 380 144 431Q144 492 192 525Q240 558 304 558Q388 558 458 511L464 549Q468 566 468 588Q468 676 351 676Q276 676 217 644Z"  horiz-adv-x="536" vert-adv-y="1000"  />

      
      <glyph glyph-name="uniab" unicode="&#xab;" d="M239 42L203 42L73 227L76 247L264 431L304 431L106 234L239 42M458 42L422 42L292 227L296 247L483 431L523 431L325 234L458 42Z"  horiz-adv-x="543" vert-adv-y="1000"  />

      
      <glyph glyph-name="uniac" unicode="&#xac;" d="M500 160L471 160L499 338L122 338L127 367L533 367L500 160Z"  horiz-adv-x="544" vert-adv-y="1000"  />

      
      <glyph glyph-name="uniad" unicode="&#xad;" d="M388 253L133 253L138 282L393 282L388 253Z"  horiz-adv-x="440" vert-adv-y="1000"  />

      
      <glyph glyph-name="uniae" unicode="&#xae;" d="M388 168L359 168L359 535L525 535Q578 535 608 508.50Q638 482 638 437Q638 398 615 372.50Q592 347 550 341L671 168L637 168L517 339L388 339L388 168M388 509L388 364L525 364Q609 364 609 437Q609 472 587 490.50Q565 509 525 509L388 509M826 349Q826 492 726 592Q627 692 485 692Q343 692 243 592Q143 492 143 349Q143 207 243 107Q344 8 485 8Q627 8 726 107Q826 207 826 349M485-12Q334-12 228 94Q123 200 123 351Q123 500 229 606Q335 712 485 712Q635 712 741 606Q847 500 847 349Q847 200 741 94Q635-12 485-12Z"  horiz-adv-x="869" vert-adv-y="1000"  />

      
      <glyph glyph-name="uniaf" unicode="&#xaf;" d="M473 629L254 629L258 656L477 656L473 629Z"  horiz-adv-x="520" vert-adv-y="1000"  />

      
      <glyph glyph-name="unib0" unicode="&#xb0;" d="M428 566Q428 615 393 650Q358 685 309 685Q260 685 225 650Q191 616 191 566Q191 515 225 481Q259 447 309 447Q359 447 393 481Q428 516 428 566M163 566Q163 566 163 596Q163 626 206 669Q249 712 309 712Q369 712 412 669Q456 625 456 566Q456 507 412 463Q369 420 309 420Q249 420 206 463Q163 506 163 566Z"  horiz-adv-x="441" vert-adv-y="1000"  />

      
      <glyph glyph-name="unib1" unicode="&#xb1;" d="M375 388L590 388L586 359L371 359L343 185L313 185L341 359L125 359L129 388L346 388L373 562L402 562L375 388M80 75L85 104L545 104L541 75L80 75Z"  horiz-adv-x="597" vert-adv-y="1000"  />

      
      <glyph glyph-name="unib2" unicode="&#xb2;" d="M142 627L147 663Q197 704 260 704Q312 704 344 675Q376 646 376 601Q376 564 351.50 530Q327 496 273 451L148 349L357 349L353 322L96 322L100 345L249 468Q301 511 323 538.50Q345 566 345 597Q345 632 319.50 654.50Q294 677 257 677Q203 677 142 627Z"  horiz-adv-x="347" vert-adv-y="1000"  />

      
      <glyph glyph-name="unib3" unicode="&#xb3;" d="M372 700L369 679L231 555Q283 553 315.50 525Q348 497 348 450Q348 388 303 353Q259 318 195 318Q124 318 80 349L84 379Q125 345 194 345Q243 345 280 373Q318 402 318 449Q318 487 288.50 509Q259 531 213 531Q197 531 181 528L185 551L323 673L143 673L146 700L372 700Z"  horiz-adv-x="316" vert-adv-y="1000"  />

      
      <glyph glyph-name="unib4" unicode="&#xb4;" d="M287 574L404 700L448 700L326 574L287 574Z"  horiz-adv-x="514" vert-adv-y="1000"  />

      
      <glyph glyph-name="unib5" unicode="&#xb5;" d="M91-200L60-200L166 473L197 473L160 234Q149 149 149 147Q149 84 186.50 50.50Q224 17 291 17Q351 17 408 49.50Q465 82 504 130L558 473L589 473L514 0L483 0L497 85Q403-12 283-12Q171-12 133 68L91-200Z"  horiz-adv-x="606" vert-adv-y="1000"  />

      
      <glyph glyph-name="unib6" unicode="&#xb6;" d="M375 700L494 700L384 0L352 0L405 333L317 333Q230 333 181 375.50Q132 418 132 489Q132 587 200 643Q269 700 375 700Z"  horiz-adv-x="492" vert-adv-y="1000"  />

      
      <glyph glyph-name="unib7" unicode="&#xb7;" d="M136 353Q128 362 128 375Q128 388 136 396Q145 405 158 405Q171 405 179 396Q188 388 188 375Q188 362 179 353Q171 345 158 345Q145 345 136 353Z"  horiz-adv-x="215" vert-adv-y="1000"  />

      
      <glyph glyph-name="unib8" unicode="&#xb8;" d="M176-124L135-124L241 4L272 4L176-124Z"  horiz-adv-x="454" vert-adv-y="1000"  />

      
      <glyph glyph-name="unib9" unicode="&#xb9;" d="M204 322L174 322L228 665L113 600L118 633L236 700L263 700L204 322Z"  horiz-adv-x="248" vert-adv-y="1000"  />

      
      <glyph glyph-name="uniba" unicode="&#xba;" d="M321 704Q404 704 453 652Q504 600 504 525Q504 440 445 378Q386 318 298 318Q217 318 166 370Q116 423 116 498Q116 584 174 643Q232 704 321 704M299 345Q371 345 421 398Q472 450 472 525Q472 588 430 632Q388 676 320 676Q249 676 198 623Q147 570 147 497Q147 432 189 388Q231 345 299 345Z"  horiz-adv-x="464" vert-adv-y="1000"  />

      
      <glyph glyph-name="unibb" unicode="&#xbb;" d="M379 431L415 431L544 246L541 226L354 42L314 42L511 239L379 431M160 431L196 431L325 246L322 226L134 42L95 42L292 239L160 431Z"  horiz-adv-x="543" vert-adv-y="1000"  />

      
      <glyph glyph-name="unibc" unicode="&#xbc;" d="M123 0L637 700L673 700L159 0L123 0M204 322L174 322L228 665L113 600L118 633L236 700L263 700L204 322M634 0L604 0L620 106L416 106L419 129L666 378L693 378L655 133L719 133L714 106L651 106L634 0M656 330L459 133L624 133L656 330Z"  horiz-adv-x="721" vert-adv-y="1000"  />

      
      <glyph glyph-name="unibd" unicode="&#xbd;" d="M123 0L637 700L673 700L159 0L123 0M204 322L174 322L228 665L113 600L118 633L236 700L263 700L204 322M537 305L542 341Q592 382 655 382Q707 382 739 353Q771 324 771 279Q771 242 746.50 208Q722 174 668 129L543 27L752 27L748 0L491 0L495 23L644 146Q696 189 718 216.50Q740 244 740 275Q740 310 714.50 332.50Q689 355 652 355Q598 355 537 305Z"  horiz-adv-x="792" vert-adv-y="1000"  />

      
      <glyph glyph-name="unibe" unicode="&#xbe;" d="M684 0L654 0L670 106L466 106L469 129L716 378L743 378L705 133L769 133L764 106L701 106L684 0M706 330L509 133L674 133L706 330M372 700L369 679L231 555Q283 553 315.50 525Q348 497 348 450Q348 388 303 353Q259 318 195 318Q124 318 80 349L84 379Q125 345 194 345Q243 345 280 373Q318 402 318 449Q318 487 288.50 509Q259 531 213 531Q197 531 181 528L185 551L323 673L143 673L146 700L372 700M172 0L686 700L722 700L208 0L172 0Z"  horiz-adv-x="771" vert-adv-y="1000"  />

      
      <glyph glyph-name="unibf" unicode="&#xbf;" d="M292 276L323 276L302 149Q252 140 204 117Q154 94 120.50 51.50Q87 9 87-39Q87-99 131.50-136.50Q176-174 251-174Q342-174 418-122L413-156Q339-203 246-203Q160-203 108-157Q56-112 56-41Q56 40 119 93Q184 147 276 171L292 276M355 468Q364 460 364 447Q364 434 355 425Q347 417 334 417Q321 417 312 425Q304 434 304 447Q304 460 312 468Q321 477 334 477Q347 477 355 468Z"  horiz-adv-x="463" vert-adv-y="1000"  />

      
      <glyph glyph-name="unic0" unicode="&#xc0;" d="M704 0L670 0L607 213L201 213L71 0L36 0L466 705L495 705L704 0M599 241L475 662L218 241L599 241M388 891L429 891L505 765L471 765L388 891Z"  horiz-adv-x="739" vert-adv-y="1000"  />

      
      <glyph glyph-name="unic1" unicode="&#xc1;" d="M704 0L670 0L607 213L201 213L71 0L36 0L466 705L495 705L704 0M599 241L475 662L218 241L599 241M474 765L590 891L634 891L512 765L474 765Z"  horiz-adv-x="739" vert-adv-y="1000"  />

      
      <glyph glyph-name="unic2" unicode="&#xc2;" d="M704 0L670 0L607 213L201 213L71 0L36 0L466 705L495 705L704 0M599 241L475 662L218 241L599 241M527 891L611 765L578 765L508 867L405 765L368 765L493 891L527 891Z"  horiz-adv-x="739" vert-adv-y="1000"  />

      
      <glyph glyph-name="unic3" unicode="&#xc3;" d="M704 0L670 0L607 213L201 213L71 0L36 0L466 705L495 705L704 0M599 241L475 662L218 241L599 241M564 780Q536 780 494 813Q452 846 430 846Q392 846 378 786L351 786Q359 827 381 850Q403 873 433 873Q460 873 504 840Q548 808 567 808Q605 808 620 868L647 868Q639 827 617 803.50Q595 780 564 780Z"  horiz-adv-x="739" vert-adv-y="1000"  />

      
      <glyph glyph-name="unic4" unicode="&#xc4;" d="M704 0L670 0L607 213L201 213L71 0L36 0L466 705L495 705L704 0M599 241L475 662L218 241L599 241M378 824Q378 841 392.50 848.50Q407 856 421.50 848.50Q436 841 436 824Q436 806 421.50 798.50Q407 791 392.50 798.50Q378 806 378 824M592 795Q580 795 571.50 803Q563 811 563 824Q563 836 571.50 844.50Q580 853 592 853Q605 853 613 844.50Q621 836 621 824Q621 811 613 803Q605 795 592 795Z"  horiz-adv-x="739" vert-adv-y="1000"  />

      
      <glyph glyph-name="unic5" unicode="&#xc5;" d="M704 0L670 0L607 213L201 213L71 0L36 0L466 705L495 705L704 0M599 241L475 662L218 241L599 241M406 828Q406 864 433 891Q460 918 497 918Q534 918 560.50 891Q587 864 587 828Q587 791 560.50 764Q534 737 497 737Q460 737 433 764Q406 791 406 828M497 762Q525 762 544 781Q563 800 563 828Q563 856 544 875.50Q525 895 497 895Q469 895 450 875.50Q431 856 431 828Q431 800 449.50 781Q468 762 497 762Z"  horiz-adv-x="739" vert-adv-y="1000"  />

      
      <glyph glyph-name="unic6" unicode="&#xc6;" d="M45 0L9 0L571 700L1059 700L1054 671L628 671L584 391L937 391L932 362L579 362L527 29L971 29L966 0L491 0L525 213L217 213L45 0M587 676L238 241L529 241L598 676L587 676Z"  horiz-adv-x="1017" vert-adv-y="1000"  />

      
      <glyph glyph-name="unic7" unicode="&#xc7;" d="M360-124L319-124L414-9Q285 5 208 95Q131 187 131 319Q131 480 236 595Q342 712 504 712Q627 712 714 649L709 618Q623 683 503 683Q361 683 262 577Q163 472 163 320Q163 192 245 104Q328 17 457 17Q578 17 670 84L665 48Q580-12 456-12Q454-12 450-11.50Q446-11 444-11L360-124Z"  horiz-adv-x="693" vert-adv-y="1000"  />

      
      <glyph glyph-name="unic8" unicode="&#xc8;" d="M587 0L109 0L220 700L680 700L676 671L247 671L203 391L558 391L554 362L198 362L145 29L591 29L587 0M368 891L409 891L485 765L451 765L368 891Z"  horiz-adv-x="638" vert-adv-y="1000"  />

      
      <glyph glyph-name="unic9" unicode="&#xc9;" d="M587 0L109 0L220 700L680 700L676 671L247 671L203 391L558 391L554 362L198 362L145 29L591 29L587 0M419 765L535 891L579 891L457 765L419 765Z"  horiz-adv-x="638" vert-adv-y="1000"  />

      
      <glyph glyph-name="unica" unicode="&#xca;" d="M587 0L109 0L220 700L680 700L676 671L247 671L203 391L558 391L554 362L198 362L145 29L591 29L587 0M508 891L592 765L559 765L489 867L386 765L349 765L474 891L508 891Z"  horiz-adv-x="638" vert-adv-y="1000"  />

      
      <glyph glyph-name="unicb" unicode="&#xcb;" d="M587 0L109 0L220 700L680 700L676 671L247 671L203 391L558 391L554 362L198 362L145 29L591 29L587 0M339 824Q339 841 353.50 848.50Q368 856 382.50 848.50Q397 841 397 824Q397 806 382.50 798.50Q368 791 353.50 798.50Q339 806 339 824M553 795Q541 795 532.50 803Q524 811 524 824Q524 836 532.50 844.50Q541 853 553 853Q566 853 574 844.50Q582 836 582 824Q582 811 574 803Q566 795 553 795Z"  horiz-adv-x="638" vert-adv-y="1000"  />

      
      <glyph glyph-name="unicc" unicode="&#xcc;" d="M147 0L116 0L227 700L258 700L147 0M149 891L190 891L266 765L232 765L149 891Z"  horiz-adv-x="262" vert-adv-y="1000"  />

      
      <glyph glyph-name="unicd" unicode="&#xcd;" d="M147 0L116 0L227 700L258 700L147 0M232 765L348 891L392 891L270 765L232 765Z"  horiz-adv-x="262" vert-adv-y="1000"  />

      
      <glyph glyph-name="unice" unicode="&#xce;" d="M292 891L376 765L343 765L273 867L170 765L133 765L258 891L292 891M147 0L116 0L227 700L258 700L147 0Z"  horiz-adv-x="262" vert-adv-y="1000"  />

      
      <glyph glyph-name="unicf" unicode="&#xcf;" d="M147 0L116 0L227 700L258 700L147 0M139 824Q139 841 153.50 848.50Q168 856 182.50 848.50Q197 841 197 824Q197 806 182.50 798.50Q168 791 153.50 798.50Q139 806 139 824M353 795Q341 795 332.50 803Q324 811 324 824Q324 836 332.50 844.50Q341 853 353 853Q366 853 374 844.50Q382 836 382 824Q382 811 374 803Q366 795 353 795Z"  horiz-adv-x="262" vert-adv-y="1000"  />

      
      <glyph glyph-name="unid0" unicode="&#xd0;" d="M204 338L86 338L90 367L209 367L262 700L453 700Q607 700 701 614Q795 529 795 390Q795 215 676 107Q557 0 371 0L151 0L204 338M187 29L377 29Q544 30 653 128Q763 227 763 390Q763 518 678 594Q593 671 445 671L289 671L240 367L416 367L412 338L236 338L187 29Z"  horiz-adv-x="817" vert-adv-y="1000"  />

      
      <glyph glyph-name="unid1" unicode="&#xd1;" d="M666 0L636 0L243 648L140 0L109 0L219 700L249 700L642 52L744 700L776 700L666 0M584 780Q556 780 514 813Q472 846 450 846Q412 846 398 786L371 786Q379 827 401 850Q423 873 453 873Q481 873 524 840Q568 808 587 808Q625 808 640 868L667 868Q659 827 637 803.50Q615 780 584 780Z"  horiz-adv-x="774" vert-adv-y="1000"  />

      
      <glyph glyph-name="unid2" unicode="&#xd2;" d="M502 712Q647 712 735 618Q825 523 825 382Q825 220 719 104Q614-12 455-12Q311-12 221 82Q131 176 131 319Q131 480 237 595Q344 712 502 712M455 17Q595 17 694 123Q793 230 793 381Q793 511 712 596Q631 683 502 683Q361 683 262 577Q163 471 163 320Q163 191 244 104Q327 17 455 17M444 891L485 891L561 765L527 765L444 891Z"  horiz-adv-x="847" vert-adv-y="1000"  />

      
      <glyph glyph-name="unid3" unicode="&#xd3;" d="M502 712Q647 712 735 618Q825 523 825 382Q825 220 719 104Q614-12 455-12Q311-12 221 82Q131 176 131 319Q131 480 237 595Q344 712 502 712M455 17Q595 17 694 123Q793 230 793 381Q793 511 712 596Q631 683 502 683Q361 683 262 577Q163 471 163 320Q163 191 244 104Q327 17 455 17M504 765L620 891L664 891L542 765L504 765Z"  horiz-adv-x="847" vert-adv-y="1000"  />

      
      <glyph glyph-name="unid4" unicode="&#xd4;" d="M582 891L666 765L633 765L563 867L460 765L423 765L548 891L582 891M502 712Q647 712 735 618Q825 523 825 382Q825 220 719 104Q614-12 455-12Q311-12 221 82Q131 176 131 319Q131 480 237 595Q344 712 502 712M455 17Q595 17 694 123Q793 230 793 381Q793 511 712 596Q631 683 502 683Q361 683 262 577Q163 471 163 320Q163 191 244 104Q327 17 455 17Z"  horiz-adv-x="847" vert-adv-y="1000"  />

      
      <glyph glyph-name="unid5" unicode="&#xd5;" d="M502 712Q647 712 735 618Q825 523 825 382Q825 220 719 104Q614-12 455-12Q311-12 221 82Q131 176 131 319Q131 480 237 595Q344 712 502 712M455 17Q595 17 694 123Q793 230 793 381Q793 511 712 596Q631 683 502 683Q361 683 262 577Q163 471 163 320Q163 191 244 104Q327 17 455 17M617 780Q590 780 547 813Q504 846 483 846Q444 846 431 786L404 786Q412 827 434 850Q456 873 486 873Q514 873 557 840Q601 808 620 808Q658 808 673 868L700 868Q692 827 670 803.50Q648 780 617 780Z"  horiz-adv-x="847" vert-adv-y="1000"  />

      
      <glyph glyph-name="unid6" unicode="&#xd6;" d="M502 712Q647 712 735 618Q825 523 825 382Q825 220 719 104Q614-12 455-12Q311-12 221 82Q131 176 131 319Q131 480 237 595Q344 712 502 712M455 17Q595 17 694 123Q793 230 793 381Q793 511 712 596Q631 683 502 683Q361 683 262 577Q163 471 163 320Q163 191 244 104Q327 17 455 17M426 824Q426 841 440.50 848.50Q455 856 469.50 848.50Q484 841 484 824Q484 806 469.50 798.50Q455 791 440.50 798.50Q426 806 426 824M640 795Q628 795 619.50 803Q611 811 611 824Q611 836 619.50 844.50Q628 853 640 853Q653 853 661 844.50Q669 836 669 824Q669 811 661 803Q653 795 640 795Z"  horiz-adv-x="847" vert-adv-y="1000"  />

      
      <glyph glyph-name="unid7" unicode="&#xd7;" d="M304 342L493 506L512 484L323 321L460 160L438 140L302 300L113 139L94 160L282 322L145 486L167 506L304 342Z"  horiz-adv-x="503" vert-adv-y="1000"  />

      
      <glyph glyph-name="unid8" unicode="&#xd8;" d="M502 712Q638 712 728 625L805 702L846 702L748 603Q825 511 825 382Q825 220 719 104Q614-12 455-12Q318-12 228 75L154 0L113 0L208 96Q131 190 131 319Q131 480 237 595Q344 712 502 712M455 17Q595 17 694 123Q794 229 794 381Q794 495 726 580L250 98Q330 17 455 17M163 320Q163 202 231 119L706 602Q624 683 502 683Q361 683 262 577Q163 471 163 320Z"  horiz-adv-x="847" vert-adv-y="1000"  />

      
      <glyph glyph-name="unid9" unicode="&#xd9;" d="M664 293L728 700L760 700L694 283Q672 140 589 64Q509-12 390-12Q273-12 205.50 53Q138 118 138 235Q138 261 149 330L207 700L238 700L179 324Q170 260 170 239Q170 135 227 76Q284 17 390 17Q499 17 571 90Q643 163 664 293M407 891L448 891L524 765L490 765L407 891Z"  horiz-adv-x="748" vert-adv-y="1000"  />

      
      <glyph glyph-name="unida" unicode="&#xda;" d="M664 293L728 700L760 700L694 283Q672 140 589 64Q509-12 390-12Q273-12 205.50 53Q138 118 138 235Q138 261 149 330L207 700L238 700L179 324Q170 260 170 239Q170 135 227 76Q284 17 390 17Q499 17 571 90Q643 163 664 293M465 765L581 891L625 891L503 765L465 765Z"  horiz-adv-x="748" vert-adv-y="1000"  />

      
      <glyph glyph-name="unidb" unicode="&#xdb;" d="M664 293L728 700L760 700L694 283Q672 140 589 64Q509-12 390-12Q273-12 205.50 53Q138 118 138 235Q138 261 149 330L207 700L238 700L179 324Q170 260 170 239Q170 135 227 76Q284 17 390 17Q499 17 571 90Q643 163 664 293M532 891L616 765L583 765L513 867L410 765L373 765L498 891L532 891Z"  horiz-adv-x="748" vert-adv-y="1000"  />

      
      <glyph glyph-name="unidc" unicode="&#xdc;" d="M664 293L728 700L760 700L694 283Q672 140 589 64Q509-12 390-12Q273-12 205.50 53Q138 118 138 235Q138 261 149 330L207 700L238 700L179 324Q170 260 170 239Q170 135 227 76Q284 17 390 17Q499 17 571 90Q643 163 664 293M380 824Q380 841 394.50 848.50Q409 856 423.50 848.50Q438 841 438 824Q438 806 423.50 798.50Q409 791 394.50 798.50Q380 806 380 824M594 795Q582 795 573.50 803Q565 811 565 824Q565 836 573.50 844.50Q582 853 594 853Q607 853 615 844.50Q623 836 623 824Q623 811 615 803Q607 795 594 795Z"  horiz-adv-x="748" vert-adv-y="1000"  />

      
      <glyph glyph-name="unidd" unicode="&#xdd;" d="M371 357L677 700L717 700L385 326L334 0L302 0L353 326L139 700L175 700L371 357M406 765L522 891L566 891L444 765L406 765Z"  horiz-adv-x="635" vert-adv-y="1000"  />

      
      <glyph glyph-name="unide" unicode="&#xde;" d="M225 534L472 534Q563 534 614.50 490Q666 446 666 371Q666 279 599 222Q533 165 433 165L167 165L141 0L109 0L220 700L252 700L225 534M172 194L435 194Q517 195 575 240Q634 287 634 368Q634 433 591 469Q548 505 468 505L221 505L172 194Z"  horiz-adv-x="667" vert-adv-y="1000"  />

      
      <glyph glyph-name="unidf" unicode="&#xdf;" d="M349-12Q284-12 241 8L246 40Q283 17 350 17Q431 17 492 70Q553 122 553 208Q553 281 501 327Q449 373 358 378L336 378L341 407L378 407Q446 409 494 445Q544 483 544 550Q544 605 502.50 641Q461 677 391 677Q319 677 268.50 632Q218 587 205 510L123 0L92 0L173 511Q187 601 247.50 653.50Q308 706 395 706Q478 706 526 661Q575 618 575 554Q575 493 537.50 448.50Q500 404 437 390Q501 375 543 326Q586 279 586 210Q586 114 518 51Q450-12 349-12Z"  horiz-adv-x="607" vert-adv-y="1000"  />

      
      <glyph glyph-name="unie0" unicode="&#xe0;" d="M167 414L173 447Q238 485 346 485Q428 485 477 448Q526 411 526 341Q526 319 522 294L493 111Q489 91 489 74Q489 24 539 24Q554 24 562 28L558 2Q546-3 529-3Q496-3 477 18Q458 39 458 75Q370-12 249-12Q172-12 122 27Q72 68 72 133Q72 212 134 253Q195 295 279 295Q391 295 480 233L489 286Q495 325 495 338Q495 396 455.50 426Q416 456 340 456Q240 456 167 414M461 115L476 204Q396 268 282 268Q211 268 156 233Q103 198 103 136Q103 80 146 48.50Q189 17 259 17Q317 17 370 44.50Q423 72 461 115M318 700L359 700L434 574L401 574L318 700Z"  horiz-adv-x="587" vert-adv-y="1000"  />

      
      <glyph glyph-name="unie1" unicode="&#xe1;" d="M167 414L173 447Q238 485 346 485Q428 485 477 448Q526 411 526 341Q526 319 522 294L493 111Q489 91 489 74Q489 24 539 24Q554 24 562 28L558 2Q546-3 529-3Q496-3 477 18Q458 39 458 75Q370-12 249-12Q172-12 122 27Q72 68 72 133Q72 212 134 253Q195 295 279 295Q391 295 480 233L489 286Q495 325 495 338Q495 396 455.50 426Q416 456 340 456Q240 456 167 414M461 115L476 204Q396 268 282 268Q211 268 156 233Q103 198 103 136Q103 80 146 48.50Q189 17 259 17Q317 17 370 44.50Q423 72 461 115M335 574L452 700L496 700L374 574L335 574Z"  horiz-adv-x="587" vert-adv-y="1000"  />

      
      <glyph glyph-name="unie2" unicode="&#xe2;" d="M167 414L173 447Q238 485 346 485Q428 485 477 448Q526 411 526 341Q526 319 522 294L493 111Q489 91 489 74Q489 24 539 24Q554 24 562 28L558 2Q546-3 529-3Q496-3 477 18Q458 39 458 75Q370-12 249-12Q172-12 122 27Q72 68 72 133Q72 212 134 253Q195 295 279 295Q391 295 480 233L489 286Q495 325 495 338Q495 396 455.50 426Q416 456 340 456Q240 456 167 414M461 115L476 204Q396 268 282 268Q211 268 156 233Q103 198 103 136Q103 80 146 48.50Q189 17 259 17Q317 17 370 44.50Q423 72 461 115M409 700L493 574L460 574L390 676L288 574L250 574L376 700L409 700Z"  horiz-adv-x="587" vert-adv-y="1000"  />

      
      <glyph glyph-name="unie3" unicode="&#xe3;" d="M167 414L173 447Q238 485 346 485Q428 485 477 448Q526 411 526 341Q526 319 522 294L493 111Q489 91 489 74Q489 24 539 24Q554 24 562 28L558 2Q546-3 529-3Q496-3 477 18Q458 39 458 75Q370-12 249-12Q172-12 122 27Q72 68 72 133Q72 212 134 253Q195 295 279 295Q391 295 480 233L489 286Q495 325 495 338Q495 396 455.50 426Q416 456 340 456Q240 456 167 414M461 115L476 204Q396 268 282 268Q211 268 156 233Q103 198 103 136Q103 80 146 48.50Q189 17 259 17Q317 17 370 44.50Q423 72 461 115M452 598Q425 598 381 630Q339 663 318 663Q280 663 265 603L238 603Q246 645 268 668Q290 691 321 691Q349 691 391 658Q435 626 454 626Q491 626 506 686L534 686Q526 645 504 621.50Q482 598 452 598Z"  horiz-adv-x="587" vert-adv-y="1000"  />

      
      <glyph glyph-name="unie4" unicode="&#xe4;" d="M167 414L173 447Q238 485 346 485Q428 485 477 448Q526 411 526 341Q526 319 522 294L493 111Q489 91 489 74Q489 24 539 24Q554 24 562 28L558 2Q546-3 529-3Q496-3 477 18Q458 39 458 75Q370-12 249-12Q172-12 122 27Q72 68 72 133Q72 212 134 253Q195 295 279 295Q391 295 480 233L489 286Q495 325 495 338Q495 396 455.50 426Q416 456 340 456Q240 456 167 414M461 115L476 204Q396 268 282 268Q211 268 156 233Q103 198 103 136Q103 80 146 48.50Q189 17 259 17Q317 17 370 44.50Q423 72 461 115M292 674Q310 674 317.50 659.50Q325 645 317.50 630.50Q310 616 292 616Q275 616 267.50 630.50Q260 645 267.50 659.50Q275 674 292 674M477 674Q495 674 502.50 659.50Q510 645 502.50 630.50Q495 616 477 616Q460 616 452.50 630.50Q445 645 452.50 659.50Q460 674 477 674Z"  horiz-adv-x="587" vert-adv-y="1000"  />

      
      <glyph glyph-name="unie5" unicode="&#xe5;" d="M167 414L173 447Q238 485 346 485Q428 485 477 448Q526 411 526 341Q526 319 522 294L493 111Q489 91 489 74Q489 24 539 24Q554 24 562 28L558 2Q546-3 529-3Q496-3 477 18Q458 39 458 75Q370-12 249-12Q172-12 122 27Q72 68 72 133Q72 212 134 253Q195 295 279 295Q391 295 480 233L489 286Q495 325 495 338Q495 396 455.50 426Q416 456 340 456Q240 456 167 414M461 115L476 204Q396 268 282 268Q211 268 156 233Q103 198 103 136Q103 80 146 48.50Q189 17 259 17Q317 17 370 44.50Q423 72 461 115M323 684Q350 711 387 711Q424 711 450 684Q477 658 477 621Q477 584 450 557Q424 530 387 530Q350 530 323 557Q296 584 296 621Q296 658 323 684M387 556Q415 556 434 574.50Q453 593 453 621Q453 649 434 668Q415 687 387 687Q360 687 341 668Q322 649 322 621Q322 593 341 574.50Q360 556 387 556Z"  horiz-adv-x="587" vert-adv-y="1000"  />

      
      <glyph glyph-name="unie6" unicode="&#xe6;" d="M936 238L513 238Q512 233 512 214Q512 127 572 71Q634 17 724 17Q800 17 870 60L865 26Q806-12 721-12Q651-12 594.50 18.50Q538 49 508 103Q473 62 404 25Q336-12 251-12Q172-12 122 28Q72 68 72 133Q72 212 134 253Q195 295 279 295Q391 295 480 233L489 286Q495 325 495 338Q495 396 455.50 426Q416 456 340 456Q240 456 167 414L173 447Q238 485 346 485Q420 485 467.50 454Q515 423 523 365Q558 420 614 452.50Q670 485 737 485Q836 485 887 421Q938 358 938 278Q938 270 936 238M497 129Q483 164 481 201Q393 268 282 268Q211 268 156 233Q103 198 103 136Q103 80 146.50 48.50Q190 17 260 17Q330 17 391.50 48Q453 79 497 129M864 403Q820 456 735 456Q650 456 591 401Q531 345 516 264L906 264Q907 268 907 282Q907 351 864 403Z"  horiz-adv-x="955" vert-adv-y="1000"  />

      
      <glyph glyph-name="unie7" unicode="&#xe7;" d="M244-124L203-124L297-10Q201-3 145 62Q91 126 91 214Q91 330 168 407Q246 485 359 485Q451 485 516 441L510 411Q447 456 363 456Q261 456 192 386Q123 317 123 216Q123 131 179 73Q235 17 329 17Q404 17 471 57L466 23Q407-11 328-12L244-124Z"  horiz-adv-x="513" vert-adv-y="1000"  />

      
      <glyph glyph-name="unie8" unicode="&#xe8;" d="M333 17Q409 17 480 60L474 27Q416-12 330-12Q228-12 159 51Q91 114 91 214Q91 322 162 404Q234 485 347 485Q446 485 497 421Q548 358 548 278Q548 270 546 238L123 238Q122 233 122 213Q122 127 182 71Q244 17 333 17M344 456Q260 456 201 401Q141 345 126 264L516 264Q517 269 517 282Q517 350 473 403Q429 456 344 456M293 700L334 700L409 574L376 574L293 700Z"  horiz-adv-x="565" vert-adv-y="1000"  />

      
      <glyph glyph-name="unie9" unicode="&#xe9;" d="M333 17Q409 17 480 60L474 27Q416-12 330-12Q228-12 159 51Q91 114 91 214Q91 322 162 404Q234 485 347 485Q446 485 497 421Q548 358 548 278Q548 270 546 238L123 238Q122 233 122 213Q122 127 182 71Q244 17 333 17M344 456Q260 456 201 401Q141 345 126 264L516 264Q517 269 517 282Q517 350 473 403Q429 456 344 456M334 574L451 700L495 700L373 574L334 574Z"  horiz-adv-x="565" vert-adv-y="1000"  />

      
      <glyph glyph-name="uniea" unicode="&#xea;" d="M333 17Q409 17 480 60L474 27Q416-12 330-12Q228-12 159 51Q91 114 91 214Q91 322 162 404Q234 485 347 485Q446 485 497 421Q548 358 548 278Q548 270 546 238L123 238Q122 233 122 213Q122 127 182 71Q244 17 333 17M344 456Q260 456 201 401Q141 345 126 264L516 264Q517 269 517 282Q517 350 473 403Q429 456 344 456M413 700L497 574L464 574L394 676L292 574L254 574L380 700L413 700Z"  horiz-adv-x="565" vert-adv-y="1000"  />

      
      <glyph glyph-name="unieb" unicode="&#xeb;" d="M333 17Q409 17 480 60L474 27Q416-12 330-12Q228-12 159 51Q91 114 91 214Q91 322 162 404Q234 485 347 485Q446 485 497 421Q548 358 548 278Q548 270 546 238L123 238Q122 233 122 213Q122 127 182 71Q244 17 333 17M344 456Q260 456 201 401Q141 345 126 264L516 264Q517 269 517 282Q517 350 473 403Q429 456 344 456M294 674Q312 674 319.50 659.50Q327 645 319.50 630.50Q312 616 294 616Q277 616 269.50 630.50Q262 645 269.50 659.50Q277 674 294 674M479 674Q497 674 504.50 659.50Q512 645 504.50 630.50Q497 616 479 616Q462 616 454.50 630.50Q447 645 454.50 659.50Q462 674 479 674Z"  horiz-adv-x="565" vert-adv-y="1000"  />

      
      <glyph glyph-name="uniec" unicode="&#xec;" d="M137 0L106 0L181 473L212 473L137 0M112 700L153 700L228 574L195 574L112 700Z"  horiz-adv-x="243" vert-adv-y="1000"  />

      
      <glyph glyph-name="unied" unicode="&#xed;" d="M137 0L106 0L181 473L212 473L137 0M194 574L311 700L355 700L233 574L194 574Z"  horiz-adv-x="243" vert-adv-y="1000"  />

      
      <glyph glyph-name="uniee" unicode="&#xee;" d="M245 700L329 574L296 574L226 676L124 574L86 574L212 700L245 700M137 0L106 0L181 473L212 473L137 0Z"  horiz-adv-x="243" vert-adv-y="1000"  />

      
      <glyph glyph-name="unief" unicode="&#xef;" d="M131 674Q149 674 156.50 659.50Q164 645 156.50 630.50Q149 616 131 616Q114 616 106.50 630.50Q99 645 106.50 659.50Q114 674 131 674M316 674Q334 674 341.50 659.50Q349 645 341.50 630.50Q334 616 316 616Q299 616 291.50 630.50Q284 645 291.50 659.50Q299 674 316 674M137 0L106 0L181 473L212 473L137 0Z"  horiz-adv-x="243" vert-adv-y="1000"  />

      
      <glyph glyph-name="unif0" unicode="&#xf0;" d="M507 678L374 625L521 381Q566 307 566 241Q566 136 493 62Q421-12 314-12Q212-12 151 52Q91 116 91 208Q91 312 163 386Q237 460 343 460Q411 460 461 428L348 615L198 556L185 579L334 638L296 700L330 700L360 649L494 701L507 678M315 17Q406 17 471 82Q535 147 535 242Q535 323 481 377Q428 431 342 431Q250 431 186 365Q122 301 122 207Q122 126 175 71Q229 17 315 17Z"  horiz-adv-x="589" vert-adv-y="1000"  />

      
      <glyph glyph-name="unif1" unicode="&#xf1;" d="M552 238L515 0L484 0L522 239Q532 295 532 326Q532 389 494.50 422.50Q457 456 390 456Q330 456 273 423.50Q216 391 177 343L123 0L92 0L167 473L198 473L184 388Q278 485 398 485Q474 485 518.50 443.50Q563 402 563 330Q563 307 552 238M478 598Q451 598 407 630Q365 663 344 663Q306 663 291 603L264 603Q272 645 294 668Q316 691 347 691Q375 691 417 658Q461 626 480 626Q517 626 532 686L560 686Q552 645 530 621.50Q508 598 478 598Z"  horiz-adv-x="598" vert-adv-y="1000"  />

      
      <glyph glyph-name="unif2" unicode="&#xf2;" d="M355 485Q460 485 525 417Q590 349 590 254Q590 143 514 66Q437-12 326-12Q220-12 155 56Q91 123 91 219Q91 330 167 407Q244 485 355 485M326 17Q423 17 490 87Q559 158 559 255Q559 341 502 398Q445 456 354 456Q259 456 190 386Q122 315 122 218Q122 133 178 74Q235 17 326 17M308 700L349 700L424 574L391 574L308 700Z"  horiz-adv-x="613" vert-adv-y="1000"  />

      
      <glyph glyph-name="unif3" unicode="&#xf3;" d="M355 485Q460 485 525 417Q590 349 590 254Q590 143 514 66Q437-12 326-12Q220-12 155 56Q91 123 91 219Q91 330 167 407Q244 485 355 485M326 17Q423 17 490 87Q559 158 559 255Q559 341 502 398Q445 456 354 456Q259 456 190 386Q122 315 122 218Q122 133 178 74Q235 17 326 17M359 574L476 700L520 700L398 574L359 574Z"  horiz-adv-x="613" vert-adv-y="1000"  />

      
      <glyph glyph-name="unif4" unicode="&#xf4;" d="M431 700L515 574L482 574L412 676L310 574L272 574L398 700L431 700M355 485Q460 485 525 417Q590 349 590 254Q590 143 514 66Q437-12 326-12Q220-12 155 56Q91 123 91 219Q91 330 167 407Q244 485 355 485M326 17Q423 17 490 87Q559 158 559 255Q559 341 502 398Q445 456 354 456Q259 456 190 386Q122 315 122 218Q122 133 178 74Q235 17 326 17Z"  horiz-adv-x="613" vert-adv-y="1000"  />

      
      <glyph glyph-name="unif5" unicode="&#xf5;" d="M355 485Q460 485 525 417Q590 349 590 254Q590 143 514 66Q437-12 326-12Q220-12 155 56Q91 123 91 219Q91 330 167 407Q244 485 355 485M326 17Q423 17 490 87Q559 158 559 255Q559 341 502 398Q445 456 354 456Q259 456 190 386Q122 315 122 218Q122 133 178 74Q235 17 326 17M475 598Q448 598 404 630Q362 663 341 663Q303 663 288 603L261 603Q269 645 291 668Q313 691 344 691Q372 691 414 658Q458 626 477 626Q514 626 529 686L557 686Q549 645 527 621.50Q505 598 475 598Z"  horiz-adv-x="613" vert-adv-y="1000"  />

      
      <glyph glyph-name="unif6" unicode="&#xf6;" d="M355 485Q460 485 525 417Q590 349 590 254Q590 143 514 66Q437-12 326-12Q220-12 155 56Q91 123 91 219Q91 330 167 407Q244 485 355 485M326 17Q423 17 490 87Q559 158 559 255Q559 341 502 398Q445 456 354 456Q259 456 190 386Q122 315 122 218Q122 133 178 74Q235 17 326 17M314 674Q332 674 339.50 659.50Q347 645 339.50 630.50Q332 616 314 616Q297 616 289.50 630.50Q282 645 289.50 659.50Q297 674 314 674M499 674Q517 674 524.50 659.50Q532 645 524.50 630.50Q517 616 499 616Q482 616 474.50 630.50Q467 645 474.50 659.50Q482 674 499 674Z"  horiz-adv-x="613" vert-adv-y="1000"  />

      
      <glyph glyph-name="unif7" unicode="&#xf7;" d="M115 306L119 335L548 335L543 306L115 306M263 131Q263 146 272.50 156Q282 166 297 166Q313 166 322.50 156Q332 146 332 131Q332 115 322.50 105Q313 95 297 95Q282 95 272.50 105Q263 115 263 131M334 486Q325 496 325 511Q325 526 334 536Q344 546 360 546Q376 546 385 536Q395 526 395 511Q395 496 385 486Q376 476 360 476Q344 476 334 486Z"  horiz-adv-x="565" vert-adv-y="1000"  />

      
      <glyph glyph-name="unif8" unicode="&#xf8;" d="M355 485Q450 485 514 428L559 474L597 474L533 409Q590 344 590 254Q590 143 514 66Q437-12 326-12Q234-12 170 41L130 0L91 0L150 60Q91 125 91 219Q91 330 167 407Q244 485 355 485M122 218Q122 136 171 81L493 407Q437 456 354 456Q259 456 190 386Q122 315 122 218M326 17Q423 17 490 87Q559 158 559 255Q559 331 512 387L191 62Q246 17 326 17Z"  horiz-adv-x="613" vert-adv-y="1000"  />

      
      <glyph glyph-name="unif9" unicode="&#xf9;" d="M121 235L158 473L189 473L151 234Q141 178 141 147Q141 84 178.50 50.50Q216 17 283 17Q343 17 400 49.50Q457 82 496 130L550 473L581 473L506 0L475 0L489 85Q395-12 275-12Q199-12 154.50 29.50Q110 71 110 143Q110 166 121 235M312 700L353 700L428 574L395 574L312 700Z"  horiz-adv-x="598" vert-adv-y="1000"  />

      
      <glyph glyph-name="unifa" unicode="&#xfa;" d="M121 235L158 473L189 473L151 234Q141 178 141 147Q141 84 178.50 50.50Q216 17 283 17Q343 17 400 49.50Q457 82 496 130L550 473L581 473L506 0L475 0L489 85Q395-12 275-12Q199-12 154.50 29.50Q110 71 110 143Q110 166 121 235M337 574L454 700L498 700L376 574L337 574Z"  horiz-adv-x="598" vert-adv-y="1000"  />

      
      <glyph glyph-name="unifb" unicode="&#xfb;" d="M121 235L158 473L189 473L151 234Q141 178 141 147Q141 84 178.50 50.50Q216 17 283 17Q343 17 400 49.50Q457 82 496 130L550 473L581 473L506 0L475 0L489 85Q395-12 275-12Q199-12 154.50 29.50Q110 71 110 143Q110 166 121 235M421 700L505 574L472 574L402 676L300 574L262 574L388 700L421 700Z"  horiz-adv-x="598" vert-adv-y="1000"  />

      
      <glyph glyph-name="unifc" unicode="&#xfc;" d="M121 235L158 473L189 473L151 234Q141 178 141 147Q141 84 178.50 50.50Q216 17 283 17Q343 17 400 49.50Q457 82 496 130L550 473L581 473L506 0L475 0L489 85Q395-12 275-12Q199-12 154.50 29.50Q110 71 110 143Q110 166 121 235M297 674Q315 674 322.50 659.50Q330 645 322.50 630.50Q315 616 297 616Q280 616 272.50 630.50Q265 645 272.50 659.50Q280 674 297 674M482 674Q500 674 507.50 659.50Q515 645 507.50 630.50Q500 616 482 616Q465 616 457.50 630.50Q450 645 457.50 659.50Q465 674 482 674Z"  horiz-adv-x="598" vert-adv-y="1000"  />

      
      <glyph glyph-name="unifd" unicode="&#xfd;" d="M524 473L560 473L248-56Q204-131 161-167Q118-203 66-203Q30-203 5-188L11-157Q37-174 68-174Q118-174 157-130Q197-87 259 19L102 473L135 473L279 56L524 473M305 574L422 700L466 700L344 574L305 574Z"  horiz-adv-x="530" vert-adv-y="1000"  />

      
      <glyph glyph-name="unife" unicode="&#xfe;" d="M138 95L91-200L60-200L203 700L234 700L186 395Q266 485 383 485Q486 485 548 419Q609 355 609 258Q609 146 534 67Q459-12 346-12Q279-12 224.50 18Q170 48 138 95M377 456Q320 456 264 424.50Q208 393 177 345L145 132Q167 86 222 51Q275 17 344 17Q441 17 508 87Q577 158 577 257Q577 344 522 399Q467 456 377 456Z"  horiz-adv-x="632" vert-adv-y="1000"  />

      
      <glyph glyph-name="uniff" unicode="&#xff;" d="M524 473L560 473L248-56Q204-131 161-167Q118-203 66-203Q30-203 5-188L11-157Q37-174 68-174Q118-174 157-130Q197-87 259 19L102 473L135 473L279 56L524 473M254 674Q272 674 279.50 659.50Q287 645 279.50 630.50Q272 616 254 616Q237 616 229.50 630.50Q222 645 229.50 659.50Q237 674 254 674M439 674Q457 674 464.50 659.50Q472 645 464.50 630.50Q457 616 439 616Q422 616 414.50 630.50Q407 645 414.50 659.50Q422 674 439 674Z"  horiz-adv-x="530" vert-adv-y="1000"  />

      
      <glyph glyph-name="uni0100" unicode="&#x0100;" d="M704 0L670 0L607 213L201 213L71 0L36 0L466 705L495 705L704 0M599 241L475 662L218 241L599 241M611 814L392 814L395 841L614 841L611 814Z"  horiz-adv-x="739" vert-adv-y="1000"  />

      
      <glyph glyph-name="uni0101" unicode="&#x0101;" d="M167 414L173 447Q238 485 346 485Q428 485 477 448Q526 411 526 341Q526 319 522 294L493 111Q489 91 489 74Q489 24 539 24Q554 24 562 28L558 2Q546-3 529-3Q496-3 477 18Q458 39 458 75Q370-12 249-12Q172-12 122 27Q72 68 72 133Q72 212 134 253Q195 295 279 295Q391 295 480 233L489 286Q495 325 495 338Q495 396 455.50 426Q416 456 340 456Q240 456 167 414M461 115L476 204Q396 268 282 268Q211 268 156 233Q103 198 103 136Q103 80 146 48.50Q189 17 259 17Q317 17 370 44.50Q423 72 461 115M501 629L282 629L286 656L505 656L501 629Z"  horiz-adv-x="587" vert-adv-y="1000"  />

      
      <glyph glyph-name="uni0102" unicode="&#x0102;" d="M704 0L670 0L607 213L201 213L71 0L36 0L466 705L495 705L704 0M599 241L475 662L218 241L599 241M600 888L629 888Q621 836 583.50 801.50Q546 767 495 767Q448 767 416.50 796Q385 825 385 869Q385 883 386 888L416 888Q415 884 415 872Q415 838 437.50 815.50Q460 793 496 793Q535 793 563.50 819.50Q592 846 600 888Z"  horiz-adv-x="739" vert-adv-y="1000"  />

      
      <glyph glyph-name="uni0103" unicode="&#x0103;" d="M167 414L173 447Q238 485 346 485Q428 485 477 448Q526 411 526 341Q526 319 522 294L493 111Q489 91 489 74Q489 24 539 24Q554 24 562 28L558 2Q546-3 529-3Q496-3 477 18Q458 39 458 75Q370-12 249-12Q172-12 122 27Q72 68 72 133Q72 212 134 253Q195 295 279 295Q391 295 480 233L489 286Q495 325 495 338Q495 396 455.50 426Q416 456 340 456Q240 456 167 414M461 115L476 204Q396 268 282 268Q211 268 156 233Q103 198 103 136Q103 80 146 48.50Q189 17 259 17Q317 17 370 44.50Q423 72 461 115M491 695L521 695Q513 643 475 608.50Q437 574 386 574Q339 574 308 603Q277 632 277 677Q277 691 278 695L307 695Q306 692 306 680Q306 645 328 623Q350 601 387 601Q426 601 454.50 627Q483 653 491 695Z"  horiz-adv-x="587" vert-adv-y="1000"  />

      
      <glyph glyph-name="uni0104" unicode="&#x0104;" d="M670 0L607 213L201 213L71 0L36 0L466 705L495 705L704 0Q649-52 649-104Q649-132 668-148.50Q687-165 719-165Q738-165 760-159L756-184Q738-191 709-191Q668-191 644.50-168.50Q621-146 621-110Q621-49 670 0M599 241L475 662L218 241L599 241Z"  horiz-adv-x="739" vert-adv-y="1000"  />

      
      <glyph glyph-name="uni0105" unicode="&#x0105;" d="M167 414L173 447Q238 485 346 485Q428 485 477 448Q526 411 526 341Q526 319 522 294L493 111Q489 91 489 74Q489 24 539 24Q554 24 562 28L558 2Q503-50 503-102Q503-130 522-146.50Q541-163 573-163Q592-163 614-157L610-182Q592-189 563-189Q522-189 498.50-166.50Q475-144 475-108Q475-50 522-3Q492-1 475 20Q458 41 458 75Q370-12 249-12Q172-12 122 27Q72 68 72 133Q72 212 134 253Q195 295 279 295Q391 295 480 233L489 286Q495 325 495 338Q495 396 455.50 426Q416 456 340 456Q240 456 167 414M461 115L476 204Q396 268 282 268Q211 268 156 233Q103 198 103 136Q103 80 146 48.50Q189 17 259 17Q317 17 370 44.50Q423 72 461 115Z"  horiz-adv-x="585" vert-adv-y="1000"  />

      
      <glyph glyph-name="uni0106" unicode="&#x0106;" d="M163 320Q163 192 245 104Q328 17 457 17Q578 17 670 84L665 48Q580-12 456-12Q311-12 221 82Q131 176 131 319Q131 480 236 595Q342 712 504 712Q627 712 714 649L709 618Q623 683 503 683Q361 683 262 577Q163 472 163 320M497 765L613 891L657 891L535 765L497 765Z"  horiz-adv-x="693" vert-adv-y="1000"  />

      
      <glyph glyph-name="uni0107" unicode="&#x0107;" d="M516 441L510 411Q447 456 363 456Q261 456 191 386Q122 317 122 216Q122 132 178 74Q235 17 329 17Q404 17 471 57L466 23Q401-12 324-12Q214-12 153 54Q91 122 91 214Q91 330 168 407Q246 485 359 485Q451 485 516 441M341 574L458 700L502 700L380 574L341 574Z"  horiz-adv-x="516" vert-adv-y="1000"  />

      
      <glyph glyph-name="uni0108" unicode="&#x0108;" d="M571 891L655 765L622 765L552 867L449 765L412 765L537 891L571 891M163 320Q163 192 245 104Q328 17 457 17Q578 17 670 84L665 48Q580-12 456-12Q311-12 221 82Q131 176 131 319Q131 480 236 595Q342 712 504 712Q627 712 714 649L709 618Q623 683 503 683Q361 683 262 577Q163 472 163 320Z"  horiz-adv-x="693" vert-adv-y="1000"  />

      
      <glyph glyph-name="uni0109" unicode="&#x0109;" d="M407 700L491 574L458 574L388 676L286 574L248 574L374 700L407 700M516 441L510 411Q447 456 363 456Q261 456 191 386Q122 317 122 216Q122 132 178 74Q235 17 329 17Q404 17 471 57L466 23Q401-12 324-12Q214-12 153 54Q91 122 91 214Q91 330 168 407Q246 485 359 485Q451 485 516 441Z"  horiz-adv-x="516" vert-adv-y="1000"  />

      
      <glyph glyph-name="uni010A" unicode="&#x010A;" d="M163 320Q163 192 245 104Q328 17 457 17Q578 17 670 84L665 48Q580-12 456-12Q311-12 221 82Q131 176 131 319Q131 480 236 595Q342 712 504 712Q627 712 714 649L709 618Q623 683 503 683Q361 683 262 577Q163 472 163 320M563 844Q563 844 574 833Q585 822 564 801Q543 780 521 802Q499 824 520 845Q541 866 563 844Z"  horiz-adv-x="693" vert-adv-y="1000"  />

      
      <glyph glyph-name="uni010B" unicode="&#x010B;" d="M516 441L510 411Q447 456 363 456Q261 456 191 386Q122 317 122 216Q122 132 178 74Q235 17 329 17Q404 17 471 57L466 23Q401-12 324-12Q214-12 153 54Q91 122 91 214Q91 330 168 407Q246 485 359 485Q451 485 516 441M414 666Q414 666 425 655Q436 644 415 623Q394 602 372 624Q350 646 371 667Q392 688 414 666Z"  horiz-adv-x="513" vert-adv-y="1000"  />

      
      <glyph glyph-name="uni010C" unicode="&#x010C;" d="M520 765L436 891L469 891L539 789L642 891L679 891L554 765L520 765M163 320Q163 192 245 104Q328 17 457 17Q578 17 670 84L665 48Q580-12 456-12Q311-12 221 82Q131 176 131 319Q131 480 236 595Q342 712 504 712Q627 712 714 649L709 618Q623 683 503 683Q361 683 262 577Q163 472 163 320Z"  horiz-adv-x="693" vert-adv-y="1000"  />

      
      <glyph glyph-name="uni010D" unicode="&#x010D;" d="M367 574L282 700L315 700L385 598L488 700L526 700L400 574L367 574M516 441L510 411Q447 456 363 456Q261 456 191 386Q122 317 122 216Q122 132 178 74Q235 17 329 17Q404 17 471 57L466 23Q401-12 324-12Q214-12 153 54Q91 122 91 214Q91 330 168 407Q246 485 359 485Q451 485 516 441Z"  horiz-adv-x="516" vert-adv-y="1000"  />

      
      <glyph glyph-name="uni010E" unicode="&#x010E;" d="M220 700L411 700Q565 700 659 614Q753 529 753 390Q753 215 634 107Q515 0 329 0L109 0L220 700M145 29L335 29Q502 30 611 128Q721 227 721 390Q721 518 636 594Q551 671 403 671L247 671L145 29M440 765L356 891L389 891L459 789L562 891L599 891L474 765L440 765Z"  horiz-adv-x="775" vert-adv-y="1000"  />

      
      <glyph glyph-name="uni010F" unicode="&#x010F;" d="M562 378L613 700L644 700L533 0L502 0L515 78Q434-12 317-12Q214-12 152 53Q91 118 91 215Q91 326 166 406Q241 485 354 485Q421 485 475.50 455Q530 425 562 378M323 17Q382 17 437 48Q493 80 523 128L554 340Q531 387 478 421Q423 456 355 456Q260 456 191 386Q122 316 122 216Q122 129 177 73Q233 17 323 17M815 699L731 537L700 537L781 699L815 699Z"  horiz-adv-x="708" vert-adv-y="1000"  />

      
      <glyph glyph-name="uni0110" unicode="&#x0110;" d="M204 338L86 338L90 367L209 367L262 700L453 700Q607 700 701 614Q795 529 795 390Q795 215 676 107Q557 0 371 0L151 0L204 338M187 29L377 29Q544 30 653 128Q763 227 763 390Q763 518 678 594Q593 671 445 671L289 671L240 367L416 367L412 338L236 338L187 29Z"  horiz-adv-x="817" vert-adv-y="1000"  />

      
      <glyph glyph-name="uni0111" unicode="&#x0111;" d="M595 588L613 700L644 700L626 588L729 588L724 559L621 559L533 0L502 0L515 78Q434-12 317-12Q214-12 152 53Q91 118 91 215Q91 326 166 406Q241 485 354 485Q421 485 475.50 455Q530 425 562 378L590 559L466 559L471 588L595 588M323 17Q382 17 437 48Q493 80 523 128L554 340Q531 387 478 421Q423 456 355 456Q260 456 191 386Q123 315 123 216Q123 129 178 73Q234 17 323 17Z"  horiz-adv-x="625" vert-adv-y="1000"  />

      
      <glyph glyph-name="uni0112" unicode="&#x0112;" d="M587 0L109 0L220 700L680 700L676 671L247 671L203 391L558 391L554 362L198 362L145 29L591 29L587 0M578 814L359 814L362 841L581 841L578 814Z"  horiz-adv-x="638" vert-adv-y="1000"  />

      
      <glyph glyph-name="uni0113" unicode="&#x0113;" d="M333 17Q409 17 480 60L474 27Q416-12 330-12Q228-12 159 51Q91 114 91 214Q91 322 162 404Q234 485 347 485Q446 485 497 421Q548 358 548 278Q548 270 546 238L123 238Q122 233 122 213Q122 127 182 71Q244 17 333 17M344 456Q260 456 201 401Q141 345 126 264L516 264Q517 269 517 282Q517 350 473 403Q429 456 344 456M500 629L281 629L285 656L504 656L500 629Z"  horiz-adv-x="565" vert-adv-y="1000"  />

      
      <glyph glyph-name="uni0114" unicode="&#x0114;" d="M587 0L109 0L220 700L680 700L676 671L247 671L203 391L558 391L554 362L198 362L145 29L591 29L587 0M562 888L591 888Q583 836 545.50 801.50Q508 767 457 767Q410 767 378.50 796Q347 825 347 869Q347 883 348 888L378 888Q377 884 377 872Q377 838 399.50 815.50Q422 793 458 793Q497 793 525.50 819.50Q554 846 562 888Z"  horiz-adv-x="638" vert-adv-y="1000"  />

      
      <glyph glyph-name="uni0115" unicode="&#x0115;" d="M333 17Q409 17 480 60L474 27Q416-12 330-12Q228-12 159 51Q91 114 91 214Q91 322 162 404Q234 485 347 485Q446 485 497 421Q548 358 548 278Q548 270 546 238L123 238Q122 233 122 213Q122 127 182 71Q244 17 333 17M344 456Q260 456 201 401Q141 345 126 264L516 264Q517 269 517 282Q517 350 473 403Q429 456 344 456M486 695L516 695Q508 643 470 608.50Q432 574 381 574Q334 574 303 603Q272 632 272 677Q272 691 273 695L302 695Q301 692 301 680Q301 645 323 623Q345 601 382 601Q421 601 449.50 627Q478 653 486 695Z"  horiz-adv-x="565" vert-adv-y="1000"  />

      
      <glyph glyph-name="uni0116" unicode="&#x0116;" d="M587 0L109 0L220 700L680 700L676 671L247 671L203 391L558 391L554 362L198 362L145 29L591 29L587 0M489 844Q489 844 500 833Q511 822 490 801Q469 780 447 802Q425 824 446 845Q467 866 489 844Z"  horiz-adv-x="638" vert-adv-y="1000"  />

      
      <glyph glyph-name="uni0117" unicode="&#x0117;" d="M333 17Q409 17 480 60L474 27Q416-12 330-12Q228-12 159 51Q91 114 91 214Q91 322 162 404Q234 485 347 485Q446 485 497 421Q548 358 548 278Q548 270 546 238L123 238Q122 233 122 213Q122 127 182 71Q244 17 333 17M344 456Q260 456 201 401Q141 345 126 264L516 264Q517 269 517 282Q517 350 473 403Q429 456 344 456M413 666Q413 666 424 655Q435 644 414 623Q393 602 371 624Q349 646 370 667Q391 688 413 666Z"  horiz-adv-x="565" vert-adv-y="1000"  />

      
      <glyph glyph-name="uni0118" unicode="&#x0118;" d="M556 0L109 0L220 700L680 700L676 671L247 671L203 391L558 391L554 362L198 362L145 29L591 29L587 0Q532-52 532-104Q532-132 551-148.50Q570-165 602-165Q620-165 643-159L639-184Q621-191 592-191Q551-191 527.50-168.50Q504-146 504-110Q504-49 556 0Z"  horiz-adv-x="638" vert-adv-y="1000"  />

      
      <glyph glyph-name="uni0119" unicode="&#x0119;" d="M333 17Q409 17 480 60L474 27Q419-25 419-77Q419-105 438-121.50Q457-138 489-138Q508-138 530-132L526-157Q508-164 479-164Q438-164 414.50-141.50Q391-119 391-83Q391-40 420 1Q381-12 330-12Q228-12 159 51Q91 114 91 214Q91 322 162 404Q234 485 347 485Q446 485 497 421Q548 358 548 278Q548 270 546 238L123 238Q122 233 122 213Q122 127 182 71Q244 17 333 17M344 456Q260 456 201 401Q141 345 126 264L516 264Q517 269 517 282Q517 350 473 403Q429 456 344 456Z"  horiz-adv-x="565" vert-adv-y="1000"  />

      
      <glyph glyph-name="uni011A" unicode="&#x011A;" d="M587 0L109 0L220 700L680 700L676 671L247 671L203 391L558 391L554 362L198 362L145 29L591 29L587 0M442 765L358 891L391 891L461 789L564 891L601 891L476 765L442 765Z"  horiz-adv-x="638" vert-adv-y="1000"  />

      
      <glyph glyph-name="uni011B" unicode="&#x011B;" d="M333 17Q409 17 480 60L474 27Q416-12 330-12Q228-12 159 51Q91 114 91 214Q91 322 162 404Q234 485 347 485Q446 485 497 421Q548 358 548 278Q548 270 546 238L123 238Q122 233 122 213Q122 127 182 71Q244 17 333 17M344 456Q260 456 201 401Q141 345 126 264L516 264Q517 269 517 282Q517 350 473 403Q429 456 344 456M359 574L274 700L307 700L377 598L480 700L518 700L392 574L359 574Z"  horiz-adv-x="565" vert-adv-y="1000"  />

      
      <glyph glyph-name="uni011C" unicode="&#x011C;" d="M674 101L723 400L755 400L704 84Q596-12 456-12Q311-12 221 81Q131 175 131 317Q131 478 236 595Q342 712 504 712Q652 712 742 628L736 596Q643 683 503 683Q361 683 262 577Q163 470 163 319Q163 188 245 103Q328 17 459 17Q583 17 674 101M571 891L655 765L622 765L552 867L449 765L412 765L537 891L571 891Z"  horiz-adv-x="783" vert-adv-y="1000"  />

      
      <glyph glyph-name="uni011D" unicode="&#x011D;" d="M561 378L576 473L607 473L534 7Q501-203 260-203Q152-203 77-158L82-125Q158-174 262-174Q472-174 503 10L515 78Q432-12 317-12Q214-12 152 54Q91 121 91 216Q91 328 166 406Q241 485 354 485Q421 485 476.50 455Q532 425 561 378M522 129L555 339Q530 387 477 421Q424 456 355 456Q259 456 190 386Q122 316 122 218Q122 133 178 74Q234 17 325 17Q381 17 437 49Q491 80 522 129M428 700L512 574L479 574L409 676L307 574L269 574L395 700L428 700Z"  horiz-adv-x="625" vert-adv-y="1000"  />

      
      <glyph glyph-name="uni011E" unicode="&#x011E;" d="M674 101L723 400L755 400L704 84Q596-12 456-12Q311-12 221 81Q131 175 131 317Q131 478 236 595Q342 712 504 712Q652 712 742 628L736 596Q643 683 503 683Q361 683 262 577Q163 470 163 319Q163 188 245 103Q328 17 459 17Q583 17 674 101M652 889L681 889Q673 837 635.50 802.50Q598 768 547 768Q500 768 468.50 797Q437 826 437 870Q437 884 438 889L468 889Q467 885 467 873Q467 839 489.50 816.50Q512 794 548 794Q587 794 615.50 820.50Q644 847 652 889Z"  horiz-adv-x="783" vert-adv-y="1000"  />

      
      <glyph glyph-name="uni011F" unicode="&#x011F;" d="M561 378L576 473L607 473L534 7Q501-203 260-203Q152-203 77-158L82-125Q158-174 262-174Q472-174 503 10L515 78Q432-12 317-12Q214-12 152 54Q91 121 91 216Q91 328 166 406Q241 485 354 485Q421 485 476.50 455Q532 425 561 378M522 129L555 339Q530 387 477 421Q424 456 355 456Q259 456 190 386Q122 316 122 218Q122 133 178 74Q234 17 325 17Q381 17 437 49Q491 80 522 129M498 695L528 695Q520 643 482 608.50Q444 574 393 574Q346 574 315 603Q284 632 284 677Q284 691 285 695L314 695Q313 692 313 680Q313 645 335 623Q357 601 394 601Q433 601 461.50 627Q490 653 498 695Z"  horiz-adv-x="625" vert-adv-y="1000"  />

      
      <glyph glyph-name="uni0120" unicode="&#x0120;" d="M674 101L723 400L755 400L704 84Q596-12 456-12Q311-12 221 81Q131 175 131 317Q131 478 236 595Q342 712 504 712Q652 712 742 628L736 596Q643 683 503 683Q361 683 262 577Q163 470 163 319Q163 188 245 103Q328 17 459 17Q583 17 674 101M565 844Q565 844 576 833Q587 822 566 801Q545 780 523 802Q501 824 522 845Q543 866 565 844Z"  horiz-adv-x="783" vert-adv-y="1000"  />

      
      <glyph glyph-name="uni0121" unicode="&#x0121;" d="M561 378L576 473L607 473L534 7Q501-203 260-203Q152-203 77-158L82-125Q158-174 262-174Q472-174 503 10L515 78Q432-12 317-12Q214-12 152 54Q91 121 91 216Q91 328 166 406Q241 485 354 485Q421 485 476.50 455Q532 425 561 378M522 129L555 339Q530 387 477 421Q424 456 355 456Q259 456 190 386Q122 316 122 218Q122 133 178 74Q234 17 325 17Q381 17 437 49Q491 80 522 129M437 666Q437 666 448 655Q459 644 438 623Q417 602 395 624Q373 646 394 667Q415 688 437 666Z"  horiz-adv-x="625" vert-adv-y="1000"  />

      
      <glyph glyph-name="uni0122" unicode="&#x0122;" d="M674 101L723 400L755 400L704 84Q596-12 456-12Q311-12 221 81Q131 175 131 317Q131 478 236 595Q342 712 504 712Q652 712 742 628L736 596Q643 683 503 683Q361 683 262 577Q163 470 163 319Q163 188 245 103Q328 17 459 17Q583 17 674 101M467-47L383-209L352-209L433-47L467-47Z"  horiz-adv-x="783" vert-adv-y="1000"  />

      
      <glyph glyph-name="uni0123" unicode="&#x0123;" d="M561 378L576 473L607 473L534 7Q501-203 260-203Q152-203 77-158L82-125Q158-174 262-174Q472-174 503 10L515 78Q432-12 317-12Q214-12 152 54Q91 121 91 216Q91 328 166 406Q241 485 354 485Q421 485 476.50 455Q532 425 561 378M522 129L555 339Q530 387 477 421Q424 456 355 456Q259 456 190 386Q122 316 122 218Q122 133 178 74Q234 17 325 17Q381 17 437 49Q491 80 522 129M359 549L443 711L474 711L393 549L359 549Z"  horiz-adv-x="624" vert-adv-y="1000"  />

      
      <glyph glyph-name="uni0124" unicode="&#x0124;" d="M140 0L109 0L220 700L251 700L202 391L681 391L730 700L761 700L650 0L619 0L676 362L197 362L140 0M536 891L620 765L587 765L517 867L414 765L377 765L502 891L536 891Z"  horiz-adv-x="759" vert-adv-y="1000"  />

      
      <glyph glyph-name="uni0125" unicode="&#x0125;" d="M552 238L515 0L484 0L522 239Q532 295 532 326Q532 389 494.50 422.50Q457 456 390 456Q330 456 273 423.50Q216 391 177 343L123 0L92 0L203 700L234 700L184 388Q278 485 398 485Q474 485 518.50 443.50Q563 402 563 330Q563 307 552 238M267 891L351 765L318 765L248 867L145 765L108 765L233 891L267 891Z"  horiz-adv-x="598" vert-adv-y="1000"  />

      
      <glyph glyph-name="uni0126" unicode="&#x0126;" d="M164 0L133 0L221 553L122 553L126 581L225 581L244 700L275 700L256 581L735 581L754 700L785 700L767 581L865 581L860 553L762 553L675 0L643 0L701 362L222 362L164 0M252 553L226 391L705 391L731 553L252 553Z"  horiz-adv-x="806" vert-adv-y="1000"  />

      
      <glyph glyph-name="uni0127" unicode="&#x0127;" d="M549 181L521 0L490 0L519 182Q529 238 529 269Q529 332 491.50 365.50Q454 399 387 399Q327 399 270 366.50Q213 334 174 286L129 0L98 0L185 553L83 553L87 580L190 580L209 700L240 700L221 580L353 580L348 553L216 553L181 331Q275 428 395 428Q471 428 515.50 386.50Q560 345 560 273Q560 250 549 181Z"  horiz-adv-x="595" vert-adv-y="1000"  />

      
      <glyph glyph-name="uni0128" unicode="&#x0128;" d="M147 0L116 0L227 700L258 700L147 0M326 780Q298 780 256 813Q214 846 192 846Q154 846 140 786L113 786Q121 827 143 850Q165 873 195 873Q222 873 266 840Q310 808 329 808Q367 808 382 868L409 868Q401 827 379 803.50Q357 780 326 780Z"  horiz-adv-x="262" vert-adv-y="1000"  />

      
      <glyph glyph-name="uni0129" unicode="&#x0129;" d="M288 598Q261 598 217 630Q175 663 154 663Q116 663 101 603L74 603Q82 645 104 668Q126 691 157 691Q185 691 227 658Q271 626 290 626Q327 626 342 686L370 686Q362 645 340 621.50Q318 598 288 598M137 0L106 0L181 473L212 473L137 0Z"  horiz-adv-x="240" vert-adv-y="1000"  />

      
      <glyph glyph-name="uni012A" unicode="&#x012A;" d="M147 0L116 0L227 700L258 700L147 0M371 814L152 814L155 841L374 841L371 814Z"  horiz-adv-x="262" vert-adv-y="1000"  />

      
      <glyph glyph-name="uni012B" unicode="&#x012B;" d="M137 0L106 0L181 473L212 473L137 0M331 629L112 629L116 656L335 656L331 629Z"  horiz-adv-x="240" vert-adv-y="1000"  />

      
      <glyph glyph-name="uni012C" unicode="&#x012C;" d="M362 888L391 888Q383 836 345.50 801.50Q308 767 257 767Q210 767 178.50 796Q147 825 147 869Q147 883 148 888L178 888Q177 884 177 872Q177 838 199.50 815.50Q222 793 258 793Q297 793 325.50 819.50Q354 846 362 888M147 0L116 0L227 700L258 700L147 0Z"  horiz-adv-x="262" vert-adv-y="1000"  />

      
      <glyph glyph-name="uni012D" unicode="&#x012D;" d="M318 695L348 695Q340 643 302 608.50Q264 574 213 574Q166 574 135 603Q104 632 104 677Q104 691 105 695L134 695Q133 692 133 680Q133 645 155 623Q177 601 214 601Q253 601 281.50 627Q310 653 318 695M137 0L106 0L181 473L212 473L137 0Z"  horiz-adv-x="243" vert-adv-y="1000"  />

      
      <glyph glyph-name="uni012E" unicode="&#x012E;" d="M258 700L147 0Q92-52 92-104Q92-132 111-148.50Q130-165 162-165Q180-165 203-159L199-184Q181-191 152-191Q111-191 87.50-168.50Q64-146 64-110Q64-49 116 0L227 700L258 700Z"  horiz-adv-x="262" vert-adv-y="1000"  />

      
      <glyph glyph-name="uni012F" unicode="&#x012F;" d="M212 473L137 0Q82-52 82-104Q82-132 101-148.50Q120-165 152-165Q170-165 193-159L189-184Q171-191 142-191Q101-191 77.50-168.50Q54-146 54-110Q54-49 106 0L182 473L212 473M198 623Q190 632 190 645Q190 658 198 666Q207 675 220 675Q233 675 241 666Q250 658 250 645Q250 632 241 623Q233 615 220 615Q207 615 198 623Z"  horiz-adv-x="243" vert-adv-y="1000"  />

      
      <glyph glyph-name="uni0130" unicode="&#x0130;" d="M147 0L116 0L227 700L258 700L147 0M281 844Q281 844 292 833Q303 822 282 801Q261 780 239 802Q217 824 238 845Q259 866 281 844Z"  horiz-adv-x="262" vert-adv-y="1000"  />

      
      <glyph glyph-name="uni0131" unicode="&#x0131;" d="M137 0L106 0L181 473L212 473L137 0Z"  horiz-adv-x="243" vert-adv-y="1000"  />

      
      <glyph glyph-name="uni0132" unicode="&#x0132;" d="M185 238L154 238L227 700L258 700L185 238M570 700L601 700L522 196Q489-12 275-12Q184-12 122 40L128 74Q185 17 278 17Q463 17 492 202L570 700Z"  horiz-adv-x="591" vert-adv-y="1000"  />

      
      <glyph glyph-name="uni0133" unicode="&#x0133;" d="M208-203Q168-203 140-187L145-155Q173-174 209-174Q300-174 316-69L402 473L433 473L346-76Q327-203 208-203M419 623Q411 632 411 645Q411 658 419 666Q428 675 441 675Q454 675 462 666Q471 658 471 645Q471 632 462 623Q454 615 441 615Q428 615 419 623M137 0L106 0L182 473L212 473L137 0M198 623Q190 632 190 645Q190 658 198 666Q207 675 220 675Q233 675 241 666Q250 658 250 645Q250 632 241 623Q233 615 220 615Q207 615 198 623Z"  horiz-adv-x="464" vert-adv-y="1000"  />

      
      <glyph glyph-name="uni0134" unicode="&#x0134;" d="M477 700L508 700L428 192Q395-12 190-12Q99-12 41 38L46 72Q98 17 192 17Q283 17 332.50 60Q382 103 397 198L477 700Z"  horiz-adv-x="500" vert-adv-y="1000"  />

      
      <glyph glyph-name="uni0135" unicode="&#x0135;" d="M249 701L333 575L300 575L230 677L127 575L90 575L216 701L249 701M-13-203Q-53-203-81-187L-76-155Q-48-174-12-174Q78-174 95-69L181 473L212 473L125-76Q106-203-13-203Z"  horiz-adv-x="244" vert-adv-y="1000"  />

      
      <glyph glyph-name="uni0136" unicode="&#x0136;" d="M612 0L234 365L238 390L664 700L709 700L268 375L654 0L612 0M140 0L109 0L220 700L251 700L140 0M362-47L278-209L247-209L328-47L362-47Z"  horiz-adv-x="674" vert-adv-y="1000"  />

      
      <glyph glyph-name="uni0137" unicode="&#x0137;" d="M120 0L89 0L200 700L231 700L120 0M454 0L192 246L196 270L489 473L536 473L225 255L499 0L454 0M287-47L203-209L172-209L253-47L287-47Z"  horiz-adv-x="533" vert-adv-y="1000"  />

      
      <glyph glyph-name="uni0138" unicode="&#x0138;" d="M123 0L92 0L167 473L198 473L123 0M457 0L195 246L199 270L492 473L540 473L228 255L502 0L457 0Z"  horiz-adv-x="537" vert-adv-y="1000"  />

      
      <glyph glyph-name="uni0139" unicode="&#x0139;" d="M555 0L109 0L220 700L251 700L145 29L559 29L555 0M226 765L342 891L386 891L264 765L226 765Z"  horiz-adv-x="590" vert-adv-y="1000"  />

      
      <glyph glyph-name="uni013A" unicode="&#x013A;" d="M199 700L230 700L138 115Q133 73 133 66Q133 17 190 17Q224 17 251 32L247 2Q217-12 180-12Q101-12 101 62Q101 77 106 110L199 700M209 765L325 891L369 891L247 765L209 765Z"  horiz-adv-x="268" vert-adv-y="1000"  />

      
      <glyph glyph-name="uni013B" unicode="&#x013B;" d="M555 0L109 0L220 700L251 700L145 29L559 29L555 0M358-47L274-209L243-209L324-47L358-47Z"  horiz-adv-x="590" vert-adv-y="1000"  />

      
      <glyph glyph-name="uni013C" unicode="&#x013C;" d="M199 700L230 700L138 115Q133 73 133 66Q133 17 190 17Q224 17 251 32L247 2Q217-12 180-12Q101-12 101 62Q101 77 106 110L199 700M191-47L107-209L76-209L157-47L191-47Z"  horiz-adv-x="268" vert-adv-y="1000"  />

      
      <glyph glyph-name="uni013D" unicode="&#x013D;" d="M555 0L109 0L220 700L251 700L145 29L559 29L555 0M667 699L583 537L552 537L633 699L667 699Z"  horiz-adv-x="619" vert-adv-y="1000"  />

      
      <glyph glyph-name="uni013E" unicode="&#x013E;" d="M208 700L239 700L147 115Q142 73 142 66Q142 17 199 17Q233 17 260 32L256 2Q226-12 189-12Q110-12 110 62Q110 77 115 110L208 700M442 699L358 537L327 537L408 699L442 699Z"  horiz-adv-x="335" vert-adv-y="1000"  />

      
      <glyph glyph-name="uni013F" unicode="&#x013F;" d="M555 0L109 0L220 700L251 700L145 29L559 29L555 0M558 355Q550 364 550 377Q550 390 558 398Q567 407 580 407Q593 407 601 398Q610 390 610 377Q610 364 601 355Q593 347 580 347Q567 347 558 355Z"  horiz-adv-x="590" vert-adv-y="1000"  />

      
      <glyph glyph-name="uni0140" unicode="&#x0140;" d="M208 700L239 700L147 115Q142 73 142 66Q142 17 199 17Q233 17 260 32L256 2Q226-12 189-12Q110-12 110 62Q110 77 115 110L208 700M305 354Q297 363 297 376Q297 389 305 397Q314 406 327 406Q340 406 348 397Q357 389 357 376Q357 363 348 354Q340 346 327 346Q314 346 305 354Z"  horiz-adv-x="350" vert-adv-y="1000"  />

      
      <glyph glyph-name="uni0141" unicode="&#x0141;" d="M558 0L112 0L169 356L66 300L71 332L174 389L223 700L254 700L208 407L385 503L380 470L202 374L148 29L563 29L558 0Z"  horiz-adv-x="594" vert-adv-y="1000"  />

      
      <glyph glyph-name="uni0142" unicode="&#x0142;" d="M203 363L93 303L98 336L208 396L256 700L288 700L243 414L353 474L347 441L237 381L196 115Q191 73 191 66Q191 17 248 17Q284 17 308 32L304 2Q274-12 237-12Q159-12 159 62Q159 73 164 111L203 363Z"  horiz-adv-x="363" vert-adv-y="1000"  />

      
      <glyph glyph-name="uni0143" unicode="&#x0143;" d="M666 0L636 0L243 648L140 0L109 0L219 700L249 700L642 52L744 700L776 700L666 0M483 765L599 891L643 891L521 765L483 765Z"  horiz-adv-x="774" vert-adv-y="1000"  />

      
      <glyph glyph-name="uni0144" unicode="&#x0144;" d="M552 238L515 0L484 0L522 239Q532 295 532 326Q532 389 494.50 422.50Q457 456 390 456Q330 456 273 423.50Q216 391 177 343L123 0L92 0L167 473L198 473L184 388Q278 485 398 485Q474 485 518.50 443.50Q563 402 563 330Q563 307 552 238M353 574L470 700L514 700L392 574L353 574Z"  horiz-adv-x="598" vert-adv-y="1000"  />

      
      <glyph glyph-name="uni0145" unicode="&#x0145;" d="M666 0L636 0L243 648L140 0L109 0L219 700L249 700L642 52L744 700L776 700L666 0M415-47L331-209L300-209L381-47L415-47Z"  horiz-adv-x="774" vert-adv-y="1000"  />

      
      <glyph glyph-name="uni0146" unicode="&#x0146;" d="M552 238L515 0L484 0L522 239Q532 295 532 326Q532 389 494.50 422.50Q457 456 390 456Q330 456 273 423.50Q216 391 177 343L123 0L92 0L167 473L198 473L184 388Q278 485 398 485Q474 485 518.50 443.50Q563 402 563 330Q563 307 552 238M333-47L249-209L218-209L299-47L333-47Z"  horiz-adv-x="598" vert-adv-y="1000"  />

      
      <glyph glyph-name="uni0147" unicode="&#x0147;" d="M666 0L636 0L243 648L140 0L109 0L219 700L249 700L642 52L744 700L776 700L666 0M481 765L397 891L430 891L500 789L603 891L640 891L515 765L481 765Z"  horiz-adv-x="774" vert-adv-y="1000"  />

      
      <glyph glyph-name="uni0148" unicode="&#x0148;" d="M552 238L515 0L484 0L522 239Q532 295 532 326Q532 389 494.50 422.50Q457 456 390 456Q330 456 273 423.50Q216 391 177 343L123 0L92 0L167 473L198 473L184 388Q278 485 398 485Q474 485 518.50 443.50Q563 402 563 330Q563 307 552 238M387 574L302 700L335 700L405 598L508 700L546 700L420 574L387 574Z"  horiz-adv-x="598" vert-adv-y="1000"  />

      
      <glyph glyph-name="uni0149" unicode="&#x0149;" d="M587 238L550 0L519 0L557 239Q567 295 567 326Q567 389 529.50 422.50Q492 456 425 456Q365 456 308 423.50Q251 391 212 343L158 0L127 0L202 473L233 473L219 388Q313 485 433 485Q509 485 553.50 443.50Q598 402 598 330Q598 307 587 238M208 699L124 537L93 537L174 699L208 699Z"  horiz-adv-x="633" vert-adv-y="1000"  />

      
      <glyph glyph-name="uni014A" unicode="&#x014A;" d="M744 700L776 700L664-12Q633-203 460-203Q399-203 359-178L366-149Q403-174 459-174Q604-174 633-7L634 3L243 648L140 0L109 0L220 700L249 700L642 52L744 700Z"  horiz-adv-x="774" vert-adv-y="1000"  />

      
      <glyph glyph-name="uni014B" unicode="&#x014B;" d="M552 238L503-76Q484-203 365-203Q324-203 296-187L301-156Q329-175 366-175Q457-175 473-69L522 239Q532 295 532 326Q532 389 494.50 422.50Q457 456 390 456Q330 456 273 423.50Q216 391 177 343L123 0L92 0L167 473L198 473L184 388Q278 485 398 485Q474 485 518.50 443.50Q563 402 563 330Q563 307 552 238Z"  horiz-adv-x="598" vert-adv-y="1000"  />

      
      <glyph glyph-name="uni014C" unicode="&#x014C;" d="M502 712Q647 712 735 618Q825 523 825 382Q825 220 719 104Q614-12 455-12Q311-12 221 82Q131 176 131 319Q131 480 237 595Q344 712 502 712M455 17Q595 17 694 123Q793 230 793 381Q793 511 712 596Q631 683 502 683Q361 683 262 577Q163 471 163 320Q163 191 244 104Q327 17 455 17M659 814L440 814L443 841L662 841L659 814Z"  horiz-adv-x="847" vert-adv-y="1000"  />

      
      <glyph glyph-name="uni014D" unicode="&#x014D;" d="M355 485Q460 485 525 417Q590 349 590 254Q590 143 514 66Q437-12 326-12Q220-12 155 56Q91 123 91 219Q91 330 167 407Q244 485 355 485M326 17Q423 17 490 87Q559 158 559 255Q559 341 502 398Q445 456 354 456Q259 456 190 386Q122 315 122 218Q122 133 178 74Q235 17 326 17M518 629L299 629L303 656L522 656L518 629Z"  horiz-adv-x="613" vert-adv-y="1000"  />

      
      <glyph glyph-name="uni014E" unicode="&#x014E;" d="M502 712Q647 712 735 618Q825 523 825 382Q825 220 719 104Q614-12 455-12Q311-12 221 82Q131 176 131 319Q131 480 237 595Q344 712 502 712M455 17Q595 17 694 123Q793 230 793 381Q793 511 712 596Q631 683 502 683Q361 683 262 577Q163 471 163 320Q163 191 244 104Q327 17 455 17M652 889L681 889Q673 837 635.50 802.50Q598 768 547 768Q500 768 468.50 797Q437 826 437 870Q437 884 438 889L468 889Q467 885 467 873Q467 839 489.50 816.50Q512 794 548 794Q587 794 615.50 820.50Q644 847 652 889Z"  horiz-adv-x="847" vert-adv-y="1000"  />

      
      <glyph glyph-name="uni014F" unicode="&#x014F;" d="M355 485Q460 485 525 417Q590 349 590 254Q590 143 514 66Q437-12 326-12Q220-12 155 56Q91 123 91 219Q91 330 167 407Q244 485 355 485M326 17Q423 17 490 87Q559 158 559 255Q559 341 502 398Q445 456 354 456Q259 456 190 386Q122 315 122 218Q122 133 178 74Q235 17 326 17M507 696L537 696Q529 644 491 609.50Q453 575 402 575Q355 575 324 604Q293 633 293 678Q293 692 294 696L323 696Q322 693 322 681Q322 646 344 624Q366 602 403 602Q442 602 470.50 628Q499 654 507 696Z"  horiz-adv-x="613" vert-adv-y="1000"  />

      
      <glyph glyph-name="uni0150" unicode="&#x0150;" d="M456 765L421 765L537 891L578 891L456 765M587 765L552 765L667 891L708 891L587 765M502 712Q647 712 735 618Q825 523 825 382Q825 220 719 104Q614-12 455-12Q311-12 221 82Q131 176 131 319Q131 480 237 595Q344 712 502 712M455 17Q595 17 694 123Q793 230 793 381Q793 511 712 596Q631 683 502 683Q361 683 262 577Q163 471 163 320Q163 191 244 104Q327 17 455 17Z"  horiz-adv-x="847" vert-adv-y="1000"  />

      
      <glyph glyph-name="uni0151" unicode="&#x0151;" d="M323 574L288 574L404 700L445 700L323 574M454 574L419 574L534 700L575 700L454 574M355 485Q460 485 525 417Q590 349 590 254Q590 143 514 66Q437-12 326-12Q220-12 155 56Q91 123 91 219Q91 330 167 407Q244 485 355 485M326 17Q423 17 490 87Q559 158 559 255Q559 341 502 398Q445 456 354 456Q259 456 190 386Q122 315 122 218Q122 133 178 74Q235 17 326 17Z"  horiz-adv-x="613" vert-adv-y="1000"  />

      
      <glyph glyph-name="uni0152" unicode="&#x0152;" d="M544 700L1201 700L1197 670L770 670L727 391L1079 391L1075 362L722 362L668 29L1111 29L1108 0L474 0Q318 0 224 85Q131 170 131 310Q131 481 247 591Q363 700 544 700M163 310Q163 182 248 106Q334 29 482 29L637 29L739 671L550 671Q382 671 273 572Q163 473 163 310Z"  horiz-adv-x="1159" vert-adv-y="1000"  />

      
      <glyph glyph-name="uni0153" unicode="&#x0153;" d="M800 17Q876 17 946 60L941 27Q882-12 797-12Q713-12 651 31Q589 74 567 147Q537 75 471.50 31.50Q406-12 326-12Q220-12 155 56Q91 123 91 219Q91 330 167 407Q244 485 355 485Q438 485 498.50 440.50Q559 396 580 323Q608 396 670.50 440.50Q733 485 813 485Q912 485 963 421Q1015 359 1015 278Q1015 270 1013 238L589 238Q588 233 588 213Q588 127 648 71Q710 17 800 17M326 17Q423 17 490 87Q559 158 559 255Q559 341 502 398Q445 456 354 456Q259 456 190 386Q122 315 122 218Q122 133 178 74Q235 17 326 17M811 456Q728 456 667 401Q606 345 593 264L983 264Q984 269 984 282Q984 350 940 403Q896 456 811 456Z"  horiz-adv-x="1032" vert-adv-y="1000"  />

      
      <glyph glyph-name="uni0154" unicode="&#x0154;" d="M509 340L681 0L645 0L473 338L194 338L140 0L109 0L220 700L517 700Q607 700 657 657Q707 614 707 539Q707 458 652.50 404.50Q598 351 509 340M512 671L247 671L199 367L482 367Q563 367 619 413Q676 460 676 537Q676 600 633 635.50Q590 671 512 671M419 765L535 891L579 891L457 765L419 765Z"  horiz-adv-x="736" vert-adv-y="1000"  />

      
      <glyph glyph-name="uni0155" unicode="&#x0155;" d="M123 0L92 0L167 473L198 473L181 370Q214 416 269 449Q326 485 392 485L388 454Q324 454 265 415Q209 376 175 323L123 0M240 574L357 700L401 700L279 574L240 574Z"  horiz-adv-x="331" vert-adv-y="1000"  />

      
      <glyph glyph-name="uni0156" unicode="&#x0156;" d="M509 340L681 0L645 0L473 338L194 338L140 0L109 0L220 700L517 700Q607 700 657 657Q707 614 707 539Q707 458 652.50 404.50Q598 351 509 340M512 671L247 671L199 367L482 367Q563 367 619 413Q676 460 676 537Q676 600 633 635.50Q590 671 512 671M392-47L308-209L277-209L358-47L392-47Z"  horiz-adv-x="736" vert-adv-y="1000"  />

      
      <glyph glyph-name="uni0157" unicode="&#x0157;" d="M123 0L92 0L167 473L198 473L181 370Q214 416 269 449Q326 485 392 485L388 454Q324 454 265 415Q209 376 175 323L123 0M118-47L34-209L3-209L84-47L118-47Z"  horiz-adv-x="331" vert-adv-y="1000"  />

      
      <glyph glyph-name="uni0158" unicode="&#x0158;" d="M509 340L681 0L645 0L473 338L194 338L140 0L109 0L220 700L517 700Q607 700 657 657Q707 614 707 539Q707 458 652.50 404.50Q598 351 509 340M512 671L247 671L199 367L482 367Q563 367 619 413Q676 460 676 537Q676 600 633 635.50Q590 671 512 671M441 765L357 891L390 891L460 789L563 891L600 891L475 765L441 765Z"  horiz-adv-x="736" vert-adv-y="1000"  />

      
      <glyph glyph-name="uni0159" unicode="&#x0159;" d="M123 0L92 0L167 473L198 473L181 370Q214 416 269 449Q326 485 392 485L388 454Q324 454 265 415Q209 376 175 323L123 0M270 574L185 700L218 700L288 598L391 700L429 700L303 574L270 574Z"  horiz-adv-x="332" vert-adv-y="1000"  />

      
      <glyph glyph-name="uni015A" unicode="&#x015A;" d="M608 651L603 621Q509 683 387 683Q336 683 290 668Q244 655 208 617Q172 580 172 527Q172 493 186 474Q208 447 225 437Q262 418 279 411L309 401L342 391L373 382L425 365Q443 360 473 347Q502 335 519 323Q593 274 588 201Q588 102 507 45Q426-12 317-12Q241-12 164 11Q89 36 57 63L63 97Q94 67 167 41Q238 17 317 17Q369 17 423 34Q476 52 516 94Q556 137 556 196Q556 248 516 286Q498 303 469 315Q440 328 416 336Q380 348 353 356Q269 380 227 399Q184 421 164 449Q144 477 141 523Q141 614 214 663Q287 712 388 712Q526 712 608 651M382 765L498 891L542 891L420 765L382 765Z"  horiz-adv-x="620" vert-adv-y="1000"  />

      
      <glyph glyph-name="uni015B" unicode="&#x015B;" d="M474 432L470 401Q397 456 290 456Q234 456 188 432Q143 408 143 356Q143 316 187 292Q226 272 282 255L292 252Q310 246 341 235Q355 231 383 218Q418 202 433.50 181.50Q449 161 453 127Q453 58 394 23Q335-12 257-12Q195-12 139.50 6.50Q84 25 51 52L56 85Q138 17 259 17Q292 17 329 25Q368 35 395 61Q422 87 422 124Q422 170 354 199Q325 210 278 225Q188 254 150.50 281Q113 308 113 354Q113 418 165 451Q217 485 292 485Q403 485 474 432M284 574L401 700L445 700L323 574L284 574Z"  horiz-adv-x="487" vert-adv-y="1000"  />

      
      </font>
</defs>
</svg>
