<?xml version="1.0" standalone="no"?>
  <!DOCTYPE svg PUBLIC "-//W3C//DTD SVG 1.1//EN" "http://www.w3.org/Graphics/SVG/1.1/DTD/svg11.dtd" >
  <svg>
  <metadata>
  Created by font-carrier
  </metadata>
  <defs>
  <font id="Geometria-Heavy" horiz-adv-x="1456" vert-adv-y="1456" >
    <font-face
      
      font-family="Geometria"
      
      font-weight="400"
      
      font-stretch="normal"
      
      units-per-em="1000"
      
      ascent="790"
      
      descent="-210"
      
    />
      <missing-glyph />

      

      
      <glyph glyph-name="uni21" unicode="&#x21;" d="M188-14Q138-14 102 22Q66 58 66 108Q66 160 102 195Q138 231 188 231Q239 231 275 195Q311 160 311 108Q311 58 275 22Q239-14 188-14M285 264L94 264L64 700L314 700L285 264Z"  horiz-adv-x="378" vert-adv-y="1000"  />

      
      <glyph glyph-name="uni22" unicode="&#x22;" d="M200 358L30 358L30 700L200 700L200 358M428 358L258 358L258 700L428 700L428 358Z"  horiz-adv-x="458" vert-adv-y="1000"  />

      
      <glyph glyph-name="uni23" unicode="&#x23;" d="M294 0L131 0L155 143L21 143L46 293L178 293L196 407L64 407L87 557L221 557L242 700L405 700L383 557L484 557L506 700L669 700L647 557L779 557L754 407L623 407L604 293L737 293L712 143L581 143L558 0L395 0L418 143L317 143L294 0M359 407L340 293L441 293L460 407L359 407Z"  horiz-adv-x="800" vert-adv-y="1000"  />

      
      <glyph glyph-name="uni24" unicode="&#x24;" d="M424-4L424-105L248-105L248-10Q123 4 36 61L36 271Q84 230 172 202Q262 173 331 173Q412 173 412 206Q412 220 382 234Q353 247 266 273Q151 307 93.50 359.50Q36 412 36 497Q36 583 91.50 637Q147 691 248 707L248 805L424 805L424 708Q507 698 590 658L590 458Q538 489 461 508Q383 529 321 529Q259 529 259 503Q259 490 288 476Q317 465 419 434Q529 401 582 348Q635 295 635 216Q635 132 579 73.50Q523 15 424-4Z"  horiz-adv-x="659" vert-adv-y="1000"  />

      
      <glyph glyph-name="uni25" unicode="&#x25;" d="M270 0L134 0L561 700L698 700L270 0M62 664Q115 714 196 714Q276 714 329 664Q382 614 382 538Q382 462 329 412Q276 362 196 362Q115 362 62 412Q10 461 10 538Q10 615 62 664M254 538Q254 562 237 579.50Q220 597 196 597Q172 597 155 579.50Q138 562 138 538Q138 513 154.50 496Q171 479 196 479Q221 479 237.50 496Q254 513 254 538M501 288Q554 338 635 338Q715 338 768 288Q821 238 821 162Q821 86 768 36Q715-14 635-14Q554-14 501 36Q449 85 449 162Q449 239 501 288M693 162Q693 186 676 203.50Q659 221 635 221Q611 221 594 203.50Q577 186 577 162Q577 137 593.50 120Q610 103 635 103Q660 103 676.50 120Q693 137 693 162Z"  horiz-adv-x="831" vert-adv-y="1000"  />

      
      <glyph glyph-name="uni26" unicode="&#x26;" d="M411 376L443 344L489 297Q502 322 504 390L689 390Q689 332 670.50 269Q652 206 623 162L783 0L532 0L492 38Q421-14 306-14Q184-14 105 49Q26 112 26 222Q26 286 57 335Q88 384 138 412Q106 465 106 528Q106 609 167 661Q229 714 326 714Q444 714 530 665L530 481Q459 540 383 540Q355 540 337.50 529Q320 518 320 498Q320 476 349 441L376 411L411 376M363 166L244 287Q221 267 221 232Q221 199 247 177Q273 155 312 155Q339 155 363 166Z"  horiz-adv-x="783" vert-adv-y="1000"  />

      
      <glyph glyph-name="uni27" unicode="&#x27;" d="M200 358L30 358L30 700L200 700L200 358Z"  horiz-adv-x="230" vert-adv-y="1000"  />

      
      <glyph glyph-name="uni28" unicode="&#x28;" d="M399-206L186-206Q44-27 44 250Q44 525 186 706L399 706Q238 503 238 250Q238-3 399-206Z"  horiz-adv-x="415" vert-adv-y="1000"  />

      
      <glyph glyph-name="uni29" unicode="&#x29;" d="M229-206L16-206Q177-3 177 250Q177 503 16 706L229 706Q371 525 371 250Q371-27 229-206Z"  horiz-adv-x="415" vert-adv-y="1000"  />

      
      <glyph glyph-name="uni2a" unicode="&#x2a;" d="M260 323L151 323L156 431L70 370L15 465L112 511L15 558L70 653L156 591L151 700L260 700L255 591L342 653L396 558L300 511L396 465L342 370L255 431L260 323Z"  horiz-adv-x="409" vert-adv-y="1000"  />

      
      <glyph glyph-name="uni2b" unicode="&#x2b;" d="M40 245L40 428L218 428L218 607L401 607L401 428L578 428L578 245L401 245L401 67L218 67L218 245L40 245Z"  horiz-adv-x="618" vert-adv-y="1000"  />

      
      <glyph glyph-name="uni2c" unicode="&#x2c;" d="M154-152L-20-152L74 199L291 199L154-152Z"  horiz-adv-x="312" vert-adv-y="1000"  />

      
      <glyph glyph-name="uni2d" unicode="&#x2d;" d="M411 193L74 193L74 376L411 376L411 193Z"  horiz-adv-x="485" vert-adv-y="1000"  />

      
      <glyph glyph-name="uni2e" unicode="&#x2e;" d="M144 231Q194 231 230 195Q266 161 266 109Q266 58 230 22Q194-14 144-14Q94-14 57 22Q21 58 21 109Q21 160 57 195Q93 231 144 231Z"  horiz-adv-x="288" vert-adv-y="1000"  />

      
      <glyph glyph-name="uni2f" unicode="&#x2f;" d="M383 792L573 792L152-140L-38-140L383 792Z"  horiz-adv-x="551" vert-adv-y="1000"  />

      
      <glyph glyph-name="uni30" unicode="&#x30;" d="M349-14Q248-14 174 40Q33 146 33 350Q33 446 67 524Q102 606 174 659Q247 714 349 714Q424 714 486.50 683Q549 652 588 599Q666 493 666 350Q666 207 588 101Q549 48 486.50 17Q424-14 349-14M349 180Q388 178 415 213Q442 248 448.50 299Q455 350 448.50 401Q442 452 415 487Q388 522 349 520Q297 520 272 468Q246 416 246 350Q246 285 272 231Q298 180 349 180Z"  horiz-adv-x="699" vert-adv-y="1000"  />

      
      <glyph glyph-name="uni31" unicode="&#x31;" d="M369 0L159 0L159 476L20 419L20 622L184 700L369 700L369 0Z"  horiz-adv-x="419" vert-adv-y="1000"  />

      
      <glyph glyph-name="uni32" unicode="&#x32;" d="M543 0L25 0L25 154L198 304Q263 361 284 392Q308 426 308 458Q308 486 286 502.50Q264 519 228 519Q139 519 51 451L51 662Q130 714 251 714Q356 714 439 652Q522 590 522 485Q522 408 490 349Q459 291 376 222L324 179L543 179L543 0Z"  horiz-adv-x="577" vert-adv-y="1000"  />

      
      <glyph glyph-name="uni33" unicode="&#x33;" d="M256-14Q128-14 33 43L33 237Q143 172 235 172Q283 172 311.50 191Q340 210 340 243Q340 274 316 293Q292 312 249 312Q182 312 132 288L132 417L270 521L49 521L49 700L520 700L520 540L399 442Q555 382 555 237Q555 123 468 54Q382-14 256-14Z"  horiz-adv-x="579" vert-adv-y="1000"  />

      
      <glyph glyph-name="uni34" unicode="&#x34;" d="M541 0L338 0L338 158L9 158L9 307L329 700L541 700L541 320L632 320L632 158L541 158L541 0M338 466L214 320L338 320L338 466Z"  horiz-adv-x="645" vert-adv-y="1000"  />

      
      <glyph glyph-name="uni35" unicode="&#x35;" d="M236-14Q119-14 30 36L30 233Q124 172 223 172Q329 172 329 244Q329 278 300 297Q271 316 217 316Q130 316 49 289L95 700L497 700L497 521L253 521L249 474L271 475Q394 475 468 414Q544 353 544 244Q544 158 499 98Q416-14 236-14Z"  horiz-adv-x="575" vert-adv-y="1000"  />

      
      <glyph glyph-name="uni36" unicode="&#x36;" d="M379 474Q475 474 537 412Q600 350 600 241Q600 127 523 56Q447-14 330-14Q190-14 113 75Q37 163 37 314Q37 471 114 585Q154 645 221.50 679.50Q289 714 374 714Q480 714 542 672L542 485Q480 530 400 530Q341 530 300.50 502.50Q260 475 253 425Q298 474 379 474M315 161Q351 161 371 182.50Q391 204 391 240Q391 271 370.50 293Q350 315 317 315Q293 315 270.50 301Q248 287 238 266Q238 217 260.50 189Q283 161 315 161Z"  horiz-adv-x="632" vert-adv-y="1000"  />

      
      <glyph glyph-name="uni37" unicode="&#x37;" d="M283 0L56 0L313 521L23 521L23 700L550 700L550 533L283 0Z"  horiz-adv-x="578" vert-adv-y="1000"  />

      
      <glyph glyph-name="uni38" unicode="&#x38;" d="M491 372Q537 353 570 306Q604 260 604 207Q604 101 519 43Q435-14 313-14Q192-14 106 43Q22 102 22 207Q22 260 55 306Q90 353 135 372Q99 390 75 429Q51 468 51 510Q51 601 125 657Q200 714 313 714Q426 714 500 657Q575 602 575 510Q575 468 551 429Q527 390 491 372M379 487Q379 487 379 499Q379 511 360 527Q341 543 313 543Q285 543 266 527Q247 511 247 487Q247 463 266 447Q285 432 313 432Q341 432 360 447Q379 463 379 487M394 226Q394 255 371.50 274.50Q349 294 313 294Q277 294 254.50 274.50Q232 255 232 226Q232 198 255 179Q278 160 313 160Q348 160 371 179Q394 198 394 226Z"  horiz-adv-x="626" vert-adv-y="1000"  />

      
      <glyph glyph-name="uni39" unicode="&#x39;" d="M258 226Q163 226 99 288Q37 350 37 459Q37 573 114 644Q190 714 307 714Q446 714 523 625Q600 536 600 386Q600 231 523 114Q483 55 415.50 20.50Q348-14 263-14Q156-14 95 28L95 215Q156 170 237 170Q296 170 336.50 197.50Q377 225 384 275Q339 226 258 226M322 539Q286 539 266 517.50Q246 496 246 460Q246 429 266.50 407Q287 385 320 385Q344 385 366.50 399Q389 413 399 434Q399 483 376.50 511Q354 539 322 539Z"  horiz-adv-x="632" vert-adv-y="1000"  />

      
      <glyph glyph-name="uni3a" unicode="&#x3a;" d="M144 529Q194 529 230 493Q266 458 266 407Q266 356 230 320Q194 284 144 284Q94 284 57 320Q21 356 21 407Q21 458 57 493Q93 529 144 529M144 231Q194 231 230 195Q266 161 266 109Q266 58 230 22Q194-14 144-14Q94-14 57 22Q21 58 21 109Q21 160 57 195Q93 231 144 231Z"  horiz-adv-x="288" vert-adv-y="1000"  />

      
      <glyph glyph-name="uni3b" unicode="&#x3b;" d="M154-152L-20-152L74 199L291 199L154-152M161 529Q211 529 247 493Q283 458 283 407Q283 356 247 320Q211 284 161 284Q112 284 74 320Q38 356 38 407Q38 458 74 493Q110 529 161 529Z"  horiz-adv-x="312" vert-adv-y="1000"  />

      
      <glyph glyph-name="uni3c" unicode="&#x3c;" d="M578 231L578 27L40 236L40 435L578 644L578 441L249 337L578 231Z"  horiz-adv-x="618" vert-adv-y="1000"  />

      
      <glyph glyph-name="uni3d" unicode="&#x3d;" d="M578 365L40 365L40 545L578 545L578 365M578 130L40 130L40 310L578 310L578 130Z"  horiz-adv-x="618" vert-adv-y="1000"  />

      
      <glyph glyph-name="uni3e" unicode="&#x3e;" d="M578 236L40 27L40 231L369 337L40 441L40 644L578 435L578 236Z"  horiz-adv-x="618" vert-adv-y="1000"  />

      
      <glyph glyph-name="uni3f" unicode="&#x3f;" d="M320 264L120 264L120 413Q282 438 282 491Q282 531 206 531Q105 531 17 479L17 655Q108 716 238 716Q348 716 422 664Q497 613 497 511Q497 437 445 391Q390 343 320 321L320 264M224 231Q274 231 310 195Q346 161 346 109Q346 58 310 22Q274-14 224-14Q174-14 137 22Q101 58 101 109Q101 160 137 195Q173 231 224 231Z"  horiz-adv-x="502" vert-adv-y="1000"  />

      
      <glyph glyph-name="uni40" unicode="&#x40;" d="M458-162Q273-162 146-38Q19 85 19 276Q19 461 147 587Q274 714 458 714Q644 714 770 594Q896 474 896 302Q896 181 842 114Q788 46 702 46Q593 46 543 111Q492 40 396 40Q308 40 251 106Q195 173 195 274Q195 374 251 441Q306 508 393 508Q471 508 521 452L521 498L685 498L685 204Q685 106 746 106Q784 106 816 157Q848 209 848 302Q848 403 802 485Q755 569 665 621Q576 673 458 673Q288 673 177 557Q67 441 67 276Q67 106 176-6Q286-120 458-120Q574-120 681-55L681-102Q584-162 458-162M447 188Q498 188 521 226L521 322Q498 360 447 360Q412 360 391 335.50Q370 311 370 274Q370 237 391 212.50Q412 188 447 188Z"  horiz-adv-x="914" vert-adv-y="1000"  />

      
      <glyph glyph-name="uni41" unicode="&#x41;" d="M223 0L1 0L289 704L494 704L783 0L552 0L502 131L274 131L223 0M388 458L336 292L439 292L388 458Z"  horiz-adv-x="783" vert-adv-y="1000"  />

      
      <glyph glyph-name="uni42" unicode="&#x42;" d="M423 0L53 0L53 700L408 700Q506 700 568 654Q631 609 631 521Q631 470 603 436Q574 401 547 388Q593 379 636 328Q680 278 680 203Q680 112 609 56Q538 0 423 0M268 289L268 173L381 173Q410 173 427.50 188.50Q445 204 445 230Q445 256 427 272.50Q409 289 381 289L268 289M268 533L268 439L377 439Q399 439 413.50 452Q428 465 428 484Q428 506 413.50 519.50Q399 533 377 533L268 533Z"  horiz-adv-x="702" vert-adv-y="1000"  />

      
      <glyph glyph-name="uni43" unicode="&#x43;" d="M434-14Q262-14 147 87Q33 189 33 350Q33 511 146 612Q258 714 432 714Q536 714 609 677L609 474Q524 520 438 520Q358 520 306 471Q254 423 254 350Q254 275 308 227Q363 180 446 180Q548 180 619 230L619 24Q546-14 434-14Z"  horiz-adv-x="659" vert-adv-y="1000"  />

      
      <glyph glyph-name="uni44" unicode="&#x44;" d="M348 0L53 0L53 700L348 700Q519 700 629 602Q738 505 738 350Q738 195 629 98Q519 0 348 0M268 515L268 185L334 185Q422 185 469 227.50Q516 270 516 350Q516 430 469 472.50Q422 515 334 515L268 515Z"  horiz-adv-x="772" vert-adv-y="1000"  />

      
      <glyph glyph-name="uni45" unicode="&#x45;" d="M608 0L53 0L53 700L602 700L602 515L268 515L268 453L530 453L530 283L268 283L268 185L608 185L608 0Z"  horiz-adv-x="636" vert-adv-y="1000"  />

      
      <glyph glyph-name="uni46" unicode="&#x46;" d="M268 0L53 0L53 700L603 700L603 515L268 515L268 446L509 446L509 276L268 276L268 0Z"  horiz-adv-x="631" vert-adv-y="1000"  />

      
      <glyph glyph-name="uni47" unicode="&#x47;" d="M422-14Q258-14 145 88Q33 190 33 350Q33 511 146 612Q258 714 431 714Q481 714 516 707Q556 699 574 692Q599 683 629 670L629 473Q560 508 490.50 516Q421 524 368.50 506.50Q316 489 284 447Q252 405 254 347Q254 265 303 219Q352 173 422 173Q476 173 505 193L505 408L721 408L721 93Q679 48 598 17Q517-14 422-14Z"  horiz-adv-x="751" vert-adv-y="1000"  />

      
      <glyph glyph-name="uni48" unicode="&#x48;" d="M268 0L53 0L53 700L268 700L268 463L482 463L482 700L697 700L697 0L482 0L482 276L268 276L268 0Z"  horiz-adv-x="750" vert-adv-y="1000"  />

      
      <glyph glyph-name="uni49" unicode="&#x49;" d="M272 0L57 0L57 700L272 700L272 0Z"  horiz-adv-x="328" vert-adv-y="1000"  />

      
      <glyph glyph-name="uni4a" unicode="&#x4a;" d="M194-14Q74-14 18 22L18 225Q82 181 146 181Q199 181 224.50 203.50Q250 226 250 279L250 700L465 700L465 248Q465 96 378 37Q303-14 194-14Z"  horiz-adv-x="509" vert-adv-y="1000"  />

      
      <glyph glyph-name="uni4b" unicode="&#x4b;" d="M268 0L53 0L53 700L268 700L268 439L465 700L718 700L470 375L768 0L504 0L268 302L268 0Z"  horiz-adv-x="754" vert-adv-y="1000"  />

      
      <glyph glyph-name="uni4c" unicode="&#x4c;" d="M586 0L53 0L53 700L268 700L268 185L586 185L586 0Z"  horiz-adv-x="606" vert-adv-y="1000"  />

      
      <glyph glyph-name="uni4d" unicode="&#x4d;" d="M261 0L53 0L53 700L266 700L419 451L573 700L785 700L785 0L579 0L579 392L480 225L364 225L261 392L261 0Z"  horiz-adv-x="838" vert-adv-y="1000"  />

      
      <glyph glyph-name="uni4e" unicode="&#x4e;" d="M259 0L53 0L53 700L236 700L504 362L504 700L708 700L708 0L531 0L259 340L259 0Z"  horiz-adv-x="761" vert-adv-y="1000"  />

      
      <glyph glyph-name="uni4f" unicode="&#x4f;" d="M297 229Q341 182 408 182Q475 182 519 229Q563 278 563 350Q563 423 519 470Q476 518 408 518Q340 518 297 470Q253 423 253 350Q253 278 297 229M139 93Q33 199 33 350Q33 501 139 607Q246 714 408 714Q569 714 676 607Q782 501 782 350Q782 198 676 92Q570-14 408-14Q246-14 139 93Z"  horiz-adv-x="816" vert-adv-y="1000"  />

      
      <glyph glyph-name="uni50" unicode="&#x50;" d="M53 700L375 700Q496 700 567 636Q640 572 640 472Q640 372 567 308Q496 244 375 244L268 244L268 0L53 0L53 700M268 400L346 400Q379 400 399.50 417.50Q420 435 420 463Q420 491 399 508Q378 525 346 525L268 525L268 400Z"  horiz-adv-x="651" vert-adv-y="1000"  />

      
      <glyph glyph-name="uni51" unicode="&#x51;" d="M400-71L356-10Q215 6 123 110Q33 214 33 350Q33 501 139 607Q246 714 408 714Q569 714 676 607Q782 501 782 350Q782 244 727 156Q671 68 578 24Q608-13 663-13Q708-13 746 8L746-167Q692-190 628-190Q489-190 400-71M297 229Q341 182 408 182Q475 182 519 229Q563 278 563 350Q563 423 519 470Q476 518 408 518Q340 518 297 470Q253 423 253 350Q253 278 297 229Z"  horiz-adv-x="816" vert-adv-y="1000"  />

      
      <glyph glyph-name="uni52" unicode="&#x52;" d="M526 274L735 0L484 0L298 250L268 250L268 0L53 0L53 700L391 700Q511 700 582 636Q654 573 654 475Q654 409 620 356.50Q586 304 526 274M268 407L366 407Q396 407 414.50 422.50Q433 438 433 464Q433 490 414.50 505Q396 520 366 520L268 520L268 407Z"  horiz-adv-x="725" vert-adv-y="1000"  />

      
      <glyph glyph-name="uni53" unicode="&#x53;" d="M327-14Q154-14 36 61L36 271Q84 230 172 202Q262 173 331 173Q412 173 412 206Q412 220 382 234Q353 247 266 273Q151 307 93.50 359.50Q36 412 36 497Q36 602 116 658Q196 714 337 714Q470 714 590 658L590 458Q538 489 461 508Q383 529 321 529Q259 529 259 503Q259 490 288 476Q317 465 419 434Q529 401 582 348Q635 295 635 216Q635 111 550 48Q465-14 327-14Z"  horiz-adv-x="662" vert-adv-y="1000"  />

      
      <glyph glyph-name="uni54" unicode="&#x54;" d="M22 515L22 700L637 700L637 515L436 515L436 0L221 0L221 515L22 515Z"  horiz-adv-x="659" vert-adv-y="1000"  />

      
      <glyph glyph-name="uni55" unicode="&#x55;" d="M45 290L45 700L260 700L260 289Q260 235 289 208Q318 181 365 181Q412 181 440.50 208Q469 235 469 289L469 700L684 700L684 290Q684 144 593 65Q504-14 365-14Q227-14 136 65Q45 144 45 290Z"  horiz-adv-x="729" vert-adv-y="1000"  />

      
      <glyph glyph-name="uni56" unicode="&#x56;" d="M483-4L279-4L0 700L239 700L385 283L532 700L763 700L483-4Z"  horiz-adv-x="763" vert-adv-y="1000"  />

      
      <glyph glyph-name="uni57" unicode="&#x57;" d="M415-4L228-4L0 700L234 700L331 327L463 702L625 702L757 327L852 700L1081 700L851-4L668-4L543 364L415-4Z"  horiz-adv-x="1078" vert-adv-y="1000"  />

      
      <glyph glyph-name="uni58" unicode="&#x58;" d="M19 700L268 700L370 533L473 700L719 700L492 376L757 0L507 0L366 212L228 0L-19 0L246 375L19 700Z"  horiz-adv-x="738" vert-adv-y="1000"  />

      
      <glyph glyph-name="uni59" unicode="&#x59;" d="M460 0L245 0L245 306L-10 700L233 700L355 503L479 700L716 700L460 311L460 0Z"  horiz-adv-x="706" vert-adv-y="1000"  />

      
      <glyph glyph-name="uni5a" unicode="&#x5a;" d="M627 0L20 0L20 152L326 515L29 515L29 700L611 700L611 549L306 185L627 185L627 0Z"  horiz-adv-x="647" vert-adv-y="1000"  />

      
      <glyph glyph-name="uni5b" unicode="&#x5b;" d="M436-206L60-206L60 706L436 706L436 547L250 547L250-47L436-47L436-206Z"  horiz-adv-x="452" vert-adv-y="1000"  />

      
      <glyph glyph-name="uni5c" unicode="&#x5c;" d="M589-140L399-140L-22 792L168 792L589-140Z"  horiz-adv-x="551" vert-adv-y="1000"  />

      
      <glyph glyph-name="uni5d" unicode="&#x5d;" d="M16 706L392 706L392-206L16-206L16-47L202-47L202 547L16 547L16 706Z"  horiz-adv-x="452" vert-adv-y="1000"  />

      
      <glyph glyph-name="uni5e" unicode="&#x5e;" d="M210 331L12 331L190 761L389 761L566 331L369 331L290 582L210 331Z"  horiz-adv-x="579" vert-adv-y="1000"  />

      
      <glyph glyph-name="uni5f" unicode="&#x5f;" d="M668-170L-2-170L-2-34L668-34L668-170Z"  horiz-adv-x="666" vert-adv-y="1000"  />

      
      <glyph glyph-name="uni60" unicode="&#x60;" d="M101 734L347 734L442 576L271 576L101 734Z"  horiz-adv-x="515" vert-adv-y="1000"  />

      
      <glyph glyph-name="uni61" unicode="&#x61;" d="M556 154Q572 154 585 163L585 18Q548-13 481-13Q436-13 398 7Q360 27 347 55Q326 25 285 6Q244-13 194-13Q108-13 59 35Q9 85 9 158Q9 240 69 281Q131 322 207 322Q274 322 323 294Q323 371 220 371Q136 371 72 338L72 495Q155 529 269 529Q385 529 458 470Q530 412 530 316L530 178Q530 154 556 154M326 149L326 203Q305 221 274 221Q247 221 229.50 208Q212 195 212 171Q212 148 228 134Q244 120 269 120Q309 120 326 149Z"  horiz-adv-x="611" vert-adv-y="1000"  />

      
      <glyph glyph-name="uni62" unicode="&#x62;" d="M50 0L50 700L261 700L261 458Q308 529 402 529Q500 529 565 452Q630 375 630 258Q630 141 565 64Q500-13 402-13Q308-13 261 58L261 0L50 0M258 316L258 199Q280 162 337 162Q375 162 398.50 189.50Q422 217 422 258Q422 299 398.50 326.50Q375 354 337 354Q281 354 258 316Z"  horiz-adv-x="648" vert-adv-y="1000"  />

      
      <glyph glyph-name="uni63" unicode="&#x63;" d="M305-13Q233-13 170 15Q106 44 63 108Q19 173 19 259Q19 346 63 410Q147 529 307 529Q392 529 459 500L459 327Q396 350 341 350Q290 350 257 325.50Q224 301 224 258Q224 214 258 189.50Q292 165 345 165Q408 165 465 191L465 20Q388-13 305-13Z"  horiz-adv-x="504" vert-adv-y="1000"  />

      
      <glyph glyph-name="uni64" unicode="&#x64;" d="M388 458L388 700L599 700L599 0L388 0L388 58Q341-13 247-13Q149-13 84 64Q19 141 19 258Q19 375 84 452Q149 529 247 529Q341 529 388 458M391 199L391 316Q368 354 312 354Q274 354 250.50 326.50Q227 299 227 258Q227 217 250.50 189.50Q274 162 312 162Q369 162 391 199Z"  horiz-adv-x="649" vert-adv-y="1000"  />

      
      <glyph glyph-name="uni65" unicode="&#x65;" d="M307-13Q187-13 103 59Q19 133 19 258Q19 374 95 451Q172 529 296 529Q403 529 475 456Q547 384 547 261L547 213L219 213Q231 183 268.50 167.50Q306 152 354 152Q446 152 520 191L520 37Q450-13 307-13M215 313L352 313Q351 347 332.50 367.50Q314 388 286 388Q226 388 215 313Z"  horiz-adv-x="570" vert-adv-y="1000"  />

      
      <glyph glyph-name="uni66" unicode="&#x66;" d="M300 352L300 0L89 0L89 352L8 352L8 516L89 516L89 530Q89 614 143 664Q197 714 297 714Q379 714 442 692L442 553Q402 566 362 566Q300 566 300 516L442 516L442 352L300 352Z"  horiz-adv-x="456" vert-adv-y="1000"  />

      
      <glyph glyph-name="uni67" unicode="&#x67;" d="M381 460L381 516L592 516L592 84Q592 25 572.50-24.50Q553-74 521.50-106.50Q490-139 448-162Q406-185 363-195.50Q320-206 276-206Q139-206 70-164L70 17Q155-33 253-33Q381-33 381 69L381 100Q330 31 238 31Q141 31 80 101Q19 171 19 280Q19 389 80 459Q141 529 238 529Q328 529 381 460M384 234L384 326Q357 357 304 357Q269 357 248 335.50Q227 314 227 280Q227 246 248 224.50Q269 203 304 203Q357 203 384 234Z"  horiz-adv-x="634" vert-adv-y="1000"  />

      
      <glyph glyph-name="uni68" unicode="&#x68;" d="M260 317L260 0L50 0L50 700L260 700L260 450Q278 478 320 504Q363 529 411 529Q494 529 538 476Q582 423 582 327L582 0L371 0L371 282Q371 313 356.50 329Q342 345 319 345Q284 345 260 317Z"  horiz-adv-x="623" vert-adv-y="1000"  />

      
      <glyph glyph-name="uni69" unicode="&#x69;" d="M264 0L53 0L53 516L264 516L264 0M243 574.50Q243 574.50 226 557.25Q209 540 159 540Q109 540 75 574Q41 608 41 659Q41 708 75 742Q110 777 159 777Q207 777 242 742Q277 707 277 659Q277 609 243 574.50Z"  horiz-adv-x="318" vert-adv-y="1000"  />

      
      <glyph glyph-name="uni6a" unicode="&#x6a;" d="M159 540Q110 540 76 574Q42 608 42 659Q42 708 76 742.50Q110 777 159 777Q207 777 242 742Q277 707 277 659Q277 609 243 574.50Q209 540 159 540M33-206Q-49-206-91-186L-91-27Q-61-42-21-42Q15-42 34.50-25.50Q54-9 54 21L54 516L265 516L265 19Q265-86 204.50-146Q144-206 33-206Z"  horiz-adv-x="318" vert-adv-y="1000"  />

      
      <glyph glyph-name="uni6b" unicode="&#x6b;" d="M260 0L50 0L50 700L260 700L260 334L393 516L634 516L448 284L666 0L409 0L260 209L260 0Z"  horiz-adv-x="655" vert-adv-y="1000"  />

      
      <glyph glyph-name="uni6c" unicode="&#x6c;" d="M205-13Q50-13 50 144L50 700L260 700L260 191Q260 177 268 170Q276 163 287 163Q300 163 312 168L312 7Q270-13 205-13Z"  horiz-adv-x="341" vert-adv-y="1000"  />

      
      <glyph glyph-name="uni6d" unicode="&#x6d;" d="M260 0L50 0L50 516L260 516L260 449Q279 481 321 505Q363 529 409 529Q506 529 547 446Q568 482 613.50 505.50Q659 529 710 529Q785 529 838 476Q890 424 890 322L890 0L679 0L679 283Q679 346 633 346Q596 346 576 316L576 0L365 0L365 283Q365 346 319 346Q283 346 260 314L260 0Z"  horiz-adv-x="931" vert-adv-y="1000"  />

      
      <glyph glyph-name="uni6e" unicode="&#x6e;" d="M260 317L260 0L50 0L50 516L260 516L260 450Q278 478 320 504Q363 529 411 529Q494 529 538 476Q582 423 582 327L582 0L371 0L371 282Q371 313 356.50 329Q342 345 319 345Q284 345 260 317Z"  horiz-adv-x="623" vert-adv-y="1000"  />

      
      <glyph glyph-name="uni6f" unicode="&#x6f;" d="M224 258Q224 258 224 237.50Q224 217 249 191Q274 165 313 165Q352 165 377 191Q402 217 402 258Q402 299 377 324Q352 351 313 351Q274 351 249 324Q224 299 224 258M313-13Q187-13 102 64Q19 141 19 258Q19 375 102 452Q187 529 313 529Q441 529 524 452Q608 376 608 258Q608 140 524 64Q441-13 313-13Z"  horiz-adv-x="626" vert-adv-y="1000"  />

      
      <glyph glyph-name="uni70" unicode="&#x70;" d="M261 58L261-200L50-200L50 516L261 516L261 458Q308 529 402 529Q500 529 565 452Q630 375 630 258Q630 141 565 64Q500-13 402-13Q308-13 261 58M258 317L258 200Q281 162 337 162Q375 162 398.50 189.50Q422 217 422 258Q422 299 398.50 326.50Q375 354 337 354Q280 354 258 317Z"  horiz-adv-x="648" vert-adv-y="1000"  />

      
      <glyph glyph-name="uni71" unicode="&#x71;" d="M599 516L599-200L388-200L388 58Q341-13 247-13Q149-13 84 64Q19 141 19 258Q19 375 84 452Q149 529 247 529Q341 529 388 458L388 516L599 516M391 200L391 317Q369 354 312 354Q274 354 250.50 326.50Q227 299 227 258Q227 217 250.50 189.50Q274 162 312 162Q368 162 391 200Z"  horiz-adv-x="649" vert-adv-y="1000"  />

      
      <glyph glyph-name="uni72" unicode="&#x72;" d="M260 0L50 0L50 516L260 516L260 434Q275 466 321 497Q368 529 421 529Q438 529 449 526L449 328Q415 336 386 336Q302 336 260 291L260 0Z"  horiz-adv-x="473" vert-adv-y="1000"  />

      
      <glyph glyph-name="uni73" unicode="&#x73;" d="M246-13Q108-13 31 32L31 191Q69 169 128 153Q188 137 249 137Q292 137 292 156Q292 165 280 171Q272 176 233 187L179 203Q98 231 61 264Q27 297 27 361Q27 441 94 485Q161 529 279 529Q393 529 482 479L482 324Q444 347 387 363Q327 380 281 380Q246 380 246 362Q246 353 267 343Q274 340 288 336L350 319Q435 292 469.50 257Q504 222 504 158Q504 80 436.50 33.50Q369-13 246-13Z"  horiz-adv-x="522" vert-adv-y="1000"  />

      
      <glyph glyph-name="uni74" unicode="&#x74;" d="M89 154L89 352L8 352L8 516L89 516L89 640L299 640L299 516L416 516L416 352L299 352L299 219Q299 191 311 178.50Q323 166 352 166Q386 166 418 183L418 19Q365-13 279-13Q194-13 141.50 31Q89 75 89 154Z"  horiz-adv-x="448" vert-adv-y="1000"  />

      
      <glyph glyph-name="uni75" unicode="&#x75;" d="M363 199L363 516L573 516L573 0L363 0L363 66Q345 37 302 12Q261-13 212-13Q129-13 85 40Q41 93 41 189L41 516L252 516L252 234Q252 203 266.50 187Q281 171 304 171Q339 171 363 199Z"  horiz-adv-x="623" vert-adv-y="1000"  />

      
      <glyph glyph-name="uni76" unicode="&#x76;" d="M398-4L208-4L-4 516L217 516L306 249L396 516L611 516L398-4Z"  horiz-adv-x="606" vert-adv-y="1000"  />

      
      <glyph glyph-name="uni77" unicode="&#x77;" d="M337-4L161-4L-2 516L201 516L269 274L336 518L496 518L565 275L630 516L833 516L666-4L488-4L411 237L337-4Z"  horiz-adv-x="831" vert-adv-y="1000"  />

      
      <glyph glyph-name="uni78" unicode="&#x78;" d="M9 516L235 516L302 395L368 516L594 516L424 265L602 0L373 0L300 129L225 0L-1 0L179 264L9 516Z"  horiz-adv-x="604" vert-adv-y="1000"  />

      
      <glyph glyph-name="uni79" unicode="&#x79;" d="M170-206Q90-206 46-182L46-1Q84-28 133-28Q166-28 183.50-18.50Q201-9 211 17L0 516L221 516L312 224L394 516L611 516L393-50Q333-206 170-206Z"  horiz-adv-x="611" vert-adv-y="1000"  />

      
      <glyph glyph-name="uni7a" unicode="&#x7a;" d="M521 0L27 0L27 139L231 350L37 350L37 516L505 516L505 372L295 166L521 166L521 0Z"  horiz-adv-x="548" vert-adv-y="1000"  />

      
      <glyph glyph-name="uni7b" unicode="&#x7b;" d="M121 444L121 510Q121 598 174.50 652Q228 706 318 706L419 706L419 547L363 547Q341 547 326 531Q311 515 311 493L311 369Q311 272 217 250Q311 228 311 131L311 7Q311-15 326-31Q341-47 363-47L419-47L419-206L318-206Q228-206 174.50-152Q121-98 121-10L121 56Q121 112 104.50 138Q88 164 44 169L44 331Q88 336 104.50 362Q121 388 121 444Z"  horiz-adv-x="435" vert-adv-y="1000"  />

      
      <glyph glyph-name="uni7c" unicode="&#x7c;" d="M259-111L96-111L96 760L259 760L259-111Z"  horiz-adv-x="355" vert-adv-y="1000"  />

      
      <glyph glyph-name="uni7d" unicode="&#x7d;" d="M314 510L314 444Q314 388 330.50 362Q347 336 391 331L391 169Q347 164 330.50 138Q314 112 314 56L314-10Q314-98 260.50-152Q207-206 117-206L16-206L16-47L72-47Q94-47 109-31Q124-15 124 7L124 131Q124 228 218 250Q124 272 124 369L124 493Q124 515 109 531Q94 547 72 547L16 547L16 706L117 706Q207 706 260.50 652Q314 598 314 510Z"  horiz-adv-x="435" vert-adv-y="1000"  />

      
      <glyph glyph-name="uni7e" unicode="&#x7e;" d="M443 322Q522 322 564 361L564 180Q548 162 513.50 150.50Q479 139 440 139Q394 139 302 166Q214 194 161 194Q82 194 40 155L40 336Q78 377 164 377Q212 377 302 349Q394 322 443 322Z"  horiz-adv-x="604" vert-adv-y="1000"  />

      
      <glyph glyph-name="unia1" unicode="&#xa1;" d="M285 251L314-200L64-200L94 251L285 251M188 283Q138 283 102 319Q66 355 66 407Q66 457 102 493Q138 529 188 529Q239 529 275 493Q311 457 311 407Q311 355 275 319Q239 283 188 283Z"  horiz-adv-x="378" vert-adv-y="1000"  />

      
      <glyph glyph-name="unia2" unicode="&#xa2;" d="M206 513L206 632L381 632L381 524Q412 520 459 500L459 327Q396 350 341 350Q290 350 257 325.50Q224 301 224 258Q224 214 258 189.50Q292 165 345 165Q408 165 465 191L465 20Q422 0 381-7L381-117L206-117L206 2Q121 30 70 96.50Q19 163 19 259Q19 355 69.50 420.50Q120 486 206 513Z"  horiz-adv-x="504" vert-adv-y="1000"  />

      
      <glyph glyph-name="unia3" unicode="&#xa3;" d="M567 0L17 0L17 185L41 185Q109 185 109 232L109 272L17 272L17 421L109 421L109 463Q109 578 183 646Q259 714 385 714Q478 714 543 687L543 490Q496 508 435 508Q323 508 323 421L499 421L499 272L323 272L323 258Q323 226 315.50 209.50Q308 193 288 185L567 185L567 0Z"  horiz-adv-x="587" vert-adv-y="1000"  />

      
      <glyph glyph-name="unia4" unicode="&#xa4;" d="M496 237L562 170L475 82L409 148Q294 87 179 148L113 82L26 170L92 237Q62 289 62 351Q62 413 92 465L26 532L113 620L179 554Q294 615 409 554L475 620L562 532L496 465Q526 413 526 351Q526 289 496 237M206 351Q206 351 206 333Q206 315 232 289Q258 263 294 263Q330 263 356 289Q382 315 382 351Q382 387 356 413Q330 439 294 439Q258 439 232 413Q206 387 206 351Z"  horiz-adv-x="586" vert-adv-y="1000"  />

      
      <glyph glyph-name="unia5" unicode="&#xa5;" d="M57 118L57 241L240 241L240 294L57 294L57 417L192 417L-4 700L227 700L349 503L472 700L698 700L499 417L636 417L636 294L454 294L454 241L636 241L636 118L454 118L454 0L240 0L240 118L57 118Z"  horiz-adv-x="694" vert-adv-y="1000"  />

      
      <glyph glyph-name="unia6" unicode="&#xa6;" d="M259-111L96-111L96 242L259 242L259-111M259 407L96 407L96 760L259 760L259 407Z"  horiz-adv-x="355" vert-adv-y="1000"  />

      
      <glyph glyph-name="unia7" unicode="&#xa7;" d="M642 261Q642 182 559 140Q598 93 598 25Q598-71 518-122Q439-174 312-174Q182-174 83-125L83 52Q133 26 198.50 9Q264-8 320-8Q379-8 379 19Q379 36 353 45Q348 47 324 55L236 79Q141 108 88 145Q20 193 20 279Q20 358 103 400Q64 446 64 515Q64 611 144 662Q223 714 349 714Q415 714 478.50 699.50Q542 685 579 665L579 489Q529 514 465 530Q400 548 342 548Q283 548 283 522Q283 506 309 496L337 486Q398 470 426 461Q522 431 573 395Q642 347 642 261M422 205Q452 211 452 239Q452 259 424 270Q414 275 396 281Q386 285 351.50 295.50Q317 306 312 308Q248 331 240 334Q210 328 210 299Q210 279 237 267L266 256L306 243Q317 240 331.50 235.50Q346 231 350 230Q368 223 422 205Z"  horiz-adv-x="662" vert-adv-y="1000"  />

      
      <glyph glyph-name="unia8" unicode="&#xa8;" d="M284 656Q284 696 313 725Q342 754 383 754Q424 754 453 725Q483 696 483 656Q483 615 453.50 586Q424 557 383 557Q342 557 313 586Q284 615 284 656M150 557Q109 557 79.50 586Q50 615 50 656Q50 696 79 725Q110 754 150 754Q192 754 220.50 725.50Q249 697 249 656Q249 615 220.50 586Q192 557 150 557Z"  horiz-adv-x="515" vert-adv-y="1000"  />

      
      <glyph glyph-name="unia9" unicode="&#xa9;" d="M430 146Q334 146 269 203Q206 260 206 350Q206 440 269 496Q332 553 429 553Q482 553 528 533L528 418Q482 445 431 445Q388 445 359 418Q330 391 330 350Q330 308 359.50 281.50Q389 255 435 255Q494 255 534 284L534 168Q489 146 430 146M397 714Q548 714 652 607Q757 501 757 350Q757 200 651 93Q546-14 394-14Q243-14 138 93Q33 200 33 350Q33 500 139 606Q246 714 397 714M394 26Q532 26 624 121Q716 216 716 353Q716 488 625 580Q534 674 397 674Q259 674 167 579Q75 484 75 347Q75 213 166 119Q258 26 394 26Z"  horiz-adv-x="791" vert-adv-y="1000"  />

      
      <glyph glyph-name="uniaa" unicode="&#xaa;" d="M393 418Q404 418 414 423L414 334Q388 316 349 316Q285 316 261 360Q214 314 139 314Q78 314 40.50 348.50Q3 383 3 438Q3 498 46 529Q89 560 149 560Q208 560 247 539L247 546Q247 609 158 609Q100 609 47 581L47 680Q104 708 187 708Q269 708 319 668Q369 628 369 559L369 440Q369 418 393 418M247 433L247 473Q222 491 187 491Q159 491 141.50 478Q124 465 124 444Q124 424 140 412Q156 400 181 400Q222 400 247 433Z"  horiz-adv-x="415" vert-adv-y="1000"  />

      
      <glyph glyph-name="uniab" unicode="&#xab;" d="M343 29L135 29L12 206L12 309L135 487L343 487L185 258L343 29M610 29L402 29L279 206L279 309L402 487L610 487L452 258L610 29Z"  horiz-adv-x="620" vert-adv-y="1000"  />

      
      <glyph glyph-name="uniac" unicode="&#xac;" d="M540 124L352 124L352 274L40 274L40 457L540 457L540 124Z"  horiz-adv-x="580" vert-adv-y="1000"  />

      
      <glyph glyph-name="uniad" unicode="&#xad;" d="M411 193L74 193L74 376L411 376L411 193Z"  horiz-adv-x="485" vert-adv-y="1000"  />

      
      <glyph glyph-name="uniae" unicode="&#xae;" d="M497 321L614 168L475 168L370 307L353 307L353 168L233 168L233 559L422 559Q488 559 528.50 523.50Q569 488 569 433Q569 356 497 321M353 395L408 395Q445 395 445 427Q445 458 408 458L353 458L353 395M397 714Q548 714 652 607Q757 501 757 350Q757 200 651 93Q546-14 394-14Q243-14 138 93Q33 200 33 350Q33 500 139 606Q246 714 397 714M394 26Q532 26 624 121Q716 216 716 353Q716 488 625 580Q534 674 397 674Q259 674 167 579Q75 484 75 347Q75 213 166 119Q258 26 394 26Z"  horiz-adv-x="791" vert-adv-y="1000"  />

      
      <glyph glyph-name="uniaf" unicode="&#xaf;" d="M423 584L63 584L63 719L423 719L423 584Z"  horiz-adv-x="493" vert-adv-y="1000"  />

      
      <glyph glyph-name="unib0" unicode="&#xb0;" d="M233 551Q233 576 217 593Q201 610 176 610Q152 610 136 593Q120 576 119 551Q120 527 136 510Q152 493 176 493Q200 493 216.50 510Q233 527 233 551M59 665Q108 714 176 714Q244 714 293 665Q343 617 343 551Q343 486 293 436Q244 388 176 388Q108 388 59 436Q10 485 10 551Q10 617 59 665Z"  horiz-adv-x="353" vert-adv-y="1000"  />

      
      <glyph glyph-name="unib1" unicode="&#xb1;" d="M40 371L40 554L217 554L217 700L400 700L400 554L578 554L578 371L400 371L400 226L217 226L217 371L40 371M578 0L40 0L40 171L578 171L578 0Z"  horiz-adv-x="618" vert-adv-y="1000"  />

      
      <glyph glyph-name="unib2" unicode="&#xb2;" d="M320 322L31 322L31 405L131 486Q192 537 192 569Q192 602 147 602Q96 602 46 566L46 680Q90 708 157 708Q216 708 262 674Q308 641 308 584Q308 543 290.50 512Q273 481 227 442L198 418L320 418L320 322Z"  horiz-adv-x="346" vert-adv-y="1000"  />

      
      <glyph glyph-name="unib3" unicode="&#xb3;" d="M141 314Q68 314 16 345L16 450Q78 415 131 415Q158 415 174.50 425Q191 435 191 453Q191 469 177.50 479.50Q164 490 139 490Q97 490 72 477L72 547L148 604L25 604L25 700L288 700L288 614L220 561Q307 530 307 450Q307 388 259 351Q212 314 141 314Z"  horiz-adv-x="321" vert-adv-y="1000"  />

      
      <glyph glyph-name="unib4" unicode="&#xb4;" d="M272 576L101 576L196 734L441 734L272 576Z"  horiz-adv-x="415" vert-adv-y="1000"  />

      
      <glyph glyph-name="unib5" unicode="&#xb5;" d="M372 199L372 516L582 516L582 0L372 0L372 66Q357 42 326.50 21Q296 0 261-8L261-200L50-200L50 516L261 516L261 234Q261 203 275.50 187Q290 171 313 171Q348 171 372 199Z"  horiz-adv-x="632" vert-adv-y="1000"  />

      
      <glyph glyph-name="unib6" unicode="&#xb6;" d="M561 0L347 0L347 260L274 260Q158 260 87 322Q17 383 17 480Q17 577 87 638Q158 700 274 700L561 700L561 0Z"  horiz-adv-x="615" vert-adv-y="1000"  />

      
      <glyph glyph-name="unib7" unicode="&#xb7;" d="M144 519Q194 519 230 483Q266 448 266 397Q266 346 230 310Q194 274 144 274Q94 274 57 310Q21 346 21 397Q21 448 57 483Q93 519 144 519Z"  horiz-adv-x="288" vert-adv-y="1000"  />

      
      <glyph glyph-name="unib8" unicode="&#xb8;" d="M317-159L75-159L213 15L378 15L317-159Z"  horiz-adv-x="520" vert-adv-y="1000"  />

      
      <glyph glyph-name="unib9" unicode="&#xb9;" d="M225 322L110 322L110 583L10 536L10 648L114 700L225 700L225 322Z"  horiz-adv-x="250" vert-adv-y="1000"  />

      
      <glyph glyph-name="uniba" unicode="&#xba;" d="M8 511Q8 511 8 553.50Q8 596 67 652Q126 708 216 708Q306 708 365 652Q424 596 424 511Q424 426 365 370Q306 314 216 314Q126 314 67 370Q8 426 8 511M302 512Q302 550 278 575Q254 600 216 600Q178 600 154.50 575.50Q131 551 131 512Q131 473 154.50 447Q178 421 216 421Q254 421 278 447Q302 473 302 512Z"  horiz-adv-x="432" vert-adv-y="1000"  />

      
      <glyph glyph-name="unibb" unicode="&#xbb;" d="M608 309L608 206L485 29L277 29L435 258L277 487L485 487L608 309M341 309L341 206L218 29L10 29L168 258L10 487L218 487L341 309Z"  horiz-adv-x="620" vert-adv-y="1000"  />

      
      <glyph glyph-name="unibc" unicode="&#xbc;" d="M225 322L110 322L110 583L10 536L10 648L114 700L225 700L225 322M218 0L88 0L516 700L646 700L218 0M710 378L710 173L761 173L761 85L710 85L710 0L599 0L599 85L414 85L414 166L592 378L710 378M528 173L599 173L599 254L528 173Z"  horiz-adv-x="768" vert-adv-y="1000"  />

      
      <glyph glyph-name="unibd" unicode="&#xbd;" d="M225 322L110 322L110 583L10 536L10 648L114 700L225 700L225 322M218 0L88 0L516 700L646 700L218 0M774 0L485 0L485 83L585 164Q646 215 646 247Q646 280 601 280Q550 280 500 244L500 358Q544 386 611 386Q670 386 716 352Q762 319 762 262Q762 221 744.50 190Q727 159 681 120L652 96L774 96L774 0Z"  horiz-adv-x="800" vert-adv-y="1000"  />

      
      <glyph glyph-name="unibe" unicode="&#xbe;" d="M141 314Q68 314 16 345L16 450Q78 415 131 415Q158 415 174.50 425Q191 435 191 453Q191 469 177.50 479.50Q164 490 139 490Q97 490 72 477L72 547L148 604L25 604L25 700L288 700L288 614L220 561Q307 530 307 450Q307 388 259 351Q212 314 141 314M258 0L128 0L556 700L686 700L258 0M750 378L750 173L801 173L801 85L750 85L750 0L639 0L639 85L454 85L454 166L632 378L750 378M568 173L639 173L639 254L568 173Z"  horiz-adv-x="808" vert-adv-y="1000"  />

      
      <glyph glyph-name="unibf" unicode="&#xbf;" d="M182 251L382 251L382 99Q315 89 267 67Q220 47 220 19Q220-21 296-21Q397-21 485 31L485-145Q394-206 264-206Q154-206 80-154Q5-103 5-1Q5 72 57 120Q110 169 182 191L182 251M278 284Q229 284 192 319Q156 355 156 406Q156 457 192 493Q228 529 278 529Q328 529 364 493Q401 457 401 406Q401 355 365 319Q328 284 278 284Z"  horiz-adv-x="502" vert-adv-y="1000"  />

      
      <glyph glyph-name="unic0" unicode="&#xc0;" d="M223 0L1 0L289 704L494 704L783 0L552 0L502 131L274 131L223 0M388 458L336 292L439 292L388 458M143 917L388 917L483 759L312 759L143 917Z"  horiz-adv-x="783" vert-adv-y="1000"  />

      
      <glyph glyph-name="unic1" unicode="&#xc1;" d="M223 0L1 0L289 704L494 704L783 0L552 0L502 131L274 131L223 0M388 458L336 292L439 292L388 458M482 759L311 759L406 917L652 917L482 759Z"  horiz-adv-x="783" vert-adv-y="1000"  />

      
      <glyph glyph-name="unic2" unicode="&#xc2;" d="M223 0L1 0L289 704L494 704L783 0L552 0L502 131L274 131L223 0M388 458L336 292L439 292L388 458M336 760L165 760L297 917L493 917L621 760L447 760L391 821L336 760Z"  horiz-adv-x="783" vert-adv-y="1000"  />

      
      <glyph glyph-name="unic3" unicode="&#xc3;" d="M287 756L187 756Q186 824 224 875Q263 925 324 925Q356 925 393 908Q430 891 452 891Q488 891 497 921L598 921Q598 859 559 805Q521 752 462 752Q425 752 389 770Q355 788 333 788Q298 788 287 756M223 0L1 0L289 704L494 704L783 0L552 0L502 131L274 131L223 0M388 458L336 292L439 292L388 458Z"  horiz-adv-x="783" vert-adv-y="1000"  />

      
      <glyph glyph-name="unic4" unicode="&#xc4;" d="M409 840Q409 880 438 909Q467 938 508 938Q549 938 578 909Q608 880 608 840Q608 799 578.50 770Q549 741 508 741Q467 741 438 770Q409 799 409 840M275 741Q234 741 205 770Q176 799 176 840Q176 880 205 909Q234 938 275 938Q317 938 345.50 909.50Q374 881 374 840Q374 799 345.50 770Q317 741 275 741M223 0L1 0L289 704L494 704L783 0L552 0L502 131L274 131L223 0M388 458L336 292L439 292L388 458Z"  horiz-adv-x="783" vert-adv-y="1000"  />

      
      <glyph glyph-name="unic5" unicode="&#xc5;" d="M283 839Q283 884 315 916Q348 949 393 949Q438 949 469.50 916.50Q501 884 501 839Q501 795 469 763Q437 731 393 731Q349 731 315 763Q283 795 283 839M393 798Q409 798 421 810Q433 822 433 839Q433 856 421 868.50Q409 881 393 881Q376 881 363.50 868.50Q351 856 351 839Q351 823 363.50 810.50Q376 798 393 798M223 0L1 0L289 704L494 704L783 0L552 0L502 131L274 131L223 0M388 458L336 292L439 292L388 458Z"  horiz-adv-x="783" vert-adv-y="1000"  />

      
      <glyph glyph-name="unic6" unicode="&#xc6;" d="M718 283L718 185L1046 185L1046 0L503 0L503 131L294 131L229 0L-3 0L355 700L1040 700L1040 515L718 515L718 453L968 453L968 283L718 283M503 519L487 519L374 292L503 292L503 519Z"  horiz-adv-x="1074" vert-adv-y="1000"  />

      
      <glyph glyph-name="unic7" unicode="&#xc7;" d="M463-159L221-159L342-5Q203 21 118 116Q33 211 33 350Q33 511 146 612Q258 714 432 714Q536 714 609 677L609 474Q524 520 438 520Q358 520 306 471Q254 423 254 350Q254 275 308 227Q363 180 446 180Q548 180 619 230L619 24Q582 3 516-8L463-159Z"  horiz-adv-x="659" vert-adv-y="1000"  />

      
      <glyph glyph-name="unic8" unicode="&#xc8;" d="M608 0L53 0L53 700L602 700L602 515L268 515L268 453L530 453L530 283L268 283L268 185L608 185L608 0M103 917L348 917L443 759L272 759L103 917Z"  horiz-adv-x="636" vert-adv-y="1000"  />

      
      <glyph glyph-name="unic9" unicode="&#xc9;" d="M608 0L53 0L53 700L602 700L602 515L268 515L268 453L530 453L530 283L268 283L268 185L608 185L608 0M380 759L209 759L304 917L550 917L380 759Z"  horiz-adv-x="636" vert-adv-y="1000"  />

      
      <glyph glyph-name="unica" unicode="&#xca;" d="M608 0L53 0L53 700L602 700L602 515L268 515L268 453L530 453L530 283L268 283L268 185L608 185L608 0M274 760L103 760L235 917L431 917L559 760L385 760L329 821L274 760Z"  horiz-adv-x="636" vert-adv-y="1000"  />

      
      <glyph glyph-name="unicb" unicode="&#xcb;" d="M608 0L53 0L53 700L602 700L602 515L268 515L268 453L530 453L530 283L268 283L268 185L608 185L608 0M347 840Q347 880 376 909Q405 938 446 938Q487 938 516 909Q546 880 546 840Q546 799 516.50 770Q487 741 446 741Q405 741 376 770Q347 799 347 840M213 741Q172 741 143 770Q114 799 114 840Q114 880 143 909Q172 938 213 938Q255 938 283.50 909.50Q312 881 312 840Q312 799 283.50 770Q255 741 213 741Z"  horiz-adv-x="636" vert-adv-y="1000"  />

      
      <glyph glyph-name="unicc" unicode="&#xcc;" d="M272 0L57 0L57 700L272 700L272 0M-86 917L159 917L254 759L83 759L-86 917Z"  horiz-adv-x="328" vert-adv-y="1000"  />

      
      <glyph glyph-name="unicd" unicode="&#xcd;" d="M272 0L57 0L57 700L272 700L272 0M252 759L81 759L176 917L422 917L252 759Z"  horiz-adv-x="328" vert-adv-y="1000"  />

      
      <glyph glyph-name="unice" unicode="&#xce;" d="M107 760L-64 760L68 917L264 917L392 760L218 760L162 821L107 760M272 0L57 0L57 700L272 700L272 0Z"  horiz-adv-x="328" vert-adv-y="1000"  />

      
      <glyph glyph-name="unicf" unicode="&#xcf;" d="M181 840Q181 880 210 909Q239 938 280 938Q321 938 350 909Q380 880 380 840Q380 799 350.50 770Q321 741 280 741Q239 741 210 770Q181 799 181 840M47 741Q6 741-23 770Q-52 799-52 840Q-52 880-23 909Q6 938 47 938Q89 938 117.50 909.50Q146 881 146 840Q146 799 117.50 770Q89 741 47 741M272 0L57 0L57 700L272 700L272 0Z"  horiz-adv-x="328" vert-adv-y="1000"  />

      
      <glyph glyph-name="unid0" unicode="&#xd0;" d="M397 0L102 0L102 290L20 290L20 459L102 459L102 700L397 700Q568 700 677 602Q786 505 786 350Q786 194 677 97Q570 0 397 0M316 290L316 185L383 185Q471 185 518 227.50Q565 270 565 350Q565 430 518 472.50Q471 515 383 515L316 515L316 459L431 459L431 290L316 290Z"  horiz-adv-x="820" vert-adv-y="1000"  />

      
      <glyph glyph-name="unid1" unicode="&#xd1;" d="M259 0L53 0L53 700L236 700L504 362L504 700L708 700L708 0L531 0L259 340L259 0M276 756L176 756Q175 824 213 875Q252 925 313 925Q345 925 382 908Q419 891 441 891Q477 891 486 921L587 921Q587 859 548 805Q510 752 451 752Q414 752 378 770Q343 788 322 788Q287 788 276 756Z"  horiz-adv-x="761" vert-adv-y="1000"  />

      
      <glyph glyph-name="unid2" unicode="&#xd2;" d="M297 229Q341 182 408 182Q475 182 519 229Q563 278 563 350Q563 423 519 470Q476 518 408 518Q340 518 297 470Q253 423 253 350Q253 278 297 229M139 93Q33 199 33 350Q33 501 139 607Q246 714 408 714Q569 714 676 607Q782 501 782 350Q782 198 676 92Q570-14 408-14Q246-14 139 93M156 917L401 917L496 759L325 759L156 917Z"  horiz-adv-x="816" vert-adv-y="1000"  />

      
      <glyph glyph-name="unid3" unicode="&#xd3;" d="M297 229Q341 182 408 182Q475 182 519 229Q563 278 563 350Q563 423 519 470Q476 518 408 518Q340 518 297 470Q253 423 253 350Q253 278 297 229M139 93Q33 199 33 350Q33 501 139 607Q246 714 408 714Q569 714 676 607Q782 501 782 350Q782 198 676 92Q570-14 408-14Q246-14 139 93M488 759L317 759L412 917L658 917L488 759Z"  horiz-adv-x="816" vert-adv-y="1000"  />

      
      <glyph glyph-name="unid4" unicode="&#xd4;" d="M297 229Q341 182 408 182Q475 182 519 229Q563 278 563 350Q563 423 519 470Q476 518 408 518Q340 518 297 470Q253 423 253 350Q253 278 297 229M139 93Q33 199 33 350Q33 501 139 607Q246 714 408 714Q569 714 676 607Q782 501 782 350Q782 198 676 92Q570-14 408-14Q246-14 139 93M350 760L179 760L311 917L507 917L635 760L461 760L405 821L350 760Z"  horiz-adv-x="816" vert-adv-y="1000"  />

      
      <glyph glyph-name="unid5" unicode="&#xd5;" d="M297 229Q341 182 408 182Q475 182 519 229Q563 278 563 350Q563 423 519 470Q476 518 408 518Q340 518 297 470Q253 423 253 350Q253 278 297 229M139 93Q33 199 33 350Q33 501 139 607Q246 714 408 714Q569 714 676 607Q782 501 782 350Q782 198 676 92Q570-14 408-14Q246-14 139 93M302 756L202 756Q201 824 239 875Q278 925 339 925Q371 925 408 908Q445 891 467 891Q503 891 512 921L613 921Q613 859 574 805Q536 752 477 752Q440 752 404 770Q369 788 348 788Q313 788 302 756Z"  horiz-adv-x="816" vert-adv-y="1000"  />

      
      <glyph glyph-name="unid6" unicode="&#xd6;" d="M297 229Q341 182 408 182Q475 182 519 229Q563 278 563 350Q563 423 519 470Q476 518 408 518Q340 518 297 470Q253 423 253 350Q253 278 297 229M139 93Q33 199 33 350Q33 501 139 607Q246 714 408 714Q569 714 676 607Q782 501 782 350Q782 198 676 92Q570-14 408-14Q246-14 139 93M424 840Q424 880 453 909Q482 938 523 938Q564 938 593 909Q623 880 623 840Q623 799 593.50 770Q564 741 523 741Q482 741 453 770Q424 799 424 840M290 741Q249 741 220 770Q191 799 191 840Q191 880 220 909Q249 938 290 938Q332 938 360.50 909.50Q389 881 389 840Q389 799 360.50 770Q332 741 290 741Z"  horiz-adv-x="816" vert-adv-y="1000"  />

      
      <glyph glyph-name="unid7" unicode="&#xd7;" d="M306 203L173 68L40 201L175 335L40 469L173 602L307 468L441 602L573 469L440 335L573 201L441 68L306 203Z"  horiz-adv-x="613" vert-adv-y="1000"  />

      
      <glyph glyph-name="unid8" unicode="&#xd8;" d="M191 0L44 0L129 103Q33 206 33 350Q33 501 139 607Q246 714 408 714Q510 714 596 667L622 699L769 699L685 598Q782 494 782 350Q782 198 676 92Q570-14 408-14Q304-14 218 33L191 0M408 175Q478 175 523 224Q569 273 569 350Q569 396 550 435L345 187Q374 175 408 175M247 350Q247 306 264 266L469 513Q440 525 408 525Q339 525 292 475Q247 426 247 350Z"  horiz-adv-x="816" vert-adv-y="1000"  />

      
      <glyph glyph-name="unid9" unicode="&#xd9;" d="M45 290L45 700L260 700L260 289Q260 235 289 208Q318 181 365 181Q412 181 440.50 208Q469 235 469 289L469 700L684 700L684 290Q684 144 593 65Q504-14 365-14Q227-14 136 65Q45 144 45 290M106 917L351 917L446 759L275 759L106 917Z"  horiz-adv-x="729" vert-adv-y="1000"  />

      
      <glyph glyph-name="unida" unicode="&#xda;" d="M45 290L45 700L260 700L260 289Q260 235 289 208Q318 181 365 181Q412 181 440.50 208Q469 235 469 289L469 700L684 700L684 290Q684 144 593 65Q504-14 365-14Q227-14 136 65Q45 144 45 290M438 759L267 759L362 917L608 917L438 759Z"  horiz-adv-x="729" vert-adv-y="1000"  />

      
      <glyph glyph-name="unidb" unicode="&#xdb;" d="M45 290L45 700L260 700L260 289Q260 235 289 208Q318 181 365 181Q412 181 440.50 208Q469 235 469 289L469 700L684 700L684 290Q684 144 593 65Q504-14 365-14Q227-14 136 65Q45 144 45 290M307 760L136 760L268 917L464 917L592 760L418 760L362 821L307 760Z"  horiz-adv-x="729" vert-adv-y="1000"  />

      
      <glyph glyph-name="unidc" unicode="&#xdc;" d="M381 840Q381 880 410 909Q439 938 480 938Q521 938 550 909Q580 880 580 840Q580 799 550.50 770Q521 741 480 741Q439 741 410 770Q381 799 381 840M247 741Q206 741 177 770Q148 799 148 840Q148 880 177 909Q206 938 247 938Q289 938 317.50 909.50Q346 881 346 840Q346 799 317.50 770Q289 741 247 741M45 290L45 700L260 700L260 289Q260 235 289 208Q318 181 365 181Q412 181 440.50 208Q469 235 469 289L469 700L684 700L684 290Q684 144 593 65Q504-14 365-14Q227-14 136 65Q45 144 45 290Z"  horiz-adv-x="729" vert-adv-y="1000"  />

      
      <glyph glyph-name="unidd" unicode="&#xdd;" d="M460 0L245 0L245 306L-10 700L233 700L355 503L479 700L716 700L460 311L460 0M431 759L260 759L355 917L601 917L431 759Z"  horiz-adv-x="706" vert-adv-y="1000"  />

      
      <glyph glyph-name="unide" unicode="&#xde;" d="M268 578L396 578Q517 578 588 514Q661 450 661 350Q661 250 588 186Q517 122 396 122L268 122L268 0L53 0L53 700L268 700L268 578M268 403L268 278L367 278Q400 278 420.50 295.50Q441 313 441 341Q441 369 420 386Q399 403 367 403L268 403Z"  horiz-adv-x="672" vert-adv-y="1000"  />

      
      <glyph glyph-name="unidf" unicode="&#xdf;" d="M398-7Q339-7 306 7L306 160Q324 155 342 155Q373 155 391.50 173Q410 191 410 221Q410 255 386 275Q362 295 322 295L306 295L306 431L320 431Q346 431 360 445.50Q374 460 374 485Q374 509 360 522Q346 535 322 535Q294 535 277 515Q260 495 260 457L260 0L50 0L50 455Q50 580 125 647Q200 716 319 716Q441 716 506 657Q572 598 572 509Q572 458 545 422Q520 387 490 374Q534 360 574 313Q614 266 614 199Q614 100 551 46Q489-7 398-7Z"  horiz-adv-x="632" vert-adv-y="1000"  />

      
      <glyph glyph-name="unie0" unicode="&#xe0;" d="M556 154Q572 154 585 163L585 18Q548-13 481-13Q436-13 398 7Q360 27 347 55Q326 25 285 6Q244-13 194-13Q108-13 59 35Q9 85 9 158Q9 240 69 281Q131 322 207 322Q274 322 323 294Q323 371 220 371Q136 371 72 338L72 495Q155 529 269 529Q385 529 458 470Q530 412 530 316L530 178Q530 154 556 154M326 149L326 203Q305 221 274 221Q247 221 229.50 208Q212 195 212 171Q212 148 228 134Q244 120 269 120Q309 120 326 149M58 734L304 734L399 576L228 576L58 734Z"  horiz-adv-x="611" vert-adv-y="1000"  />

      
      <glyph glyph-name="unie1" unicode="&#xe1;" d="M556 154Q572 154 585 163L585 18Q548-13 481-13Q436-13 398 7Q360 27 347 55Q326 25 285 6Q244-13 194-13Q108-13 59 35Q9 85 9 158Q9 240 69 281Q131 322 207 322Q274 322 323 294Q323 371 220 371Q136 371 72 338L72 495Q155 529 269 529Q385 529 458 470Q530 412 530 316L530 178Q530 154 556 154M326 149L326 203Q305 221 274 221Q247 221 229.50 208Q212 195 212 171Q212 148 228 134Q244 120 269 120Q309 120 326 149M341 576L170 576L265 734L510 734L341 576Z"  horiz-adv-x="611" vert-adv-y="1000"  />

      
      <glyph glyph-name="unie2" unicode="&#xe2;" d="M556 154Q572 154 585 163L585 18Q548-13 481-13Q436-13 398 7Q360 27 347 55Q326 25 285 6Q244-13 194-13Q108-13 59 35Q9 85 9 158Q9 240 69 281Q131 322 207 322Q274 322 323 294Q323 371 220 371Q136 371 72 338L72 495Q155 529 269 529Q385 529 458 470Q530 412 530 316L530 178Q530 154 556 154M326 149L326 203Q305 221 274 221Q247 221 229.50 208Q212 195 212 171Q212 148 228 134Q244 120 269 120Q309 120 326 149M227 577L56 577L188 734L384 734L512 577L338 577L282 638L227 577Z"  horiz-adv-x="611" vert-adv-y="1000"  />

      
      <glyph glyph-name="unie3" unicode="&#xe3;" d="M556 154Q572 154 585 163L585 18Q548-13 481-13Q436-13 398 7Q360 27 347 55Q326 25 285 6Q244-13 194-13Q108-13 59 35Q9 85 9 158Q9 240 69 281Q131 322 207 322Q274 322 323 294Q323 371 220 371Q136 371 72 338L72 495Q155 529 269 529Q385 529 458 470Q530 412 530 316L530 178Q530 154 556 154M326 149L326 203Q305 221 274 221Q247 221 229.50 208Q212 195 212 171Q212 148 228 134Q244 120 269 120Q309 120 326 149M186 572L85 572Q84 640 122 691Q161 741 223 741Q255 741 292 724Q329 707 350 707Q386 707 396 737L496 737Q497 676 458 621Q419 568 360 568Q324 568 288 586Q252 604 231 604Q194 604 186 572Z"  horiz-adv-x="611" vert-adv-y="1000"  />

      
      <glyph glyph-name="unie4" unicode="&#xe4;" d="M556 154Q572 154 585 163L585 18Q548-13 481-13Q436-13 398 7Q360 27 347 55Q326 25 285 6Q244-13 194-13Q108-13 59 35Q9 85 9 158Q9 240 69 281Q131 322 207 322Q274 322 323 294Q323 371 220 371Q136 371 72 338L72 495Q155 529 269 529Q385 529 458 470Q530 412 530 316L530 178Q530 154 556 154M326 149L326 203Q305 221 274 221Q247 221 229.50 208Q212 195 212 171Q212 148 228 134Q244 120 269 120Q309 120 326 149M298 656Q298 696 327 725Q356 754 397 754Q438 754 467 725Q497 696 497 656Q497 615 467.50 586Q438 557 397 557Q356 557 327 586Q298 615 298 656M164 557Q123 557 93.50 586Q64 615 64 656Q64 696 93 725Q124 754 164 754Q206 754 234.50 725.50Q263 697 263 656Q263 615 234.50 586Q206 557 164 557Z"  horiz-adv-x="611" vert-adv-y="1000"  />

      
      <glyph glyph-name="unie5" unicode="&#xe5;" d="M556 154Q572 154 585 163L585 18Q548-13 481-13Q436-13 398 7Q360 27 347 55Q326 25 285 6Q244-13 194-13Q108-13 59 35Q9 85 9 158Q9 240 69 281Q131 322 207 322Q274 322 323 294Q323 371 220 371Q136 371 72 338L72 495Q155 529 269 529Q385 529 458 470Q530 412 530 316L530 178Q530 154 556 154M326 149L326 203Q305 221 274 221Q247 221 229.50 208Q212 195 212 171Q212 148 228 134Q244 120 269 120Q309 120 326 149M169 666Q169 711 201.50 743Q234 775 279 775Q324 775 355.50 743Q387 711 387 666Q387 621 355.50 589Q324 557 279 557Q235 557 201 589Q169 623 169 666M320 666Q320 683 308 695.50Q296 708 279 708Q262 708 249.50 695.50Q237 683 237 666Q237 650 249.50 637.50Q262 625 279 625Q296 625 308 637.50Q320 650 320 666Z"  horiz-adv-x="611" vert-adv-y="1000"  />

      
      <glyph glyph-name="unie6" unicode="&#xe6;" d="M840 261L840 213L512 213Q524 183 561.50 167.50Q599 152 647 152Q740 152 813 191L813 37Q743-13 600-13Q466-13 384 71Q355 35 305 11Q255-13 191-13Q108-13 59 36Q9 86 9 158Q9 240 69 281Q131 322 207 322Q274 322 323 294Q323 371 220 371Q136 371 72 338L72 495Q155 529 255 529Q304 529 351.50 512Q399 495 423 470Q485 529 593 529Q695 529 767 456Q840 384 840 261M269 120Q313 120 332 151Q320 181 316 210Q297 221 274 221Q247 221 229.50 208Q212 195 212 171Q212 148 228 134Q244 120 269 120M508 313L645 313Q644 347 625.50 367.50Q607 388 579 388Q519 388 508 313Z"  horiz-adv-x="863" vert-adv-y="1000"  />

      
      <glyph glyph-name="unie7" unicode="&#xe7;" d="M414 0L358-159L116-159L237-6Q145 13 81 82Q19 150 19 259Q19 346 63 410Q147 529 307 529Q392 529 459 500L459 327Q396 350 341 350Q290 350 257 325.50Q224 301 224 258Q224 214 258 189.50Q292 165 345 165Q408 165 465 191L465 20Q437 8 414 0Z"  horiz-adv-x="504" vert-adv-y="1000"  />

      
      <glyph glyph-name="unie8" unicode="&#xe8;" d="M307-13Q187-13 103 59Q19 133 19 258Q19 374 95 451Q172 529 296 529Q403 529 475 456Q547 384 547 261L547 213L219 213Q231 183 268.50 167.50Q306 152 354 152Q446 152 520 191L520 37Q450-13 307-13M215 313L352 313Q351 347 332.50 367.50Q314 388 286 388Q226 388 215 313M61 734L307 734L402 576L231 576L61 734Z"  horiz-adv-x="570" vert-adv-y="1000"  />

      
      <glyph glyph-name="unie9" unicode="&#xe9;" d="M307-13Q187-13 103 59Q19 133 19 258Q19 374 95 451Q172 529 296 529Q403 529 475 456Q547 384 547 261L547 213L219 213Q231 183 268.50 167.50Q306 152 354 152Q446 152 520 191L520 37Q450-13 307-13M215 313L352 313Q351 347 332.50 367.50Q314 388 286 388Q226 388 215 313M343 576L172 576L267 734L512 734L343 576Z"  horiz-adv-x="570" vert-adv-y="1000"  />

      
      <glyph glyph-name="uniea" unicode="&#xea;" d="M307-13Q187-13 103 59Q19 133 19 258Q19 374 95 451Q172 529 296 529Q403 529 475 456Q547 384 547 261L547 213L219 213Q231 183 268.50 167.50Q306 152 354 152Q446 152 520 191L520 37Q450-13 307-13M215 313L352 313Q351 347 332.50 367.50Q314 388 286 388Q226 388 215 313M225 577L54 577L186 734L382 734L510 577L336 577L280 638L225 577Z"  horiz-adv-x="570" vert-adv-y="1000"  />

      
      <glyph glyph-name="unieb" unicode="&#xeb;" d="M307-13Q187-13 103 59Q19 133 19 258Q19 374 95 451Q172 529 296 529Q403 529 475 456Q547 384 547 261L547 213L219 213Q231 183 268.50 167.50Q306 152 354 152Q446 152 520 191L520 37Q450-13 307-13M215 313L352 313Q351 347 332.50 367.50Q314 388 286 388Q226 388 215 313M304 656Q304 696 333 725Q362 754 403 754Q444 754 473 725Q503 696 503 656Q503 615 473.50 586Q444 557 403 557Q362 557 333 586Q304 615 304 656M170 557Q129 557 99.50 586Q70 615 70 656Q70 696 99 725Q130 754 170 754Q212 754 240.50 725.50Q269 697 269 656Q269 615 240.50 586Q212 557 170 557Z"  horiz-adv-x="570" vert-adv-y="1000"  />

      
      <glyph glyph-name="uniec" unicode="&#xec;" d="M264 0L53 0L53 516L264 516L264 0M-95 734L151 734L246 576L75 576L-95 734Z"  horiz-adv-x="318" vert-adv-y="1000"  />

      
      <glyph glyph-name="unied" unicode="&#xed;" d="M242 577L72 577L166 734L409 734L242 577M264 0L53 0L53 516L264 516L264 0Z"  horiz-adv-x="318" vert-adv-y="1000"  />

      
      <glyph glyph-name="uniee" unicode="&#xee;" d="M101 577L-70 577L62 734L258 734L386 577L212 577L156 638L101 577M264 0L53 0L53 516L264 516L264 0Z"  horiz-adv-x="318" vert-adv-y="1000"  />

      
      <glyph glyph-name="unief" unicode="&#xef;" d="M177 656Q177 696 206 725Q235 754 276 754Q317 754 346 725Q376 696 376 656Q376 615 346.50 586Q317 557 276 557Q235 557 206 586Q177 615 177 656M43 557Q2 557-27.50 586Q-57 615-57 656Q-57 696-27 725Q2 754 43 754Q85 754 113.50 725.50Q142 697 142 656Q142 615 113.50 586Q85 557 43 557M264 0L53 0L53 516L264 516L264 0Z"  horiz-adv-x="318" vert-adv-y="1000"  />

      
      <glyph glyph-name="unif0" unicode="&#xf0;" d="M355 658L440 689L516 603L428 571L448 548Q527 452 554 394Q584 334 584 256Q584 143 503 65Q422-13 301-13Q181-13 99 58Q19 130 19 235Q19 338 79 397Q141 456 235 456Q291 456 320 437L258 510L145 470L69 556L184 597L98 700L320 700L355 658M379 240Q379 273 357 295Q335 317 301 317Q267 317 244.50 295Q222 273 222 240Q222 206 244.50 184Q267 162 301 162Q335 162 357 184Q379 206 379 240Z"  horiz-adv-x="602" vert-adv-y="1000"  />

      
      <glyph glyph-name="unif1" unicode="&#xf1;" d="M50 0L50 516L260 516L260 450Q278 478 320 504Q363 529 411 529Q494 529 538 476Q582 423 582 327L582 0L371 0L371 282Q371 313 356.50 329Q342 345 319 345Q284 345 260 317L260 0L50 0M212 572L111 572Q110 640 148 691Q187 741 249 741Q281 741 318 724Q355 707 376 707Q412 707 422 737L522 737Q523 676 484 621Q445 568 386 568Q350 568 314 586Q278 604 257 604Q220 604 212 572Z"  horiz-adv-x="623" vert-adv-y="1000"  />

      
      <glyph glyph-name="unif2" unicode="&#xf2;" d="M224 258Q224 258 224 237.50Q224 217 249 191Q274 165 313 165Q352 165 377 191Q402 217 402 258Q402 299 377 324Q352 351 313 351Q274 351 249 324Q224 299 224 258M313-13Q187-13 102 64Q19 141 19 258Q19 375 102 452Q187 529 313 529Q441 529 524 452Q608 376 608 258Q608 140 524 64Q441-13 313-13M62 734L308 734L403 576L232 576L62 734Z"  horiz-adv-x="626" vert-adv-y="1000"  />

      
      <glyph glyph-name="unif3" unicode="&#xf3;" d="M224 258Q224 258 224 237.50Q224 217 249 191Q274 165 313 165Q352 165 377 191Q402 217 402 258Q402 299 377 324Q352 351 313 351Q274 351 249 324Q224 299 224 258M313-13Q187-13 102 64Q19 141 19 258Q19 375 102 452Q187 529 313 529Q441 529 524 452Q608 376 608 258Q608 140 524 64Q441-13 313-13M389 576L218 576L313 734L558 734L389 576Z"  horiz-adv-x="626" vert-adv-y="1000"  />

      
      <glyph glyph-name="unif4" unicode="&#xf4;" d="M224 258Q224 258 224 237.50Q224 217 249 191Q274 165 313 165Q352 165 377 191Q402 217 402 258Q402 299 377 324Q352 351 313 351Q274 351 249 324Q224 299 224 258M313-13Q187-13 102 64Q19 141 19 258Q19 375 102 452Q187 529 313 529Q441 529 524 452Q608 376 608 258Q608 140 524 64Q441-13 313-13M256 577L85 577L217 734L413 734L541 577L367 577L311 638L256 577Z"  horiz-adv-x="626" vert-adv-y="1000"  />

      
      <glyph glyph-name="unif5" unicode="&#xf5;" d="M224 258Q224 258 224 237.50Q224 217 249 191Q274 165 313 165Q352 165 377 191Q402 217 402 258Q402 299 377 324Q352 351 313 351Q274 351 249 324Q224 299 224 258M313-13Q187-13 102 64Q19 141 19 258Q19 375 102 452Q187 529 313 529Q441 529 524 452Q608 376 608 258Q608 140 524 64Q441-13 313-13M209 572L108 572Q107 640 145 691Q184 741 246 741Q278 741 315 724Q352 707 373 707Q408 707 419 737L519 737Q520 676 481 621Q442 568 383 568Q347 568 311 586Q275 604 254 604Q217 604 209 572Z"  horiz-adv-x="626" vert-adv-y="1000"  />

      
      <glyph glyph-name="unif6" unicode="&#xf6;" d="M224 258Q224 258 224 237.50Q224 217 249 191Q274 165 313 165Q352 165 377 191Q402 217 402 258Q402 299 377 324Q352 351 313 351Q274 351 249 324Q224 299 224 258M313-13Q187-13 102 64Q19 141 19 258Q19 375 102 452Q187 529 313 529Q441 529 524 452Q608 376 608 258Q608 140 524 64Q441-13 313-13M331 656Q331 696 360 725Q389 754 430 754Q471 754 500 725Q530 696 530 656Q530 615 500.50 586Q471 557 430 557Q389 557 360 586Q331 615 331 656M197 557Q156 557 126.50 586Q97 615 97 656Q97 696 126 725Q157 754 197 754Q239 754 267.50 725.50Q296 697 296 656Q296 615 267.50 586Q239 557 197 557Z"  horiz-adv-x="626" vert-adv-y="1000"  />

      
      <glyph glyph-name="unif7" unicode="&#xf7;" d="M192 583Q192 634 228 669Q264 705 314 705Q364 705 399 669Q435 634 435 583Q435 533 399 497Q364 462 314 462Q265 462 228 497Q192 533 192 583M586 245L40 245L40 428L586 428L586 245M192 89Q192 140 228 175Q264 211 314 211Q364 211 399 175Q435 140 435 89Q435 39 399 3Q364-32 314-32Q264-32 228 4Q192 40 192 89Z"  horiz-adv-x="626" vert-adv-y="1000"  />

      
      <glyph glyph-name="unif8" unicode="&#xf8;" d="M483 521L603 521L534 442Q608 365 608 258Q608 140 524 64Q441-13 313-13Q232-13 165 20L143-5L23-5L92 74Q19 148 19 258Q19 375 102 452Q187 529 313 529Q396 529 461 495L483 521M313 153Q357 153 385 183Q413 213 413 258Q413 276 406 296L284 156Q298 153 313 153M213 258Q213 237 219 219L341 358Q330 362 313 362Q269 362 241 332.50Q213 303 213 258Z"  horiz-adv-x="626" vert-adv-y="1000"  />

      
      <glyph glyph-name="unif9" unicode="&#xf9;" d="M363 199L363 516L573 516L573 0L363 0L363 66Q345 37 302 12Q261-13 212-13Q129-13 85 40Q41 93 41 189L41 516L252 516L252 234Q252 203 266.50 187Q281 171 304 171Q339 171 363 199M77 734L323 734L418 576L247 576L77 734Z"  horiz-adv-x="623" vert-adv-y="1000"  />

      
      <glyph glyph-name="unifa" unicode="&#xfa;" d="M363 199L363 516L573 516L573 0L363 0L363 66Q345 37 302 12Q261-13 212-13Q129-13 85 40Q41 93 41 189L41 516L252 516L252 234Q252 203 266.50 187Q281 171 304 171Q339 171 363 199M370 576L199 576L294 734L539 734L370 576Z"  horiz-adv-x="623" vert-adv-y="1000"  />

      
      <glyph glyph-name="unifb" unicode="&#xfb;" d="M363 199L363 516L573 516L573 0L363 0L363 66Q345 37 302 12Q261-13 212-13Q129-13 85 40Q41 93 41 189L41 516L252 516L252 234Q252 203 266.50 187Q281 171 304 171Q339 171 363 199M249 577L78 577L210 734L406 734L534 577L360 577L304 638L249 577Z"  horiz-adv-x="623" vert-adv-y="1000"  />

      
      <glyph glyph-name="unifc" unicode="&#xfc;" d="M363 199L363 516L573 516L573 0L363 0L363 66Q345 37 302 12Q261-13 212-13Q129-13 85 40Q41 93 41 189L41 516L252 516L252 234Q252 203 266.50 187Q281 171 304 171Q339 171 363 199M325 656Q325 696 354 725Q383 754 424 754Q465 754 494 725Q524 696 524 656Q524 615 494.50 586Q465 557 424 557Q383 557 354 586Q325 615 325 656M191 557Q150 557 120.50 586Q91 615 91 656Q91 696 120 725Q151 754 191 754Q233 754 261.50 725.50Q290 697 290 656Q290 615 261.50 586Q233 557 191 557Z"  horiz-adv-x="623" vert-adv-y="1000"  />

      
      <glyph glyph-name="unifd" unicode="&#xfd;" d="M170-206Q90-206 46-182L46-1Q84-28 133-28Q166-28 183.50-18.50Q201-9 211 17L0 516L221 516L312 224L394 516L611 516L393-50Q333-206 170-206M380 576L209 576L304 734L549 734L380 576Z"  horiz-adv-x="611" vert-adv-y="1000"  />

      
      <glyph glyph-name="unife" unicode="&#xfe;" d="M50-200L50 700L261 700L261 458Q308 529 402 529Q500 529 565 452Q630 375 630 258Q630 141 565 64Q500-13 402-13Q308-13 261 58L261-200L50-200M258 316L258 199Q280 162 337 162Q375 162 398.50 189.50Q422 217 422 258Q422 299 398.50 326.50Q375 354 337 354Q281 354 258 316Z"  horiz-adv-x="648" vert-adv-y="1000"  />

      
      <glyph glyph-name="uniff" unicode="&#xff;" d="M325 656Q325 696 354 725Q383 754 424 754Q465 754 494 725Q524 696 524 656Q524 615 494.50 586Q465 557 424 557Q383 557 354 586Q325 615 325 656M191 557Q150 557 120.50 586Q91 615 91 656Q91 696 120 725Q151 754 191 754Q233 754 261.50 725.50Q290 697 290 656Q290 615 261.50 586Q233 557 191 557M170-206Q90-206 46-182L46-1Q84-28 133-28Q166-28 183.50-18.50Q201-9 211 17L0 516L221 516L312 224L394 516L611 516L393-50Q333-206 170-206Z"  horiz-adv-x="611" vert-adv-y="1000"  />

      
      <glyph glyph-name="uni0100" unicode="&#x0100;" d="M223 0L1 0L289 704L494 704L783 0L552 0L502 131L274 131L223 0M388 458L336 292L439 292L388 458M572 768L212 768L212 903L572 903L572 768Z"  horiz-adv-x="783" vert-adv-y="1000"  />

      
      <glyph glyph-name="uni0101" unicode="&#x0101;" d="M556 154Q572 154 585 163L585 18Q548-13 481-13Q436-13 398 7Q360 27 347 55Q326 25 285 6Q244-13 194-13Q108-13 59 35Q9 85 9 158Q9 240 69 281Q131 322 207 322Q274 322 323 294Q323 371 220 371Q136 371 72 338L72 495Q155 529 269 529Q385 529 458 470Q530 412 530 316L530 178Q530 154 556 154M326 149L326 203Q305 221 274 221Q247 221 229.50 208Q212 195 212 171Q212 148 228 134Q244 120 269 120Q309 120 326 149M469 584L109 584L109 719L469 719L469 584Z"  horiz-adv-x="611" vert-adv-y="1000"  />

      
      <glyph glyph-name="uni0102" unicode="&#x0102;" d="M223 0L1 0L289 704L494 704L783 0L552 0L502 131L274 131L223 0M388 458L336 292L439 292L388 458M393 744Q311 744 258.50 791.50Q206 839 203 923L331 923Q338 862 393 862Q419 862 435 878.50Q451 895 453 923L581 923Q577 839 525.50 791.50Q474 744 393 744Z"  horiz-adv-x="783" vert-adv-y="1000"  />

      
      <glyph glyph-name="uni0103" unicode="&#x0103;" d="M556 154Q572 154 585 163L585 18Q548-13 481-13Q436-13 398 7Q360 27 347 55Q326 25 285 6Q244-13 194-13Q108-13 59 35Q9 85 9 158Q9 240 69 281Q131 322 207 322Q274 322 323 294Q323 371 220 371Q136 371 72 338L72 495Q155 529 269 529Q385 529 458 470Q530 412 530 316L530 178Q530 154 556 154M326 149L326 203Q305 221 274 221Q247 221 229.50 208Q212 195 212 171Q212 148 228 134Q244 120 269 120Q309 120 326 149M93 740L220 740Q227 679 282 679Q309 679 325 695.50Q341 712 343 740L471 740Q467 656 415 608.50Q363 561 282 561Q202 561 149 607Q96 654 93 740Z"  horiz-adv-x="611" vert-adv-y="1000"  />

      
      <glyph glyph-name="uni0104" unicode="&#x0104;" d="M752-209Q685-209 646-179Q607-149 607-101Q607-70 622.50-42.50Q638-15 657 0L552 0L502 131L274 131L223 0L1 0L289 704L494 704L783 0Q773-9 762-27.50Q751-46 751-58Q751-86 788-86Q811-86 822-78L822-200Q798-209 752-209M388 458L336 292L439 292L388 458Z"  horiz-adv-x="783" vert-adv-y="1000"  />

      
      <glyph glyph-name="uni0105" unicode="&#x0105;" d="M554-191Q487-191 448-161Q409-131 409-83Q409-45 435-7Q404 0 380 17Q356 34 347 55Q326 25 285 6Q244-13 194-13Q108-13 59 35Q9 85 9 158Q9 240 69 281Q131 322 207 322Q274 322 323 294Q323 371 220 371Q136 371 72 338L72 495Q155 529 269 529Q385 529 458 470Q530 412 530 316L530 178Q530 154 556 154Q572 154 585 163L585 18Q575 9 564-9.50Q553-28 553-40Q553-68 590-68Q613-68 624-60L624-182Q600-191 554-191M326 149L326 203Q305 221 274 221Q247 221 229.50 208Q212 195 212 171Q212 148 228 134Q244 120 269 120Q309 120 326 149Z"  horiz-adv-x="597" vert-adv-y="1000"  />

      
      <glyph glyph-name="uni0106" unicode="&#x0106;" d="M434-14Q262-14 147 87Q33 189 33 350Q33 511 146 612Q258 714 432 714Q536 714 609 677L609 474Q524 520 438 520Q358 520 306 471Q254 423 254 350Q254 275 308 227Q363 180 446 180Q548 180 619 230L619 24Q546-14 434-14M447 759L276 759L371 917L617 917L447 759Z"  horiz-adv-x="659" vert-adv-y="1000"  />

      
      <glyph glyph-name="uni0107" unicode="&#x0107;" d="M305-13Q233-13 170 15Q106 44 63 108Q19 173 19 259Q19 346 63 410Q147 529 307 529Q392 529 459 500L459 327Q396 350 341 350Q290 350 257 325.50Q224 301 224 258Q224 214 258 189.50Q292 165 345 165Q408 165 465 191L465 20Q388-13 305-13M319 576L148 576L243 734L488 734L319 576Z"  horiz-adv-x="504" vert-adv-y="1000"  />

      
      <glyph glyph-name="uni0108" unicode="&#x0108;" d="M434-14Q262-14 147 87Q33 189 33 350Q33 511 146 612Q258 714 432 714Q536 714 609 677L609 474Q524 520 438 520Q358 520 306 471Q254 423 254 350Q254 275 308 227Q363 180 446 180Q548 180 619 230L619 24Q546-14 434-14M325 760L154 760L286 917L482 917L610 760L436 760L380 821L325 760Z"  horiz-adv-x="659" vert-adv-y="1000"  />

      
      <glyph glyph-name="uni0109" unicode="&#x0109;" d="M305-13Q233-13 170 15Q106 44 63 108Q19 173 19 259Q19 346 63 410Q147 529 307 529Q392 529 459 500L459 327Q396 350 341 350Q290 350 257 325.50Q224 301 224 258Q224 214 258 189.50Q292 165 345 165Q408 165 465 191L465 20Q388-13 305-13M211 577L40 577L172 734L368 734L496 577L322 577L266 638L211 577Z"  horiz-adv-x="504" vert-adv-y="1000"  />

      
      <glyph glyph-name="uni010A" unicode="&#x010A;" d="M434-14Q262-14 147 87Q33 189 33 350Q33 511 146 612Q258 714 432 714Q536 714 609 677L609 474Q524 520 438 520Q358 520 306 471Q254 423 254 350Q254 275 308 227Q363 180 446 180Q548 180 619 230L619 24Q546-14 434-14M398 741Q357 741 328 770Q299 799 299 840Q299 881 328 909.50Q357 938 398 938Q440 938 468.50 909.50Q497 881 497 840Q497 799 468.50 770Q440 741 398 741Z"  horiz-adv-x="659" vert-adv-y="1000"  />

      
      <glyph glyph-name="uni010B" unicode="&#x010B;" d="M305-13Q233-13 170 15Q106 44 63 108Q19 173 19 259Q19 346 63 410Q147 529 307 529Q392 529 459 500L459 327Q396 350 341 350Q290 350 257 325.50Q224 301 224 258Q224 214 258 189.50Q292 165 345 165Q408 165 465 191L465 20Q388-13 305-13M288 556Q247 556 217.50 585Q188 614 188 655Q188 696 217.50 724.50Q247 753 288 753Q330 753 358.50 724.50Q387 696 387 655Q387 614 358.50 585Q330 556 288 556Z"  horiz-adv-x="504" vert-adv-y="1000"  />

      
      <glyph glyph-name="uni010C" unicode="&#x010C;" d="M434-14Q262-14 147 87Q33 189 33 350Q33 511 146 612Q258 714 432 714Q536 714 609 677L609 474Q524 520 438 520Q358 520 306 471Q254 423 254 350Q254 275 308 227Q363 180 446 180Q548 180 619 230L619 24Q546-14 434-14M442 917L612 917L481 760L285 760L156 917L331 917L387 856L442 917Z"  horiz-adv-x="659" vert-adv-y="1000"  />

      
      <glyph glyph-name="uni010D" unicode="&#x010D;" d="M305-13Q233-13 170 15Q106 44 63 108Q19 173 19 259Q19 346 63 410Q147 529 307 529Q392 529 459 500L459 327Q396 350 341 350Q290 350 257 325.50Q224 301 224 258Q224 214 258 189.50Q292 165 345 165Q408 165 465 191L465 20Q388-13 305-13M343 733L514 733L382 576L186 576L57 733L232 733L288 671L343 733Z"  horiz-adv-x="504" vert-adv-y="1000"  />

      
      <glyph glyph-name="uni010E" unicode="&#x010E;" d="M348 0L53 0L53 700L348 700Q519 700 629 602Q738 505 738 350Q738 195 629 98Q519 0 348 0M268 515L268 185L334 185Q422 185 469 227.50Q516 270 516 350Q516 430 469 472.50Q422 515 334 515L268 515M409 917L579 917L448 760L252 760L123 917L298 917L354 856L409 917Z"  horiz-adv-x="772" vert-adv-y="1000"  />

      
      <glyph glyph-name="uni010F" unicode="&#x010F;" d="M388 458L388 700L599 700L599 0L388 0L388 58Q341-13 247-13Q149-13 84 64Q19 141 19 258Q19 375 84 452Q149 529 247 529Q341 529 388 458M391 199L391 316Q368 354 312 354Q274 354 250.50 326.50Q227 299 227 258Q227 217 250.50 189.50Q274 162 312 162Q369 162 391 199M803 469L649 469L710 700L887 700L803 469Z"  horiz-adv-x="867" vert-adv-y="1000"  />

      
      <glyph glyph-name="uni0110" unicode="&#x0110;" d="M397 0L102 0L102 290L20 290L20 459L102 459L102 700L397 700Q568 700 677 602Q786 505 786 350Q786 194 677 97Q570 0 397 0M316 290L316 185L383 185Q471 185 518 227.50Q565 270 565 350Q565 430 518 472.50Q471 515 383 515L316 515L316 459L431 459L431 290L316 290Z"  horiz-adv-x="820" vert-adv-y="1000"  />

      
      <glyph glyph-name="uni0111" unicode="&#x0111;" d="M388 571L269 571L269 646L388 646L388 700L599 700L599 646L686 646L686 571L599 571L599 0L388 0L388 58Q341-13 247-13Q149-13 84 64Q19 141 19 258Q19 375 84 452Q149 529 247 529Q341 529 388 458L388 571M391 199L391 316Q368 354 312 354Q274 354 250.50 326.50Q227 299 227 258Q227 217 250.50 189.50Q274 162 312 162Q369 162 391 199Z"  horiz-adv-x="666" vert-adv-y="1000"  />

      
      <glyph glyph-name="uni0112" unicode="&#x0112;" d="M608 0L53 0L53 700L602 700L602 515L268 515L268 453L530 453L530 283L268 283L268 185L608 185L608 0M511 768L151 768L151 903L511 903L511 768Z"  horiz-adv-x="636" vert-adv-y="1000"  />

      
      <glyph glyph-name="uni0113" unicode="&#x0113;" d="M307-13Q187-13 103 59Q19 133 19 258Q19 374 95 451Q172 529 296 529Q403 529 475 456Q547 384 547 261L547 213L219 213Q231 183 268.50 167.50Q306 152 354 152Q446 152 520 191L520 37Q450-13 307-13M215 313L352 313Q351 347 332.50 367.50Q314 388 286 388Q226 388 215 313M472 584L112 584L112 719L472 719L472 584Z"  horiz-adv-x="570" vert-adv-y="1000"  />

      
      <glyph glyph-name="uni0114" unicode="&#x0114;" d="M608 0L53 0L53 700L602 700L602 515L268 515L268 453L530 453L530 283L268 283L268 185L608 185L608 0M332 744Q250 744 197.50 791.50Q145 839 142 923L270 923Q277 862 332 862Q358 862 374 878.50Q390 895 392 923L520 923Q516 839 464.50 791.50Q413 744 332 744Z"  horiz-adv-x="636" vert-adv-y="1000"  />

      
      <glyph glyph-name="uni0115" unicode="&#x0115;" d="M307-13Q187-13 103 59Q19 133 19 258Q19 374 95 451Q172 529 296 529Q403 529 475 456Q547 384 547 261L547 213L219 213Q231 183 268.50 167.50Q306 152 354 152Q446 152 520 191L520 37Q450-13 307-13M215 313L352 313Q351 347 332.50 367.50Q314 388 286 388Q226 388 215 313M104 740L231 740Q238 679 293 679Q320 679 336 695.50Q352 712 354 740L482 740Q478 656 426 608.50Q374 561 293 561Q213 561 160 607Q107 654 104 740Z"  horiz-adv-x="570" vert-adv-y="1000"  />

      
      <glyph glyph-name="uni0116" unicode="&#x0116;" d="M608 0L53 0L53 700L602 700L602 515L268 515L268 453L530 453L530 283L268 283L268 185L608 185L608 0M331 741Q290 741 261 770Q232 799 232 840Q232 881 261 909.50Q290 938 331 938Q373 938 401.50 909.50Q430 881 430 840Q430 799 401.50 770Q373 741 331 741Z"  horiz-adv-x="636" vert-adv-y="1000"  />

      
      <glyph glyph-name="uni0117" unicode="&#x0117;" d="M307-13Q187-13 103 59Q19 133 19 258Q19 374 95 451Q172 529 296 529Q403 529 475 456Q547 384 547 261L547 213L219 213Q231 183 268.50 167.50Q306 152 354 152Q446 152 520 191L520 37Q450-13 307-13M215 313L352 313Q351 347 332.50 367.50Q314 388 286 388Q226 388 215 313M281 556Q240 556 210.50 585Q181 614 181 655Q181 696 210.50 724.50Q240 753 281 753Q323 753 351.50 724.50Q380 696 380 655Q380 614 351.50 585Q323 556 281 556Z"  horiz-adv-x="570" vert-adv-y="1000"  />

      
      <glyph glyph-name="uni0118" unicode="&#x0118;" d="M482 0L53 0L53 700L602 700L602 515L268 515L268 453L530 453L530 283L268 283L268 185L608 185L608 0Q598-9 587-27.50Q576-46 576-58Q576-86 613-86Q636-86 647-78L647-200Q623-209 577-209Q510-209 471-179Q432-149 432-101Q432-70 447.50-42.50Q463-15 482 0Z"  horiz-adv-x="647" vert-adv-y="1000"  />

      
      <glyph glyph-name="uni0119" unicode="&#x0119;" d="M489-172Q422-172 383-142Q344-112 344-64Q344-38 357-11Q315-13 307-13Q187-13 103 59Q19 133 19 258Q19 374 95 451Q172 529 296 529Q403 529 475 456Q547 384 547 261L547 213L219 213Q231 183 268.50 167.50Q306 152 354 152Q446 152 520 191L520 37Q510 28 499 9.50Q488-9 488-21Q488-49 525-49Q548-49 559-41L559-163Q535-172 489-172M215 313L352 313Q351 347 332.50 367.50Q314 388 286 388Q226 388 215 313Z"  horiz-adv-x="570" vert-adv-y="1000"  />

      
      <glyph glyph-name="uni011A" unicode="&#x011A;" d="M608 0L53 0L53 700L602 700L602 515L268 515L268 453L530 453L530 283L268 283L268 185L608 185L608 0M389 917L559 917L428 760L232 760L103 917L278 917L334 856L389 917Z"  horiz-adv-x="636" vert-adv-y="1000"  />

      
      <glyph glyph-name="uni011B" unicode="&#x011B;" d="M307-13Q187-13 103 59Q19 133 19 258Q19 374 95 451Q172 529 296 529Q403 529 475 456Q547 384 547 261L547 213L219 213Q231 183 268.50 167.50Q306 152 354 152Q446 152 520 191L520 37Q450-13 307-13M215 313L352 313Q351 347 332.50 367.50Q314 388 286 388Q226 388 215 313M349 733L520 733L388 576L192 576L63 733L238 733L294 671L349 733Z"  horiz-adv-x="570" vert-adv-y="1000"  />

      
      <glyph glyph-name="uni011C" unicode="&#x011C;" d="M422-14Q258-14 145 88Q33 190 33 350Q33 511 146 612Q258 714 431 714Q481 714 516 707Q556 699 574 692Q599 683 629 670L629 473Q560 508 490.50 516Q421 524 368.50 506.50Q316 489 284 447Q252 405 254 347Q254 265 303 219Q352 173 422 173Q476 173 505 193L505 408L721 408L721 93Q679 48 598 17Q517-14 422-14M336 760L165 760L297 917L493 917L621 760L447 760L391 821L336 760Z"  horiz-adv-x="751" vert-adv-y="1000"  />

      
      <glyph glyph-name="uni011D" unicode="&#x011D;" d="M381 460L381 516L592 516L592 84Q592 25 572.50-24.50Q553-74 521.50-106.50Q490-139 448-162Q406-185 363-195.50Q320-206 276-206Q139-206 70-164L70 17Q155-33 253-33Q381-33 381 69L381 100Q330 31 238 31Q141 31 80 101Q19 171 19 280Q19 389 80 459Q141 529 238 529Q328 529 381 460M384 234L384 326Q357 357 304 357Q269 357 248 335.50Q227 314 227 280Q227 246 248 224.50Q269 203 304 203Q357 203 384 234M261 577L90 577L222 734L418 734L546 577L372 577L316 638L261 577Z"  horiz-adv-x="634" vert-adv-y="1000"  />

      
      <glyph glyph-name="uni011E" unicode="&#x011E;" d="M422-14Q258-14 145 88Q33 190 33 350Q33 511 146 612Q258 714 431 714Q481 714 516 707Q556 699 574 692Q599 683 629 670L629 473Q560 508 490.50 516Q421 524 368.50 506.50Q316 489 284 447Q252 405 254 347Q254 265 303 219Q352 173 422 173Q476 173 505 193L505 408L721 408L721 93Q679 48 598 17Q517-14 422-14M404 764Q322 764 269.50 811.50Q217 859 214 943L342 943Q349 882 404 882Q430 882 446 898.50Q462 915 464 943L592 943Q588 859 536.50 811.50Q485 764 404 764Z"  horiz-adv-x="751" vert-adv-y="1000"  />

      
      <glyph glyph-name="uni011F" unicode="&#x011F;" d="M381 460L381 516L592 516L592 84Q592 25 572.50-24.50Q553-74 521.50-106.50Q490-139 448-162Q406-185 363-195.50Q320-206 276-206Q139-206 70-164L70 17Q155-33 253-33Q381-33 381 69L381 100Q330 31 238 31Q141 31 80 101Q19 171 19 280Q19 389 80 459Q141 529 238 529Q328 529 381 460M384 234L384 326Q357 357 304 357Q269 357 248 335.50Q227 314 227 280Q227 246 248 224.50Q269 203 304 203Q357 203 384 234M134 740L261 740Q268 679 323 679Q350 679 366 695.50Q382 712 384 740L512 740Q508 656 456 608.50Q404 561 323 561Q243 561 190 607Q137 654 134 740Z"  horiz-adv-x="634" vert-adv-y="1000"  />

      
      <glyph glyph-name="uni0120" unicode="&#x0120;" d="M422-14Q258-14 145 88Q33 190 33 350Q33 511 146 612Q258 714 431 714Q481 714 516 707Q556 699 574 692Q599 683 629 670L629 473Q560 508 490.50 516Q421 524 368.50 506.50Q316 489 284 447Q252 405 254 347Q254 265 303 219Q352 173 422 173Q476 173 505 193L505 408L721 408L721 93Q679 48 598 17Q517-14 422-14M404 741Q363 741 334 770Q305 799 305 840Q305 881 334 909.50Q363 938 404 938Q446 938 474.50 909.50Q503 881 503 840Q503 799 474.50 770Q446 741 404 741Z"  horiz-adv-x="751" vert-adv-y="1000"  />

      
      <glyph glyph-name="uni0121" unicode="&#x0121;" d="M381 460L381 516L592 516L592 84Q592 25 572.50-24.50Q553-74 521.50-106.50Q490-139 448-162Q406-185 363-195.50Q320-206 276-206Q139-206 70-164L70 17Q155-33 253-33Q381-33 381 69L381 100Q330 31 238 31Q141 31 80 101Q19 171 19 280Q19 389 80 459Q141 529 238 529Q328 529 381 460M384 234L384 326Q357 357 304 357Q269 357 248 335.50Q227 314 227 280Q227 246 248 224.50Q269 203 304 203Q357 203 384 234M303 556Q262 556 232.50 585Q203 614 203 655Q203 696 232.50 724.50Q262 753 303 753Q345 753 373.50 724.50Q402 696 402 655Q402 614 373.50 585Q345 556 303 556Z"  horiz-adv-x="634" vert-adv-y="1000"  />

      
      <glyph glyph-name="uni0122" unicode="&#x0122;" d="M422-14Q258-14 145 88Q33 190 33 350Q33 511 146 612Q258 714 431 714Q481 714 516 707Q556 699 574 692Q599 683 629 670L629 473Q560 508 490.50 516Q421 524 368.50 506.50Q316 489 284 447Q252 405 254 347Q254 265 303 219Q352 173 422 173Q476 173 505 193L505 408L721 408L721 93Q679 48 598 17Q517-14 422-14M431-309L277-309L338-78L515-78L431-309Z"  horiz-adv-x="751" vert-adv-y="1000"  />

      
      <glyph glyph-name="uni0123" unicode="&#x0123;" d="M381 460L381 516L592 516L592 84Q592 25 572.50-24.50Q553-74 521.50-106.50Q490-139 448-162Q406-185 363-195.50Q320-206 276-206Q139-206 70-164L70 17Q155-33 253-33Q381-33 381 69L381 100Q330 31 238 31Q141 31 80 101Q19 171 19 280Q19 389 80 459Q141 529 238 529Q328 529 381 460M384 234L384 326Q357 357 304 357Q269 357 248 335.50Q227 314 227 280Q227 246 248 224.50Q269 203 304 203Q357 203 384 234M325 821L479 821L418 590L241 590L325 821Z"  horiz-adv-x="634" vert-adv-y="1000"  />

      
      <glyph glyph-name="uni0124" unicode="&#x0124;" d="M268 0L53 0L53 700L268 700L268 463L482 463L482 700L697 700L697 0L482 0L482 276L268 276L268 0M318 760L147 760L279 917L475 917L603 760L429 760L373 821L318 760Z"  horiz-adv-x="750" vert-adv-y="1000"  />

      
      <glyph glyph-name="uni0125" unicode="&#x0125;" d="M38 0L38 700L248 700L248 450Q266 478 308 504Q351 529 399 529Q482 529 526 476Q570 423 570 327L570 0L359 0L359 282Q359 313 344.50 329Q330 345 307 345Q272 345 248 317L248 0L38 0M88 760L-83 760L49 917L245 917L373 760L199 760L143 821L88 760Z"  horiz-adv-x="611" vert-adv-y="1000"  />

      
      <glyph glyph-name="uni0126" unicode="&#x0126;" d="M298 0L83 0L83 511L30 511L30 619L83 619L83 700L298 700L298 619L512 619L512 700L726 700L726 619L780 619L780 511L726 511L726 0L512 0L512 276L298 276L298 0M298 511L298 455L512 455L512 511L298 511Z"  horiz-adv-x="810" vert-adv-y="1000"  />

      
      <glyph glyph-name="uni0127" unicode="&#x0127;" d="M319 216L319 0L109 0L109 511L8 511L8 619L109 619L109 700L319 700L319 619L497 619L497 511L319 511L319 349Q337 378 379 403Q422 428 470 428Q553 428 597 375Q641 322 641 226L641 0L430 0L430 181Q430 212 415.50 228Q401 244 378 244Q343 244 319 216Z"  horiz-adv-x="682" vert-adv-y="1000"  />

      
      <glyph glyph-name="uni0128" unicode="&#x0128;" d="M60 756L-40 756Q-41 825-2 875Q36 925 97 925Q129 925 166 908Q203 891 225 891Q261 891 270 921L371 921Q371 859 332 805Q294 752 235 752Q198 752 162 770Q127 788 106 788Q71 788 60 756M273 0L58 0L58 700L273 700L273 0Z"  horiz-adv-x="328" vert-adv-y="1000"  />

      
      <glyph glyph-name="uni0129" unicode="&#x0129;" d="M55 572L-46 572Q-47 641-8 691Q30 741 92 741Q124 741 161 724Q198 707 219 707Q254 707 265 737L365 737Q366 676 327 621Q288 568 229 568Q193 568 157 586Q121 604 100 604Q63 604 55 572M265 0L54 0L54 516L265 516L265 0Z"  horiz-adv-x="318" vert-adv-y="1000"  />

      
      <glyph glyph-name="uni012A" unicode="&#x012A;" d="M272 0L57 0L57 700L272 700L272 0M345 768L-15 768L-15 903L345 903L345 768Z"  horiz-adv-x="328" vert-adv-y="1000"  />

      
      <glyph glyph-name="uni012B" unicode="&#x012B;" d="M264 0L53 0L53 516L264 516L264 0M339 584L-21 584L-21 719L339 719L339 584Z"  horiz-adv-x="318" vert-adv-y="1000"  />

      
      <glyph glyph-name="uni012C" unicode="&#x012C;" d="M166 744Q84 744 31.50 791.50Q-21 839-24 923L104 923Q111 862 166 862Q192 862 208 878.50Q224 895 226 923L354 923Q350 839 298.50 791.50Q247 744 166 744M272 0L57 0L57 700L272 700L272 0Z"  horiz-adv-x="328" vert-adv-y="1000"  />

      
      <glyph glyph-name="uni012D" unicode="&#x012D;" d="M-31 740L96 740Q103 679 158 679Q185 679 201 695.50Q217 712 219 740L347 740Q343 656 291 608.50Q239 561 158 561Q78 561 25 607Q-28 654-31 740M264 0L53 0L53 516L264 516L264 0Z"  horiz-adv-x="318" vert-adv-y="1000"  />

      
      <glyph glyph-name="uni012E" unicode="&#x012E;" d="M146 0L57 0L57 700L272 700L272 0Q262-9 251-27.50Q240-46 240-58Q240-86 277-86Q300-86 311-78L311-200Q287-209 241-209Q174-209 135-179Q96-149 96-101Q96-70 111.50-42.50Q127-15 146 0Z"  horiz-adv-x="328" vert-adv-y="1000"  />

      
      <glyph glyph-name="uni012F" unicode="&#x012F;" d="M138 0L53 0L53 516L264 516L264 0Q254-9 243-27.50Q232-46 232-58Q232-86 269-86Q292-86 303-78L303-200Q279-209 233-209Q166-209 127-179Q88-149 88-101Q88-70 103.50-42.50Q119-15 138 0M243 574.50Q243 574.50 226 557.25Q209 540 159 540Q109 540 75 574Q41 608 41 659Q41 708 75 742Q110 777 159 777Q207 777 242 742Q277 707 277 659Q277 609 243 574.50Z"  horiz-adv-x="318" vert-adv-y="1000"  />

      
      <glyph glyph-name="uni0130" unicode="&#x0130;" d="M164 741Q123 741 94 770Q65 799 65 840Q65 881 94 909.50Q123 938 164 938Q206 938 234.50 909.50Q263 881 263 840Q263 799 234.50 770Q206 741 164 741M272 0L57 0L57 700L272 700L272 0Z"  horiz-adv-x="328" vert-adv-y="1000"  />

      
      <glyph glyph-name="uni0131" unicode="&#x0131;" d="M264 0L53 0L53 516L264 516L264 0Z"  horiz-adv-x="318" vert-adv-y="1000"  />

      
      <glyph glyph-name="uni0132" unicode="&#x0132;" d="M272 288L57 288L57 700L272 700L272 288M273-14Q214-14 155-1Q94 12 57 36L57 235Q148 181 242 181Q391 181 391 315L391 700L606 700L606 315Q606-14 273-14Z"  horiz-adv-x="659" vert-adv-y="1000"  />

      
      <glyph glyph-name="uni0133" unicode="&#x0133;" d="M477 540Q428 540 394 574Q360 608 360 659Q360 708 394 742.50Q428 777 477 777Q525 777 560 742Q595 707 595 659Q595 609 561 574.50Q527 540 477 540M351-206Q269-206 227-186L227-27Q257-42 297-42Q333-42 352.50-25.50Q372-9 372 21L372 516L583 516L583 19Q583-86 522.50-146Q462-206 351-206M264 0L53 0L53 516L264 516L264 0M243 574.50Q243 574.50 226 557.25Q209 540 159 540Q109 540 75 574Q41 608 41 659Q41 708 75 742Q110 777 159 777Q207 777 242 742Q277 707 277 659Q277 609 243 574.50Z"  horiz-adv-x="636" vert-adv-y="1000"  />

      
      <glyph glyph-name="uni0134" unicode="&#x0134;" d="M194-14Q74-14 18 22L18 225Q82 181 146 181Q199 181 224.50 203.50Q250 226 250 279L250 700L465 700L465 248Q465 96 378 37Q303-14 194-14M298 760L127 760L259 917L455 917L583 760L409 760L353 821L298 760Z"  horiz-adv-x="509" vert-adv-y="1000"  />

      
      <glyph glyph-name="uni0135" unicode="&#x0135;" d="M106 576L-68 576L64 732L263 732L391 576L214 576L159 637L106 576M45-206Q-48-206-91-184L-91-10Q-52-29-12-29Q19-29 36.50-13Q54 3 54 32L54 516L265 516L265 19Q265-84 207-145Q149-206 45-206Z"  horiz-adv-x="318" vert-adv-y="1000"  />

      
      <glyph glyph-name="uni0136" unicode="&#x0136;" d="M268 0L53 0L53 700L268 700L268 439L465 700L718 700L470 375L768 0L504 0L268 302L268 0M391-309L237-309L298-78L475-78L391-309Z"  horiz-adv-x="754" vert-adv-y="1000"  />

      
      <glyph glyph-name="uni0137" unicode="&#x0137;" d="M248 0L38 0L38 700L248 700L248 334L381 516L622 516L436 284L654 0L397 0L248 209L248 0M342-309L188-309L249-78L426-78L342-309Z"  horiz-adv-x="643" vert-adv-y="1000"  />

      
      <glyph glyph-name="uni0138" unicode="&#x0138;" d="M260 0L50 0L50 516L260 516L260 334L393 516L634 516L448 284L666 0L409 0L260 209L260 0Z"  horiz-adv-x="655" vert-adv-y="1000"  />

      
      <glyph glyph-name="uni0139" unicode="&#x0139;" d="M586 0L53 0L53 700L268 700L268 185L586 185L586 0M250 759L79 759L174 917L420 917L250 759Z"  horiz-adv-x="606" vert-adv-y="1000"  />

      
      <glyph glyph-name="uni013A" unicode="&#x013A;" d="M194-13Q39-13 39 144L39 700L249 700L249 191Q249 177 257 170Q265 163 276 163Q289 163 301 168L301 7Q259-13 194-13M229 759L58 759L153 917L399 917L229 759Z"  horiz-adv-x="329" vert-adv-y="1000"  />

      
      <glyph glyph-name="uni013B" unicode="&#x013B;" d="M586 0L53 0L53 700L268 700L268 185L586 185L586 0M352-309L198-309L259-78L436-78L352-309Z"  horiz-adv-x="606" vert-adv-y="1000"  />

      
      <glyph glyph-name="uni013C" unicode="&#x013C;" d="M205-13Q50-13 50 144L50 700L260 700L260 191Q260 177 268 170Q276 163 287 163Q300 163 312 168L312 7Q270-13 205-13M210-309L56-309L117-78L294-78L210-309Z"  horiz-adv-x="341" vert-adv-y="1000"  />

      
      <glyph glyph-name="uni013D" unicode="&#x013D;" d="M586 0L53 0L53 700L268 700L268 185L586 185L586 0M519 469L365 469L426 700L603 700L519 469Z"  horiz-adv-x="616" vert-adv-y="1000"  />

      
      <glyph glyph-name="uni013E" unicode="&#x013E;" d="M206-13Q51-13 51 144L51 700L261 700L261 191Q261 177 269 170Q277 163 288 163Q301 163 313 168L313 7Q271-13 206-13M468 469L314 469L375 700L552 700L468 469Z"  horiz-adv-x="532" vert-adv-y="1000"  />

      
      <glyph glyph-name="uni013F" unicode="&#x013F;" d="M464 515Q514 515 550 479Q586 444 586 393Q586 342 550 306Q514 270 464 270Q414 270 377 306Q341 342 341 393Q341 444 377 479Q413 515 464 515M586 0L53 0L53 700L268 700L268 185L586 185L586 0Z"  horiz-adv-x="606" vert-adv-y="1000"  />

      
      <glyph glyph-name="uni0140" unicode="&#x0140;" d="M192-13Q37-13 37 144L37 700L247 700L247 191Q247 177 255 170Q263 163 274 163Q287 163 299 168L299 7Q257-13 192-13M410 515Q460 515 496 479Q532 444 532 393Q532 342 496 306Q460 270 410 270Q360 270 323 306Q287 342 287 393Q287 444 323 479Q359 515 410 515Z"  horiz-adv-x="549" vert-adv-y="1000"  />

      
      <glyph glyph-name="uni0141" unicode="&#x0141;" d="M634 0L102 0L102 232L3 166L3 344L102 410L102 700L316 700L316 551L454 645L454 466L316 373L316 185L634 185L634 0Z"  horiz-adv-x="654" vert-adv-y="1000"  />

      
      <glyph glyph-name="uni0142" unicode="&#x0142;" d="M105 202L3 134L3 313L105 381L105 700L315 700L315 520L421 591L421 412L315 341L315 191Q315 177 323 170Q331 163 342 163Q355 163 367 168L367 7Q325-13 260-13Q105-13 105 144L105 202Z"  horiz-adv-x="414" vert-adv-y="1000"  />

      
      <glyph glyph-name="uni0143" unicode="&#x0143;" d="M259 0L53 0L53 700L236 700L504 362L504 700L708 700L708 0L531 0L259 340L259 0M458 759L287 759L382 917L628 917L458 759Z"  horiz-adv-x="761" vert-adv-y="1000"  />

      
      <glyph glyph-name="uni0144" unicode="&#x0144;" d="M50 0L50 516L260 516L260 450Q278 478 320 504Q363 529 411 529Q494 529 538 476Q582 423 582 327L582 0L371 0L371 282Q371 313 356.50 329Q342 345 319 345Q284 345 260 317L260 0L50 0M370 576L199 576L294 734L539 734L370 576Z"  horiz-adv-x="623" vert-adv-y="1000"  />

      
      <glyph glyph-name="uni0145" unicode="&#x0145;" d="M259 0L53 0L53 700L236 700L504 362L504 700L708 700L708 0L531 0L259 340L259 0M413-309L259-309L320-78L497-78L413-309Z"  horiz-adv-x="761" vert-adv-y="1000"  />

      
      <glyph glyph-name="uni0146" unicode="&#x0146;" d="M260 317L260 0L50 0L50 516L260 516L260 450Q278 478 320 504Q363 529 411 529Q494 529 538 476Q582 423 582 327L582 0L371 0L371 282Q371 313 356.50 329Q342 345 319 345Q284 345 260 317M320-309L166-309L227-78L404-78L320-309Z"  horiz-adv-x="623" vert-adv-y="1000"  />

      
      <glyph glyph-name="uni0147" unicode="&#x0147;" d="M259 0L53 0L53 700L236 700L504 362L504 700L708 700L708 0L531 0L259 340L259 0M438 917L608 917L477 760L281 760L152 917L327 917L383 856L438 917Z"  horiz-adv-x="761" vert-adv-y="1000"  />

      
      <glyph glyph-name="uni0148" unicode="&#x0148;" d="M50 0L50 516L260 516L260 450Q278 478 320 504Q363 529 411 529Q494 529 538 476Q582 423 582 327L582 0L371 0L371 282Q371 313 356.50 329Q342 345 319 345Q284 345 260 317L260 0L50 0M374 733L545 733L413 576L217 576L88 733L263 733L319 671L374 733Z"  horiz-adv-x="623" vert-adv-y="1000"  />

      
      <glyph glyph-name="uni0149" unicode="&#x0149;" d="M257 0L257 516L467 516L467 450Q485 478 527 504Q570 529 618 529Q701 529 745 476Q789 423 789 327L789 0L578 0L578 282Q578 313 563.50 329Q549 345 526 345Q491 345 467 317L467 0L257 0M175 469L21 469L82 700L259 700L175 469Z"  horiz-adv-x="830" vert-adv-y="1000"  />

      
      <glyph glyph-name="uni014A" unicode="&#x014A;" d="M482-206Q401-206 359-186L359-15Q389-30 426-30Q497-30 497 33L497 42L259 340L259 0L53 0L53 700L236 700L504 362L504 700L708 700L708 0Q708-94 648.50-150Q589-206 482-206Z"  horiz-adv-x="761" vert-adv-y="1000"  />

      
      <glyph glyph-name="uni014B" unicode="&#x014B;" d="M260 317L260 0L50 0L50 516L260 516L260 450Q278 478 320 504Q363 529 411 529Q494 529 538 476Q582 423 582 327L582 19Q582-86 522-146Q462-206 350-206Q268-206 226-186L226-27Q256-42 296-42Q332-42 351.50-25.50Q371-9 371 21L371 282Q371 313 356.50 329Q342 345 319 345Q284 345 260 317Z"  horiz-adv-x="623" vert-adv-y="1000"  />

      
      <glyph glyph-name="uni014C" unicode="&#x014C;" d="M297 229Q341 182 408 182Q475 182 519 229Q563 278 563 350Q563 423 519 470Q476 518 408 518Q340 518 297 470Q253 423 253 350Q253 278 297 229M139 93Q33 199 33 350Q33 501 139 607Q246 714 408 714Q569 714 676 607Q782 501 782 350Q782 198 676 92Q570-14 408-14Q246-14 139 93M586 768L226 768L226 903L586 903L586 768Z"  horiz-adv-x="816" vert-adv-y="1000"  />

      
      <glyph glyph-name="uni014D" unicode="&#x014D;" d="M224 258Q224 258 224 237.50Q224 217 249 191Q274 165 313 165Q352 165 377 191Q402 217 402 258Q402 299 377 324Q352 351 313 351Q274 351 249 324Q224 299 224 258M313-13Q187-13 102 64Q19 141 19 258Q19 375 102 452Q187 529 313 529Q441 529 524 452Q608 376 608 258Q608 140 524 64Q441-13 313-13M493 584L133 584L133 719L493 719L493 584Z"  horiz-adv-x="626" vert-adv-y="1000"  />

      
      <glyph glyph-name="uni014E" unicode="&#x014E;" d="M297 229Q341 182 408 182Q475 182 519 229Q563 278 563 350Q563 423 519 470Q476 518 408 518Q340 518 297 470Q253 423 253 350Q253 278 297 229M139 93Q33 199 33 350Q33 501 139 607Q246 714 408 714Q569 714 676 607Q782 501 782 350Q782 198 676 92Q570-14 408-14Q246-14 139 93M409 762Q327 762 274.50 809.50Q222 857 219 941L347 941Q354 880 409 880Q435 880 451 896.50Q467 913 469 941L597 941Q593 857 541.50 809.50Q490 762 409 762Z"  horiz-adv-x="816" vert-adv-y="1000"  />

      
      <glyph glyph-name="uni014F" unicode="&#x014F;" d="M224 258Q224 258 224 237.50Q224 217 249 191Q274 165 313 165Q352 165 377 191Q402 217 402 258Q402 299 377 324Q352 351 313 351Q274 351 249 324Q224 299 224 258M313-13Q187-13 102 64Q19 141 19 258Q19 375 102 452Q187 529 313 529Q441 529 524 452Q608 376 608 258Q608 140 524 64Q441-13 313-13M125 751L252 751Q259 690 314 690Q341 690 357 706.50Q373 723 375 751L503 751Q499 667 447 619.50Q395 572 314 572Q234 572 181 618Q128 665 125 751Z"  horiz-adv-x="626" vert-adv-y="1000"  />

      
      <glyph glyph-name="uni0150" unicode="&#x0150;" d="M297 229Q341 182 408 182Q475 182 519 229Q563 278 563 350Q563 423 519 470Q476 518 408 518Q340 518 297 470Q253 423 253 350Q253 278 297 229M139 93Q33 199 33 350Q33 501 139 607Q246 714 408 714Q569 714 676 607Q782 501 782 350Q782 198 676 92Q570-14 408-14Q246-14 139 93M343 759L201 759L296 917L495 917L343 759M578 759L436 759L531 917L730 917L578 759Z"  horiz-adv-x="816" vert-adv-y="1000"  />

      
      <glyph glyph-name="uni0151" unicode="&#x0151;" d="M224 258Q224 258 224 237.50Q224 217 249 191Q274 165 313 165Q352 165 377 191Q402 217 402 258Q402 299 377 324Q352 351 313 351Q274 351 249 324Q224 299 224 258M313-13Q187-13 102 64Q19 141 19 258Q19 375 102 452Q187 529 313 529Q441 529 524 452Q608 376 608 258Q608 140 524 64Q441-13 313-13M254 576L112 576L207 734L406 734L254 576M489 576L347 576L442 734L641 734L489 576Z"  horiz-adv-x="626" vert-adv-y="1000"  />

      
      <glyph glyph-name="uni0152" unicode="&#x0152;" d="M1008 0L423 0Q252 0 142 98Q33 195 33 350Q33 505 142 602Q252 700 423 700L1002 700L1002 515L668 515L668 453L930 453L930 283L668 283L668 185L1008 185L1008 0M437 185L453 185L453 515L437 515Q350 515 302 472Q254 429 254 350Q254 271 302 228Q350 185 437 185Z"  horiz-adv-x="1036" vert-adv-y="1000"  />

      
      <glyph glyph-name="uni0153" unicode="&#x0153;" d="M909 261L909 213L581 213Q593 183 630.50 167.50Q668 152 716 152Q808 152 882 191L882 37Q812-13 677-13Q622-13 570.50 6Q519 25 489 56Q418-13 309-13Q188-13 103 64Q19 142 19 258Q19 373 103 451Q188 529 308 529Q413 529 491 463Q558 529 663 529Q764 529 836 456Q909 383 909 261M224 258Q224 258 224 237.50Q224 217 249 191Q274 165 313 165Q352 165 377 191Q402 217 402 258Q402 299 377 324Q352 351 313 351Q274 351 249 324Q224 299 224 258M577 313L714 313Q713 347 694.50 367.50Q676 388 648 388Q588 388 577 313Z"  horiz-adv-x="932" vert-adv-y="1000"  />

      
      <glyph glyph-name="uni0154" unicode="&#x0154;" d="M526 274L735 0L484 0L298 250L268 250L268 0L53 0L53 700L391 700Q511 700 582 636Q654 573 654 475Q654 409 620 356.50Q586 304 526 274M268 407L366 407Q396 407 414.50 422.50Q433 438 433 464Q433 490 414.50 505Q396 520 366 520L268 520L268 407M356 759L185 759L280 917L526 917L356 759Z"  horiz-adv-x="725" vert-adv-y="1000"  />

      
      <glyph glyph-name="uni0155" unicode="&#x0155;" d="M260 0L50 0L50 516L260 516L260 434Q275 466 321 497Q368 529 421 529Q438 529 449 526L449 328Q415 336 386 336Q302 336 260 291L260 0M299 576L128 576L223 734L468 734L299 576Z"  horiz-adv-x="473" vert-adv-y="1000"  />

      
      <glyph glyph-name="uni0156" unicode="&#x0156;" d="M526 274L735 0L484 0L298 250L268 250L268 0L53 0L53 700L391 700Q511 700 582 636Q654 573 654 475Q654 409 620 356.50Q586 304 526 274M268 407L366 407Q396 407 414.50 422.50Q433 438 433 464Q433 490 414.50 505Q396 520 366 520L268 520L268 407M390-309L236-309L297-78L474-78L390-309Z"  horiz-adv-x="725" vert-adv-y="1000"  />

      
      <glyph glyph-name="uni0157" unicode="&#x0157;" d="M260 0L50 0L50 516L260 516L260 434Q275 466 321 497Q368 529 421 529Q438 529 449 526L449 328Q415 336 386 336Q302 336 260 291L260 0M155-309L1-309L62-78L239-78L155-309Z"  horiz-adv-x="473" vert-adv-y="1000"  />

      
      <glyph glyph-name="uni0158" unicode="&#x0158;" d="M526 274L735 0L484 0L298 250L268 250L268 0L53 0L53 700L391 700Q511 700 582 636Q654 573 654 475Q654 409 620 356.50Q586 304 526 274M268 407L366 407Q396 407 414.50 422.50Q433 438 433 464Q433 490 414.50 505Q396 520 366 520L268 520L268 407M388 917L558 917L427 760L231 760L102 917L277 917L333 856L388 917Z"  horiz-adv-x="725" vert-adv-y="1000"  />

      
      <glyph glyph-name="uni0159" unicode="&#x0159;" d="M260 0L50 0L50 516L260 516L260 434Q275 466 321 497Q368 529 421 529Q438 529 449 526L449 328Q415 336 386 336Q302 336 260 291L260 0M295 733L466 733L334 576L138 576L9 733L184 733L240 671L295 733Z"  horiz-adv-x="473" vert-adv-y="1000"  />

      
      <glyph glyph-name="uni015A" unicode="&#x015A;" d="M327-14Q154-14 36 61L36 271Q84 230 172 202Q262 173 331 173Q412 173 412 206Q412 220 382 234Q353 247 266 273Q151 307 93.50 359.50Q36 412 36 497Q36 602 116 658Q196 714 337 714Q470 714 590 658L590 458Q538 489 461 508Q383 529 321 529Q259 529 259 503Q259 490 288 476Q317 465 419 434Q529 401 582 348Q635 295 635 216Q635 111 550 48Q465-14 327-14M373 759L202 759L297 917L543 917L373 759Z"  horiz-adv-x="662" vert-adv-y="1000"  />

      
      <glyph glyph-name="uni015B" unicode="&#x015B;" d="M246-13Q108-13 31 32L31 191Q69 169 128 153Q188 137 249 137Q292 137 292 156Q292 165 280 171Q272 176 233 187L179 203Q98 231 61 264Q27 297 27 361Q27 441 94 485Q161 529 279 529Q393 529 482 479L482 324Q444 347 387 363Q327 380 281 380Q246 380 246 362Q246 353 267 343Q274 340 288 336L350 319Q435 292 469.50 257Q504 222 504 158Q504 80 436.50 33.50Q369-13 246-13M305 576L134 576L229 734L474 734L305 576Z"  horiz-adv-x="522" vert-adv-y="1000"  />

      
      <glyph glyph-name="uni015C" unicode="&#x015C;" d="M327-14Q154-14 36 61L36 271Q84 230 172 202Q262 173 331 173Q412 173 412 206Q412 220 382 234Q353 247 266 273Q151 307 93.50 359.50Q36 412 36 497Q36 602 116 658Q196 714 337 714Q470 714 590 658L590 458Q538 489 461 508Q383 529 321 529Q259 529 259 503Q259 490 288 476Q317 465 419 434Q529 401 582 348Q635 295 635 216Q635 111 550 48Q465-14 327-14M265 760L94 760L226 917L422 917L550 760L376 760L320 821L265 760Z"  horiz-adv-x="662" vert-adv-y="1000"  />

      
      <glyph glyph-name="uni015D" unicode="&#x015D;" d="M246-13Q108-13 31 32L31 191Q69 169 128 153Q188 137 249 137Q292 137 292 156Q292 165 280 171Q272 176 233 187L179 203Q98 231 61 264Q27 297 27 361Q27 441 94 485Q161 529 279 529Q393 529 482 479L482 324Q444 347 387 363Q327 380 281 380Q246 380 246 362Q246 353 267 343Q274 340 288 336L350 319Q435 292 469.50 257Q504 222 504 158Q504 80 436.50 33.50Q369-13 246-13M208 577L37 577L169 734L365 734L493 577L319 577L263 638L208 577Z"  horiz-adv-x="522" vert-adv-y="1000"  />

      
      <glyph glyph-name="uni015E" unicode="&#x015E;" d="M416-6L363-159L121-159L239-9Q120 6 36 61L36 271Q84 230 172 202Q262 173 331 173Q412 173 412 206Q412 220 382 234Q353 247 266 273Q151 307 93.50 359.50Q36 412 36 497Q36 602 116 658Q196 714 337 714Q470 714 590 658L590 458Q538 489 461 508Q383 529 321 529Q259 529 259 503Q259 490 288 476Q317 465 419 434Q529 401 582 348Q635 295 635 216Q635 129 576.50 70.50Q518 12 416-6Z"  horiz-adv-x="665" vert-adv-y="1000"  />

      
      <glyph glyph-name="uni015F" unicode="&#x015F;" d="M289-159L47-159L166-8Q78 4 31 32L31 191Q69 169 128 153Q188 137 249 137Q292 137 292 156Q292 165 280 171Q272 176 233 187L179 203Q98 231 61 264Q27 297 27 361Q27 441 94 485Q161 529 279 529Q393 529 482 479L482 324Q444 347 387 363Q327 380 281 380Q246 380 246 362Q246 353 267 343Q274 340 288 336L350 319Q435 292 469.50 257Q504 222 504 158Q504 97 462.50 54.50Q421 12 343-4L289-159Z"  horiz-adv-x="522" vert-adv-y="1000"  />

      
      <glyph glyph-name="uni0160" unicode="&#x0160;" d="M327-14Q154-14 36 61L36 271Q84 230 172 202Q262 173 331 173Q412 173 412 206Q412 220 382 234Q353 247 266 273Q151 307 93.50 359.50Q36 412 36 497Q36 602 116 658Q196 714 337 714Q470 714 590 658L590 458Q538 489 461 508Q383 529 321 529Q259 529 259 503Q259 490 288 476Q317 465 419 434Q529 401 582 348Q635 295 635 216Q635 111 550 48Q465-14 327-14M391 917L561 917L430 760L234 760L105 917L280 917L336 856L391 917Z"  horiz-adv-x="662" vert-adv-y="1000"  />

      
      </font>
</defs>
</svg>
