<svg width="51" height="51" viewBox="0 0 51 51" fill="none" xmlns="http://www.w3.org/2000/svg">
<path d="M49.9917 1.06896C44.0584 0.650011 38.2052 2.11173 33.2523 5.14953L35.9374 15.7659L44.9425 11.2937L50.8653 1.13068L49.9917 1.06896Z" fill="#F2D05C"/>
<path d="M50.8653 1.13062L35.9374 15.7657L46.7661 18.3982C49.8645 13.5424 51.3555 7.80396 50.9282 1.98696L50.8653 1.13062Z" fill="#F79F5E"/>
<path d="M35.6221 33.628L35.2793 30.646L24.6113 34.1566L21.5392 44.1167L28.5587 50.9986L29.8876 49.6957C34.1934 45.4743 36.304 39.5604 35.6221 33.628Z" fill="#3D68ED"/>
<path d="M17.718 16.0749C11.667 15.4064 5.63471 17.4757 1.32889 21.697L0 23L7.01948 29.8818L17.3078 26.8029L20.7596 16.4111L17.718 16.0749Z" fill="#3D68ED"/>
<path d="M0.433838 39.4797L5.80599 34.2129L7.91871 36.2842L2.54656 41.551L0.433838 39.4797Z" fill="#F2D05C"/>
<path d="M9.62628 48.494L14.9984 43.2272L17.1112 45.2985L11.739 50.5653L9.62628 48.494Z" fill="#F79F5E"/>
<path d="M33.2523 5.14954C31.4879 6.23167 29.8368 7.51194 28.3385 8.98089L7.01953 29.8818L14.2794 36.9993L37.0469 23.9313L40.0092 11.774L33.2523 5.14954Z" fill="#EB4B4B"/>
<path d="M14.2793 36.9993L21.5391 44.1168L42.858 23.216C44.3564 21.747 45.6623 20.1282 46.766 18.3985L40.0091 11.774L14.2793 36.9993Z" fill="#BD3C3C"/>
<path d="M2.38043 46.5931L3.43699 47.6288L7.97889 44.2118L11.4643 39.759L10.4078 38.7231L2.38043 46.5931Z" fill="#F2D05C"/>
<path d="M3.43213 47.6246L11.4582 39.7559L12.5146 40.7916L4.48849 48.6603L3.43213 47.6246Z" fill="#F79F5E"/>
<path d="M27.6062 16.9809C25.6477 18.9009 25.6478 22.0137 27.6062 23.9338L32.9251 22.1956L34.6981 16.9809C32.7396 15.0609 29.5645 15.0609 27.6062 16.9809Z" fill="#063889"/>
<path d="M34.6981 16.9808L27.6062 23.9337C29.5645 25.8536 32.7397 25.8537 34.6981 23.9337C36.6564 22.0137 36.6564 18.9008 34.6981 16.9808Z" fill="#04275A"/>
</svg>
