<svg width="25" height="25" viewBox="0 0 25 25" fill="none" xmlns="http://www.w3.org/2000/svg">
<path d="M12.7637 22.0663C18.2865 22.0663 22.7637 17.5891 22.7637 12.0663C22.7637 6.54344 18.2865 2.06628 12.7637 2.06628C7.24082 2.06628 2.76367 6.54344 2.76367 12.0663C2.76367 17.5891 7.24082 22.0663 12.7637 22.0663Z" stroke="#A4A4A4" stroke-width="2" stroke-linecap="round" stroke-linejoin="round"/>
<path d="M9.85352 9.06627C10.0886 8.39794 10.5527 7.83438 11.1635 7.47541C11.7743 7.11643 12.4924 6.98521 13.1907 7.10499C13.889 7.22476 14.5223 7.5878 14.9786 8.1298C15.4349 8.67181 15.6846 9.3578 15.6835 10.0663C15.6835 12.0663 12.6835 13.0663 12.6835 13.0663" stroke="#A4A4A4" stroke-width="2" stroke-linecap="round" stroke-linejoin="round"/>
<path d="M12.7637 17.0663H12.7737" stroke="#A4A4A4" stroke-width="2" stroke-linecap="round" stroke-linejoin="round"/>
</svg>
