<svg width="33" height="33" viewBox="0 0 33 33" fill="none" xmlns="http://www.w3.org/2000/svg">
<path d="M24.4764 11.0305C24.4764 8.86667 23.6168 6.79144 22.0867 5.26137C20.5567 3.73129 18.4814 2.8717 16.3176 2.8717C14.1537 2.8717 12.0785 3.73129 10.5484 5.26137C9.01834 6.79144 8.15876 8.86667 8.15876 11.0305C8.15876 20.5491 4.07935 23.2688 4.07935 23.2688H28.5558C28.5558 23.2688 24.4764 20.5491 24.4764 11.0305Z" stroke="#383838" stroke-width="2.71961" stroke-linecap="round" stroke-linejoin="round"/>
<path d="M18.67 28.708C18.4309 29.1201 18.0878 29.4622 17.6749 29.7C17.2621 29.9378 16.794 30.063 16.3175 30.063C15.8411 30.063 15.373 29.9378 14.9602 29.7C14.5473 29.4622 14.2042 29.1201 13.9651 28.708" stroke="#383838" stroke-width="2.71961" stroke-linecap="round" stroke-linejoin="round"/>
</svg>
