<svg width="51" height="74" viewBox="0 0 51 74" fill="none" xmlns="http://www.w3.org/2000/svg">
<path d="M0 26.1186C0 12.0737 11.3076 0.688049 25.2563 0.688049C39.205 0.688049 50.5127 12.0737 50.5127 26.1186C50.5127 32.1706 48.4131 37.7288 44.9073 42.0951C41.6815 46.1126 38.7878 50.7241 38.7878 55.8904V58.5364C38.7878 59.9267 37.6686 61.0537 36.2878 61.0537H14.2252C12.8445 61.0537 11.7252 59.9267 11.7252 58.5364V55.8908C11.7252 50.7244 8.83136 46.1128 5.6055 42.0953C2.09965 37.7289 0 32.1706 0 26.1186Z" fill="#383838"/>
<path fill-rule="evenodd" clip-rule="evenodd" d="M25.2563 0.688049C11.3076 0.688049 0 12.0737 0 26.1186C0 32.1706 2.09965 37.7289 5.6055 42.0953C8.83136 46.1128 11.7252 50.7244 11.7252 55.8908V58.5364C11.7252 59.9267 12.8445 61.0537 14.2252 61.0537H36.2878C37.6686 61.0537 38.7878 59.9267 38.7878 58.5364V55.8904C38.7878 50.7241 41.6815 46.1126 44.9073 42.0951C48.4131 37.7288 50.5127 32.1706 50.5127 26.1186C50.5127 12.0737 39.205 0.688049 25.2563 0.688049Z" fill="#383838"/>
<rect x="11.7505" y="63.7192" width="27.0117" height="10.2808" rx="1.72999" fill="#383838"/>
<path d="M25.2564 31.0187C27.7537 31.0187 29.7782 28.9802 29.7782 26.4657C29.7782 23.9512 27.7537 21.9127 25.2564 21.9127C22.759 21.9127 20.7345 23.9512 20.7345 26.4657C20.7345 28.9802 22.759 31.0187 25.2564 31.0187Z" stroke="white" stroke-width="2.5" stroke-linecap="round" stroke-linejoin="round"/>
<path d="M36.4101 31.0187C36.2095 31.4764 36.1497 31.9842 36.2383 32.4765C36.327 32.9689 36.5601 33.4232 36.9075 33.7808L36.998 33.8719C37.2783 34.1538 37.5006 34.4886 37.6523 34.857C37.804 35.2255 37.8821 35.6205 37.8821 36.0194C37.8821 36.4183 37.804 36.8133 37.6523 37.1817C37.5006 37.5502 37.2783 37.885 36.998 38.1669C36.718 38.4491 36.3855 38.673 36.0196 38.8257C35.6536 38.9785 35.2614 39.0571 34.8652 39.0571C34.469 39.0571 34.0768 38.9785 33.7108 38.8257C33.3448 38.673 33.0124 38.4491 32.7324 38.1669L32.642 38.0758C32.2867 37.726 31.8356 37.4912 31.3466 37.402C30.8577 37.3127 30.3534 37.373 29.8987 37.575C29.4529 37.7674 29.0727 38.0868 28.8049 38.494C28.5371 38.9012 28.3934 39.3783 28.3915 39.8667V40.1247C28.3915 40.9297 28.0739 41.7017 27.5085 42.271C26.9432 42.8402 26.1764 43.16 25.3769 43.16C24.5774 43.16 23.8107 42.8402 23.2453 42.271C22.68 41.7017 22.3624 40.9297 22.3624 40.1247V39.9881C22.3507 39.4858 22.1892 38.9986 21.8989 38.5899C21.6086 38.1812 21.2029 37.8699 20.7345 37.6964C20.2799 37.4944 19.7756 37.4341 19.2867 37.5234C18.7977 37.6127 18.3465 37.8474 17.9913 38.1972L17.9009 38.2883C17.6209 38.5705 17.2884 38.7944 16.9225 38.9472C16.5565 39.0999 16.1643 39.1785 15.7681 39.1785C15.3719 39.1785 14.9797 39.0999 14.6137 38.9472C14.2477 38.7944 13.9153 38.5705 13.6353 38.2883C13.355 38.0064 13.1327 37.6716 12.981 37.3032C12.8293 36.9347 12.7512 36.5397 12.7512 36.1408C12.7512 35.7419 12.8293 35.3469 12.981 34.9785C13.1327 34.61 13.355 34.2752 13.6353 33.9933L13.7257 33.9023C14.0732 33.5446 14.3063 33.0903 14.395 32.598C14.4836 32.1056 14.4238 31.5979 14.2231 31.1401C14.0321 30.6912 13.7148 30.3084 13.3104 30.0387C12.9061 29.7691 12.4322 29.6244 11.9472 29.6224H11.6909C10.8914 29.6224 10.1247 29.3026 9.55933 28.7334C8.99399 28.1642 8.67639 27.3921 8.67639 26.5871C8.67639 25.7821 8.99399 25.01 9.55933 24.4408C10.1247 23.8716 10.8914 23.5518 11.6909 23.5518H11.8266C12.3255 23.54 12.8093 23.3774 13.2152 23.0851C13.6211 22.7928 13.9303 22.3843 14.1026 21.9127C14.3032 21.455 14.3631 20.9472 14.2744 20.4549C14.1857 19.9625 13.9526 19.5082 13.6052 19.1506L13.5147 19.0595C13.2344 18.7776 13.0121 18.4428 12.8604 18.0744C12.7087 17.7059 12.6306 17.3109 12.6306 16.912C12.6306 16.5131 12.7087 16.1181 12.8604 15.7497C13.0121 15.3812 13.2344 15.0464 13.5147 14.7645C13.7947 14.4823 14.1272 14.2584 14.4931 14.1057C14.8591 13.9529 15.2514 13.8743 15.6475 13.8743C16.0437 13.8743 16.4359 13.9529 16.8019 14.1057C17.1679 14.2584 17.5003 14.4823 17.7803 14.7645L17.8707 14.8556C18.226 15.2054 18.6771 15.4402 19.1661 15.5294C19.655 15.6187 20.1593 15.5584 20.614 15.3564H20.7345C21.1803 15.164 21.5606 14.8446 21.8284 14.4374C22.0962 14.0302 22.2399 13.5531 22.2418 13.0647V12.8067C22.2418 12.0017 22.5594 11.2297 23.1248 10.6604C23.6901 10.0912 24.4568 9.77139 25.2564 9.77139C26.0559 9.77139 26.8226 10.0912 27.388 10.6604C27.9533 11.2297 28.2709 12.0017 28.2709 12.8067V12.9433C28.2728 13.4317 28.4165 13.9088 28.6843 14.316C28.9522 14.7232 29.3324 15.0426 29.7782 15.235C30.2328 15.437 30.7371 15.4973 31.226 15.408C31.715 15.3187 32.1662 15.084 32.5214 14.7342L32.6118 14.6431C32.8918 14.3609 33.2243 14.137 33.5902 13.9842C33.9562 13.8315 34.3485 13.7529 34.7446 13.7529C35.1408 13.7529 35.533 13.8315 35.899 13.9842C36.265 14.137 36.5974 14.3609 36.8774 14.6431C37.1577 14.925 37.38 15.2598 37.5317 15.6282C37.6834 15.9967 37.7615 16.3917 37.7615 16.7906C37.7615 17.1895 37.6834 17.5845 37.5317 17.9529C37.38 18.3214 37.1577 18.6562 36.8774 18.9381L36.787 19.0291C36.4395 19.3868 36.2064 19.8411 36.1177 20.3334C36.0291 20.8258 36.0889 21.3335 36.2896 21.7913V21.9127C36.4806 22.3616 36.7979 22.7444 37.2023 23.0141C37.6067 23.2837 38.0805 23.4284 38.5655 23.4304H38.8218C39.6213 23.4304 40.388 23.7502 40.9534 24.3194C41.5187 24.8886 41.8363 25.6607 41.8363 26.4657C41.8363 27.2707 41.5187 28.0428 40.9534 28.612C40.388 29.1812 39.6213 29.501 38.8218 29.501H38.6861C38.2011 29.503 37.7272 29.6477 37.3229 29.9173C36.9185 30.187 36.6012 30.5698 36.4101 31.0187Z" stroke="white" stroke-width="2.5" stroke-linecap="round" stroke-linejoin="round"/>
</svg>
