<svg width="25" height="25" viewBox="0 0 25 25" fill="none" xmlns="http://www.w3.org/2000/svg">
<g clip-path="url(#clip0_301_731)">
<path d="M17.0752 21.0847V19.0847C17.0752 18.0239 16.6538 17.0064 15.9036 16.2563C15.1535 15.5061 14.1361 15.0847 13.0752 15.0847H5.0752C4.01433 15.0847 2.99691 15.5061 2.24677 16.2563C1.49662 17.0064 1.0752 18.0239 1.0752 19.0847V21.0847" stroke="#26AB5B" stroke-width="2" stroke-linecap="round" stroke-linejoin="round"/>
<path d="M9.0752 11.0847C11.2843 11.0847 13.0752 9.29386 13.0752 7.08472C13.0752 4.87558 11.2843 3.08472 9.0752 3.08472C6.86606 3.08472 5.0752 4.87558 5.0752 7.08472C5.0752 9.29386 6.86606 11.0847 9.0752 11.0847Z" stroke="#26AB5B" stroke-width="2" stroke-linecap="round" stroke-linejoin="round"/>
<path d="M23.0752 21.0847V19.0847C23.0745 18.1984 22.7796 17.3375 22.2366 16.637C21.6936 15.9366 20.9333 15.4363 20.0752 15.2147" stroke="#26AB5B" stroke-width="2" stroke-linecap="round" stroke-linejoin="round"/>
<path d="M16.0752 3.21471C16.9356 3.43502 17.6982 3.93542 18.2428 4.63702C18.7874 5.33863 19.083 6.20154 19.083 7.08971C19.083 7.97788 18.7874 8.84079 18.2428 9.5424C17.6982 10.244 16.9356 10.7444 16.0752 10.9647" stroke="#26AB5B" stroke-width="2" stroke-linecap="round" stroke-linejoin="round"/>
</g>
<defs>
<clipPath id="clip0_301_731">
<rect width="24" height="24" fill="white" transform="translate(0.0751953 0.0847168)"/>
</clipPath>
</defs>
</svg>
